{"glyphs":{"0":{"ha":1029,"x_min":111,"x_max":947,"o":"m 469 756 q 626 753 589 764 q 708 683 669 740 l 724 660 l 769 660 q 867 664 811 660 q 926 663 910 667 q 947 644 943 658 q 940 497 950 633 q 925 193 931 349 q 920 138 924 153 q 907 119 917 122 q 534 117 897 117 q 161 119 171 117 q 117 149 128 128 q 112 171 113 158 q 115 225 111 183 q 119 465 119 290 q 120 616 119 588 q 126 650 121 644 q 167 660 142 668 q 242 653 176 656 q 321 654 307 651 q 343 678 332 656 q 391 734 363 717 q 469 756 419 751 m 613 679 q 612 681 613 679 q 594 686 611 682 q 571 689 578 690 q 558 688 569 689 q 540 686 547 688 q 518 683 524 686 q 501 665 513 679 q 438 589 485 643 l 407 550 q 464 603 443 583 q 571 681 547 681 q 575 677 575 681 q 546 640 575 674 q 493 583 517 607 q 471 558 471 563 q 543 614 471 549 q 603 668 592 658 q 613 679 614 676 m 478 668 q 492 683 493 681 q 472 683 492 686 q 399 617 464 681 q 304 518 333 554 q 242 440 274 485 l 206 393 l 261 449 q 386 578 332 521 q 478 668 456 650 m 564 589 q 611 642 594 619 q 626 668 628 664 q 493 557 624 676 q 513 557 492 554 q 535 563 526 558 q 564 589 543 568 m 486 658 q 491 668 494 668 q 404 583 488 668 q 201 379 213 386 q 194 342 193 375 l 196 307 l 224 342 q 308 460 286 417 q 344 503 315 475 q 425 590 376 533 q 486 658 471 640 m 543 650 q 549 657 546 654 q 553 661 551 660 l 553 664 q 514 635 549 664 q 456 582 479 606 l 417 546 l 433 549 q 490 594 450 551 q 543 650 529 633 m 649 638 q 642 651 649 642 l 633 661 l 629 650 q 590 603 624 639 l 556 567 l 601 600 q 649 638 646 633 m 658 621 q 629 610 658 629 q 572 569 614 599 q 563 560 563 563 q 575 554 564 557 q 593 549 588 551 q 629 581 600 547 q 658 621 658 615 m 674 600 q 643 583 674 618 l 621 558 l 647 576 q 674 600 674 596 m 697 588 q 681 589 699 597 q 649 567 669 582 l 611 540 l 625 532 l 638 524 l 667 553 q 697 588 696 585 m 733 586 q 733 589 736 588 q 725 590 731 590 q 682 557 713 589 q 689 550 642 514 q 733 586 706 563 m 806 589 q 799 590 806 590 q 772 585 779 589 q 756 568 764 581 q 714 526 744 553 q 683 500 683 503 q 731 536 683 497 q 786 576 771 567 q 806 589 806 586 m 842 556 q 875 587 875 583 q 851 590 875 590 q 828 585 828 590 q 810 563 828 579 q 796 545 797 549 q 800 538 794 542 q 812 535 806 532 q 842 556 818 538 m 222 579 q 207 583 221 581 q 193 583 194 585 q 193 571 192 582 l 194 556 l 208 567 l 222 579 m 310 539 l 349 586 q 271 510 347 586 q 204 442 215 454 q 193 417 193 429 q 197 401 194 401 q 236 449 203 406 q 310 539 269 493 m 753 582 q 713 557 753 592 q 664 522 676 528 q 653 515 654 518 q 654 507 651 513 q 663 499 660 499 q 711 538 669 499 q 753 582 753 576 m 226 549 q 244 581 251 582 q 217 563 239 581 l 193 544 l 193 501 q 197 463 193 461 q 229 501 210 478 l 257 536 l 238 522 q 206 513 203 497 q 226 549 207 522 m 261 557 q 269 565 261 557 q 276 578 276 574 q 269 582 276 582 q 242 554 261 582 q 218 519 215 521 q 232 529 219 519 q 261 557 246 540 m 268 521 q 328 581 328 579 q 317 582 328 582 q 276 546 307 582 q 225 481 221 481 q 268 521 228 481 m 800 565 q 814 582 817 582 q 789 567 813 582 q 761 547 765 551 l 771 546 q 800 565 783 547 m 857 551 l 860 558 q 835 539 857 557 q 810 511 810 519 q 812 503 810 503 q 833 523 814 503 q 857 551 851 543 m 871 528 q 869 551 871 551 q 856 538 868 551 q 828 506 846 524 q 810 476 810 488 q 814 465 810 465 q 844 486 818 465 l 871 504 l 871 528 m 743 531 q 725 519 760 549 q 689 490 710 507 l 675 479 l 682 460 q 689 414 689 440 l 690 386 l 718 414 q 742 449 744 442 q 732 453 739 457 q 718 449 725 450 q 706 448 711 447 q 701 451 701 449 q 725 490 701 468 q 736 511 736 500 q 743 531 736 524 m 860 376 q 865 489 867 488 q 863 488 864 490 q 860 481 861 485 q 728 343 856 471 q 589 200 599 215 q 588 196 586 196 q 621 226 593 199 q 681 281 661 265 q 760 342 700 297 q 828 388 825 390 q 822 378 829 388 q 801 355 815 369 q 772 324 788 340 q 695 240 732 283 q 658 192 658 197 l 665 197 q 685 216 672 204 q 713 243 697 228 q 786 308 754 283 q 824 326 818 332 q 786 261 835 315 q 751 219 749 221 q 771 233 753 219 q 828 265 819 274 q 810 221 838 257 q 801 208 804 214 q 797 200 797 203 q 796 196 796 197 q 818 207 800 194 q 846 206 849 226 q 844 200 846 203 q 847 186 840 186 q 853 225 853 186 q 860 376 853 267 m 549 481 q 510 483 518 482 q 467 481 496 486 q 425 469 438 476 q 357 367 357 435 q 383 299 357 326 q 453 265 408 271 q 574 307 524 257 q 617 394 613 344 q 590 467 622 443 q 549 481 575 478 m 736 476 q 735 485 736 485 q 721 472 732 486 q 714 456 708 456 q 725 460 717 456 q 736 476 736 465 m 736 367 q 828 458 826 451 q 829 464 831 464 q 749 392 822 464 q 661 300 676 321 q 692 322 653 288 q 736 367 710 340 m 775 433 l 763 433 q 719 403 750 433 q 685 354 689 372 l 683 344 q 728 385 688 344 q 775 433 775 431 m 279 369 q 285 385 285 369 q 283 400 285 400 q 250 360 282 400 l 218 319 l 247 344 q 279 369 275 369 m 290 318 q 285 342 288 328 l 282 357 l 275 344 q 244 299 265 329 l 219 265 l 249 289 q 286 311 278 313 q 291 311 290 310 q 290 318 292 313 m 258 333 q 265 347 268 347 q 238 324 264 347 q 203 296 214 301 q 192 269 194 290 q 190 244 188 247 q 201 256 192 244 q 226 289 211 268 q 258 333 242 310 m 735 299 l 769 339 q 706 288 765 338 q 628 219 647 239 l 596 186 l 619 186 l 643 188 l 669 224 q 735 299 694 256 m 808 303 q 814 315 815 313 q 719 236 807 321 l 668 188 l 726 186 q 775 188 767 186 q 783 194 783 189 q 800 224 783 203 q 821 261 829 261 q 785 233 818 261 q 726 192 733 192 q 763 249 711 192 q 808 303 799 289 m 303 286 q 292 303 294 303 q 286 296 289 304 q 247 239 285 288 q 219 196 215 196 q 224 197 221 196 q 264 235 236 204 q 296 265 292 265 q 306 254 303 265 q 288 203 314 235 q 279 190 278 190 q 306 206 281 189 q 354 214 340 229 q 357 199 358 208 l 354 186 l 461 188 l 569 188 l 583 207 q 594 224 594 222 q 576 217 593 226 q 474 191 529 192 q 374 214 419 190 q 334 245 357 222 q 303 286 311 268 m 265 276 q 276 300 281 300 q 228 257 272 300 q 192 220 199 229 q 186 203 185 211 q 192 189 188 189 q 218 216 194 188 q 265 276 242 244 m 300 239 q 263 221 310 269 l 231 186 l 246 186 q 263 190 257 186 q 279 208 268 194 q 300 239 297 231 m 350 204 q 321 204 350 217 q 321 186 282 186 q 344 190 338 186 q 350 204 350 194 m 833 197 q 832 203 836 204 q 817 194 828 203 l 803 186 l 818 186 q 832 189 832 186 l 833 197 z "},"1":{"ha":1286,"x_min":58,"x_max":1204,"o":"m 917 831 q 1067 831 976 833 q 1167 825 1157 829 q 1190 804 1179 821 q 1204 760 1203 788 q 1196 707 1206 733 q 1188 678 1188 685 q 1118 489 1188 658 q 978 167 993 183 q 954 156 969 157 q 929 163 939 156 q 772 169 921 168 q 487 174 644 169 q 286 182 329 178 q 231 199 247 186 q 174 319 193 225 q 125 493 161 375 q 58 750 58 715 q 74 778 58 763 q 92 792 83 789 q 140 801 101 796 q 313 803 256 815 q 377 772 350 794 q 415 719 404 750 q 422 701 421 701 q 428 708 424 700 q 439 761 431 718 q 456 810 446 799 q 490 819 465 821 q 917 831 517 818 m 1133 747 l 1135 760 l 1007 758 q 578 749 782 758 l 511 746 l 503 711 q 496 674 493 675 q 665 678 497 672 q 931 671 904 685 q 956 611 961 654 q 959 498 951 578 q 978 363 967 418 l 981 350 l 989 369 q 1072 571 1035 475 q 1110 679 1110 667 q 1119 713 1110 689 q 1133 747 1131 740 m 215 736 q 188 717 215 739 q 153 692 161 694 q 147 682 146 690 q 158 642 149 674 l 165 617 l 210 669 q 251 725 253 722 q 225 707 250 726 q 167 668 176 668 q 189 707 151 668 q 215 736 215 735 m 250 736 l 240 738 q 211 718 233 738 q 189 693 189 699 q 201 701 189 692 q 229 721 214 710 q 250 736 244 732 m 182 725 q 186 733 190 733 q 182 733 185 733 q 176 732 181 732 q 166 731 172 732 q 156 731 160 731 q 140 727 142 729 q 139 715 138 725 q 144 699 142 701 q 161 708 146 697 q 182 725 176 718 m 300 731 q 276 731 286 736 q 251 707 267 726 q 214 661 229 678 q 201 643 197 643 q 232 668 206 644 q 283 711 264 696 q 300 731 306 729 m 340 706 q 322 721 328 721 q 308 703 315 721 q 256 632 301 682 q 221 594 218 594 q 300 650 224 594 q 346 682 343 682 q 343 701 357 682 q 340 706 342 703 m 303 708 l 306 717 q 207 635 304 717 q 175 608 181 613 q 197 508 168 606 q 240 351 229 406 q 278 256 261 256 q 300 288 282 256 q 349 363 318 317 q 489 532 383 411 q 518 569 521 568 q 513 567 517 569 q 413 467 490 549 q 307 346 336 385 q 278 318 288 321 q 263 322 263 315 q 349 429 265 338 q 489 594 476 571 q 491 601 492 600 q 485 603 490 603 q 350 476 467 603 q 247 386 256 374 q 290 445 246 390 q 383 557 333 500 q 422 608 429 608 q 336 533 415 608 q 229 450 238 440 q 228 457 228 453 q 307 539 228 461 q 372 603 358 589 q 381 622 385 618 q 369 629 374 629 q 328 596 365 629 q 224 531 244 519 q 229 540 224 532 q 246 559 235 547 q 271 585 257 571 q 336 656 322 638 q 346 669 349 669 q 264 613 343 669 q 185 568 186 556 q 233 624 185 574 q 303 708 296 689 m 358 656 q 342 646 358 669 q 288 588 333 635 q 257 549 249 547 q 318 599 265 551 q 361 646 363 639 q 358 656 358 650 m 335 546 q 369 579 354 564 q 392 603 385 594 q 399 611 400 611 q 315 535 390 610 l 256 472 q 335 546 261 476 m 708 568 l 744 608 l 718 607 q 597 603 604 604 l 504 600 l 496 588 q 365 433 465 547 q 279 331 272 331 q 315 371 283 332 q 419 485 351 414 q 504 571 488 557 q 536 579 536 594 q 468 494 536 574 q 369 376 400 417 q 306 275 311 296 q 429 419 317 278 q 531 538 482 486 q 588 590 579 590 q 593 585 593 590 q 485 443 593 572 q 375 304 393 332 l 363 281 l 376 293 q 488 417 406 317 q 589 531 528 467 q 657 594 650 594 q 646 553 672 594 q 558 442 628 528 q 421 249 410 260 q 476 304 428 242 q 625 475 532 374 q 708 568 699 557 m 869 585 q 883 604 883 600 q 828 608 883 608 l 772 608 l 767 594 q 664 465 754 560 q 536 308 583 379 l 518 281 l 540 303 q 628 403 561 325 q 746 532 690 479 q 807 594 799 583 q 817 601 814 606 q 803 566 821 597 q 760 506 785 535 q 633 342 667 393 q 607 297 601 294 q 696 394 618 301 q 869 585 767 476 m 413 554 q 450 603 456 601 q 326 475 431 603 l 279 417 q 318 456 283 418 q 413 554 369 511 m 756 592 q 739 585 769 617 q 718 564 729 576 q 679 522 710 556 q 633 471 649 488 q 490 306 546 375 q 457 267 475 286 l 440 249 l 486 246 q 581 243 532 243 q 606 243 597 243 q 619 244 614 243 q 624 247 624 246 q 625 251 625 249 q 665 322 622 261 q 765 454 707 383 l 789 483 q 781 475 786 481 q 703 388 754 449 q 619 297 660 338 q 572 256 579 256 q 568 258 568 256 q 619 336 569 263 q 692 439 664 406 q 788 559 788 556 q 762 537 788 563 q 698 469 736 511 q 625 386 660 426 q 497 261 503 246 q 526 309 497 267 q 578 383 554 351 q 654 468 600 411 q 756 592 738 554 m 633 553 q 644 567 639 561 q 650 578 649 574 l 653 582 q 581 508 649 582 q 486 401 513 435 q 379 283 406 304 q 351 279 343 257 q 446 410 364 313 q 536 521 524 506 l 572 567 l 542 536 q 469 456 513 508 q 426 402 457 440 q 388 354 396 364 q 321 276 346 301 l 296 251 l 319 251 q 376 249 342 251 l 410 246 l 415 263 q 542 435 424 290 q 633 553 617 526 m 851 417 l 889 453 l 885 517 l 882 582 l 860 553 q 799 478 838 522 q 686 336 728 394 q 646 275 642 276 q 756 379 651 275 q 817 442 788 414 q 863 486 846 471 q 879 500 879 501 q 793 367 879 485 l 753 310 l 785 344 q 851 417 819 383 m 826 429 q 835 446 836 443 q 735 346 833 447 l 636 244 l 728 242 q 853 242 824 240 l 886 244 l 897 263 q 903 294 919 296 q 864 275 890 293 q 822 258 822 250 q 842 286 822 261 q 888 354 890 351 q 872 342 886 354 q 838 311 858 331 q 749 256 751 233 q 799 311 749 260 q 892 426 892 408 q 890 436 892 435 q 883 433 889 438 q 804 353 878 431 q 717 269 722 269 q 765 344 714 274 q 826 429 785 371 m 903 363 q 896 403 897 401 q 892 401 894 403 q 888 395 890 399 q 881 388 885 392 q 821 322 868 369 q 798 298 808 310 q 782 280 788 286 q 778 274 776 274 q 824 311 782 274 q 879 360 865 350 q 897 365 893 369 q 867 304 906 358 l 847 276 l 869 290 q 903 304 892 304 q 912 306 910 304 q 911 314 914 308 q 903 363 910 324 m 919 260 l 914 278 l 914 274 q 904 256 914 268 l 896 243 l 910 243 q 921 245 919 243 q 919 260 922 247 z "},"2":{"ha":1094,"x_min":203,"x_max":1008,"o":"m 750 899 q 767 906 756 906 q 824 906 778 907 q 910 894 893 901 q 926 863 926 888 q 901 828 926 839 q 894 768 899 826 l 892 710 l 950 672 q 1008 628 999 640 q 1007 594 1018 615 q 953 583 993 567 q 949 579 950 585 q 943 396 944 567 q 938 208 942 240 q 917 164 935 176 q 878 156 908 157 q 688 154 849 154 q 321 172 356 156 q 290 228 297 183 q 282 431 283 274 q 278 594 279 594 q 263 586 276 594 q 222 581 240 572 q 203 613 203 589 q 215 638 203 626 q 300 701 226 650 q 521 844 451 810 q 612 867 574 871 q 717 825 650 864 q 763 800 761 800 q 764 817 764 799 q 756 840 764 836 q 738 866 739 847 q 750 899 736 885 m 618 793 q 611 794 621 794 q 567 788 582 793 q 475 733 549 779 q 401 683 401 688 l 456 710 q 563 764 508 736 q 618 793 617 792 m 606 763 q 643 781 646 779 q 622 775 633 781 q 568 751 603 765 q 485 710 485 717 l 494 714 q 522 725 504 718 q 606 763 564 746 m 668 769 q 660 772 663 772 q 640 757 657 771 l 619 740 q 639 749 621 739 q 668 760 663 760 q 674 767 681 760 q 668 769 672 768 m 621 753 q 632 764 635 764 q 567 736 626 764 q 471 689 507 708 q 354 611 354 628 q 356 606 354 607 q 360 606 357 604 q 367 610 361 607 q 382 620 372 614 q 400 632 392 626 q 521 697 438 656 q 621 753 608 742 m 764 710 q 690 756 696 756 q 678 749 688 756 q 617 715 669 742 q 447 619 515 664 q 385 575 411 596 q 360 553 358 554 q 432 589 369 543 q 524 640 492 631 q 581 674 535 643 q 694 733 656 722 q 722 729 722 742 q 672 693 722 725 q 596 636 593 643 l 601 639 q 667 675 610 642 q 703 696 690 689 q 726 707 717 703 q 738 710 735 711 q 740 707 740 710 q 703 676 740 700 q 653 642 667 653 l 643 633 l 658 642 q 693 661 663 644 q 742 685 714 674 q 774 692 771 696 q 769 683 778 689 q 725 654 749 672 q 701 633 701 636 q 706 633 701 632 q 717 638 710 635 q 735 647 725 642 q 779 667 758 660 q 803 668 800 674 q 794 660 804 667 q 771 646 785 654 q 733 614 733 621 q 779 633 735 611 q 835 654 826 656 q 840 656 843 653 q 764 710 836 661 m 694 719 q 696 725 704 725 q 578 661 676 725 l 529 629 l 556 629 q 578 631 574 629 q 589 642 583 633 q 694 719 597 657 m 544 697 q 539 696 544 699 q 489 671 533 693 q 368 599 396 624 q 460 646 375 599 q 544 697 544 693 m 701 647 l 718 664 q 692 650 715 664 q 665 633 668 636 q 671 629 661 629 q 701 647 682 629 m 638 640 q 644 649 644 649 q 625 640 643 650 q 619 629 611 629 q 638 640 631 629 m 876 629 q 864 642 878 632 q 849 648 849 651 q 822 626 849 644 q 763 575 776 593 q 804 603 768 578 q 858 628 840 626 q 876 629 875 628 m 796 619 q 828 647 831 644 q 781 624 824 647 q 738 593 738 601 q 735 508 738 589 l 731 432 l 744 443 q 825 496 799 483 q 838 503 833 499 q 842 508 843 507 q 800 494 835 519 q 744 468 753 460 q 794 532 732 481 q 851 586 858 585 q 792 554 842 586 q 751 539 751 529 q 756 553 750 543 q 758 564 761 564 q 754 563 757 564 q 743 567 743 558 q 750 581 742 572 q 796 619 758 590 m 736 633 l 744 642 q 730 635 742 642 q 718 628 718 629 q 736 633 718 619 m 861 619 l 860 621 q 836 612 854 621 q 818 601 818 603 q 828 603 818 600 q 849 612 839 607 q 861 619 860 617 m 871 493 q 872 553 872 525 q 872 596 872 581 l 871 611 q 794 576 858 610 q 771 557 782 569 l 760 544 l 771 551 q 779 557 774 553 q 794 566 785 561 q 808 575 803 571 q 865 593 854 603 q 867 589 867 592 q 794 519 867 579 q 750 474 744 478 q 778 490 753 472 q 842 519 822 524 q 849 499 864 514 q 833 489 843 494 q 793 466 819 483 q 747 433 767 449 q 729 414 726 417 q 786 439 731 413 q 861 467 868 478 q 814 428 857 458 q 749 382 765 397 l 733 369 l 761 385 q 856 414 843 431 q 824 385 857 410 q 733 307 769 344 q 732 303 731 303 q 776 331 736 306 q 861 374 839 372 l 869 374 l 871 493 m 401 600 q 410 606 408 604 l 397 601 q 368 590 386 596 q 353 583 356 586 q 350 572 350 581 q 351 560 350 560 q 372 576 353 560 q 401 600 393 594 m 476 599 l 476 607 q 443 585 474 607 q 360 543 383 543 q 351 540 353 543 q 350 528 350 538 q 353 513 350 513 q 390 536 356 513 q 450 574 410 549 q 476 599 475 589 m 471 568 q 467 572 472 574 q 443 560 461 571 l 418 542 q 440 550 419 542 q 471 568 468 563 m 663 535 l 663 556 l 604 556 l 546 556 l 546 490 l 547 426 l 569 424 q 624 419 594 421 l 657 419 l 660 467 q 663 535 663 518 m 413 507 q 470 546 468 540 q 467 550 472 551 q 407 524 458 549 l 350 494 l 350 456 l 350 415 l 364 428 q 408 461 376 440 q 449 492 432 476 q 461 511 465 507 q 446 504 458 514 q 374 465 396 468 q 354 468 354 464 q 413 507 356 474 m 474 442 q 475 507 475 482 q 475 533 475 532 q 465 528 474 533 q 464 519 457 522 q 456 485 482 513 q 446 471 442 471 q 449 472 447 471 q 457 471 457 474 q 447 450 458 465 l 438 433 l 447 433 q 458 431 458 433 q 426 396 458 428 q 404 371 403 371 q 413 375 406 369 q 444 378 444 396 q 403 326 444 368 q 369 290 367 292 q 394 307 371 290 q 425 319 413 318 q 440 311 438 321 q 415 276 442 304 q 389 246 389 249 q 395 247 389 244 q 411 254 401 250 q 450 258 451 274 q 440 242 449 251 l 432 231 l 446 231 l 461 231 l 467 290 q 474 442 472 347 m 417 494 l 418 499 l 376 474 q 398 483 381 474 q 417 494 415 492 m 381 404 q 427 442 407 424 q 444 460 447 460 q 400 432 443 460 q 356 394 356 403 q 359 391 354 389 q 381 404 364 393 m 814 442 l 778 426 l 776 425 l 775 425 l 774 424 l 772 422 l 769 422 q 735 403 742 408 q 728 389 728 397 l 728 378 l 746 392 q 789 424 763 406 q 814 442 814 440 m 400 382 q 440 425 443 425 q 406 403 438 425 q 364 374 374 382 q 356 351 354 365 q 362 346 356 342 q 400 382 368 350 m 833 404 q 833 408 839 410 q 753 369 813 404 l 722 351 l 722 332 l 722 311 l 754 339 q 807 385 783 365 q 819 392 813 388 q 828 401 825 397 q 833 404 832 404 m 432 371 q 435 376 436 376 q 406 358 432 376 q 367 333 376 338 q 354 311 354 328 l 354 294 l 392 329 q 432 371 429 363 m 853 354 q 868 363 868 361 q 861 364 868 364 q 765 314 842 365 q 728 290 733 290 q 721 276 725 290 q 719 258 717 261 q 737 269 719 257 q 778 300 754 282 q 853 354 835 344 m 617 349 q 564 351 578 351 q 544 344 547 351 q 539 293 542 338 q 533 240 536 253 l 531 225 l 588 225 l 644 225 l 647 249 q 650 308 649 269 l 651 346 l 617 349 m 871 315 q 867 351 871 351 q 822 321 864 351 q 779 289 779 290 l 783 290 q 792 294 786 292 q 806 300 799 297 q 842 313 825 310 q 860 310 858 317 q 835 292 863 306 q 786 254 815 279 q 760 226 757 229 q 817 251 761 225 l 871 278 l 871 315 m 432 310 q 390 294 432 318 q 360 272 365 279 q 361 244 356 264 q 369 235 364 235 q 378 243 375 235 q 407 281 381 251 q 432 310 432 308 m 828 297 q 735 247 828 308 q 728 226 706 228 q 731 225 729 225 q 764 247 743 225 q 807 283 788 271 q 828 297 828 296 m 431 243 q 438 256 442 256 q 413 246 433 256 q 396 236 396 238 q 404 233 396 235 q 431 243 417 231 m 812 234 q 820 239 812 234 q 828 246 828 243 q 806 236 828 249 q 792 225 792 228 q 812 234 796 225 m 871 236 q 867 247 871 247 q 849 236 863 247 l 833 225 l 853 225 q 868 227 865 225 q 871 236 871 229 z "},"3":{"ha":1104,"x_min":39,"x_max":1022,"o":"m 482 831 q 553 833 506 833 q 624 828 601 832 q 890 585 828 788 q 901 562 896 568 q 921 547 906 556 q 985 432 986 511 q 948 325 985 365 q 872 308 911 285 q 848 341 854 319 q 840 432 842 363 q 829 538 838 501 q 796 622 821 574 q 740 696 772 668 q 658 742 708 724 q 460 751 564 776 q 289 653 357 726 q 226 549 254 614 q 211 528 218 529 q 204 433 204 525 q 196 324 204 340 q 114 303 175 281 q 57 347 71 319 q 44 394 50 361 q 40 478 36 458 q 64 518 43 499 q 95 536 76 529 q 125 540 114 543 q 146 546 138 538 q 161 579 154 554 q 237 706 182 647 q 367 796 292 764 q 482 831 426 822 m 119 532 q 92 525 119 539 q 46 457 46 504 l 46 440 l 54 463 q 72 499 63 488 q 99 519 81 510 q 119 532 119 529 m 74 475 q 76 483 75 479 q 78 488 78 486 q 78 490 79 490 q 67 471 76 490 q 60 403 47 426 q 65 403 64 392 q 65 425 65 408 q 74 475 65 458 m 88 340 q 56 383 61 383 q 61 361 51 383 q 94 321 74 332 q 93 331 100 318 q 88 340 90 335 m 472 721 q 546 723 501 725 q 615 714 590 721 q 743 640 692 694 q 813 507 794 586 q 810 365 824 450 q 768 226 797 281 q 702 149 746 186 q 615 96 658 111 q 478 76 553 72 q 361 108 403 79 q 289 203 307 146 q 261 267 285 218 q 231 464 211 371 q 365 664 256 585 q 404 699 400 690 q 472 721 414 713 m 599 624 q 527 644 553 644 q 456 622 501 644 q 325 479 369 582 q 308 451 314 451 q 297 418 299 451 q 304 354 296 385 q 409 220 328 263 q 583 208 490 178 q 697 290 656 232 q 745 416 739 346 q 719 549 751 486 q 665 610 703 582 q 590 644 626 639 q 582 644 581 646 q 608 631 583 642 q 649 604 650 610 q 646 603 649 603 q 599 624 642 603 m 375 574 q 389 589 385 583 q 392 594 393 594 q 375 578 390 594 q 354 553 360 561 l 351 549 q 375 574 356 553 m 764 238 q 778 272 781 269 q 760 249 776 274 q 687 178 732 210 q 590 135 642 147 q 510 124 557 125 q 432 132 463 124 q 318 196 367 150 q 294 213 294 217 q 296 208 294 211 q 331 149 304 179 q 386 104 358 118 q 484 84 424 86 q 590 96 544 82 q 692 152 646 114 q 764 238 739 190 m 401 508 q 442 517 419 526 q 463 482 463 507 q 449 460 463 472 q 425 447 436 447 q 401 460 414 447 q 389 483 389 472 q 401 508 389 494 m 563 508 q 603 517 581 526 q 624 482 624 507 q 610 460 624 472 q 586 447 597 447 q 563 460 575 447 q 550 483 550 472 q 563 508 550 494 m 386 378 q 405 381 397 382 q 438 367 413 379 q 494 350 468 350 q 549 360 521 350 q 597 367 581 371 q 618 344 613 364 q 588 296 628 311 q 418 294 492 260 q 378 318 389 307 q 367 351 365 332 q 386 378 369 371 m 910 574 q 947 568 910 588 q 975 549 964 558 q 1022 448 1014 513 q 999 343 1029 383 q 950 306 978 315 q 940 307 940 301 q 958 321 940 310 q 1008 386 996 340 q 1004 483 1021 432 q 975 535 996 513 q 931 565 954 558 q 910 574 910 569 z "},"4":{"ha":1081,"x_min":133,"x_max":996,"o":"m 926 767 q 956 770 939 772 q 982 760 972 768 q 996 689 1006 736 q 983 649 992 665 q 951 614 974 633 q 918 593 929 594 l 907 590 l 890 500 q 855 345 871 396 q 815 263 839 294 l 803 247 l 822 226 q 844 115 868 181 q 797 53 829 75 q 725 38 764 32 q 632 89 660 44 q 632 186 604 133 q 639 207 642 206 q 522 206 638 208 q 408 196 408 201 q 414 167 411 190 q 404 119 417 143 q 330 51 381 72 q 236 47 279 29 q 192 87 208 60 q 176 149 176 114 q 188 209 176 188 q 232 256 199 231 l 246 267 l 233 290 q 211 339 221 314 q 196 369 201 364 q 188 390 190 374 q 175 442 185 406 q 151 486 165 478 q 134 517 135 496 q 150 547 133 538 q 460 550 158 551 q 713 549 663 550 q 769 542 764 547 q 792 532 778 535 q 811 519 804 529 q 818 517 817 513 q 821 528 819 519 q 856 675 839 633 q 926 767 882 746 m 803 514 q 783 517 783 535 q 778 497 783 507 q 765 483 772 486 q 757 474 760 482 q 751 442 754 467 q 753 421 749 421 q 764 406 758 421 q 753 361 776 378 q 744 335 744 356 q 740 301 744 313 q 738 293 738 294 q 744 294 739 292 q 804 438 776 313 q 814 494 814 483 q 803 514 814 504 m 276 454 l 276 482 l 224 482 l 172 482 l 181 451 q 196 415 190 414 q 203 419 199 415 q 242 425 207 425 l 276 425 l 276 454 m 294 450 q 289 478 292 474 q 286 476 288 481 q 285 454 285 471 q 291 425 285 425 q 294 450 297 425 m 400 469 q 400 474 401 472 q 394 476 399 475 q 380 477 389 476 q 353 478 371 478 l 301 478 l 301 463 q 304 435 301 449 l 307 421 l 350 421 l 392 421 l 394 442 q 400 469 399 464 m 436 464 q 422 476 433 475 q 410 472 413 478 q 403 442 407 467 l 401 421 l 424 421 l 446 421 l 443 438 q 436 464 439 457 m 528 461 l 531 478 l 486 478 l 442 478 l 449 449 l 456 421 l 488 421 q 515 423 510 421 q 521 433 519 425 q 528 461 525 450 m 571 454 q 565 474 568 471 q 553 478 563 478 q 539 471 543 478 q 531 440 535 464 l 528 421 l 550 424 q 575 428 574 426 q 571 454 576 431 m 649 464 l 653 478 l 614 478 q 576 471 576 476 q 582 446 579 464 l 585 425 l 615 425 q 641 426 638 425 q 644 438 644 428 q 649 464 644 450 m 694 442 q 690 468 692 458 q 676 478 689 478 q 658 464 663 478 q 653 438 653 450 q 656 427 653 429 q 675 425 660 425 l 694 425 l 694 442 m 744 453 l 747 478 l 722 478 q 709 477 714 478 q 701 476 704 476 q 699 474 699 475 q 699 471 699 472 q 701 444 701 463 l 701 425 l 722 426 l 743 428 l 744 453 m 271 351 q 238 354 260 351 q 217 356 219 357 q 217 347 215 354 q 238 303 221 336 l 254 269 l 267 275 l 281 279 l 281 315 q 279 347 281 342 q 271 351 278 351 m 703 338 q 695 355 701 353 q 660 353 689 357 q 648 348 650 351 q 644 324 646 344 q 639 289 642 297 q 644 282 635 282 q 678 283 651 282 q 722 289 721 288 q 715 304 724 290 q 703 338 707 321 m 736 333 q 734 353 736 350 q 722 356 732 356 q 711 351 713 356 q 715 328 710 347 q 729 301 722 300 q 736 333 736 303 m 328 319 q 317 347 319 343 q 303 351 314 351 l 289 351 l 289 315 l 289 278 l 315 278 q 340 283 339 279 l 328 319 m 386 322 l 389 346 l 358 349 q 328 347 328 349 q 340 311 328 344 q 351 283 347 288 q 364 278 354 278 q 379 286 375 278 q 386 322 383 294 m 514 338 q 509 351 514 349 q 479 349 504 353 l 468 347 l 474 325 q 500 286 488 283 q 514 338 514 299 m 593 329 l 588 351 l 556 351 l 524 351 l 524 338 q 513 286 524 311 q 518 279 510 279 q 560 278 526 278 q 610 279 610 278 q 604 293 610 281 q 593 329 597 306 m 636 331 l 636 351 l 617 351 l 597 351 l 600 336 q 610 304 603 319 q 622 288 617 289 q 628 292 625 286 q 634 308 632 297 q 636 331 636 318 m 467 318 l 460 344 l 429 346 l 399 347 l 396 326 q 390 292 392 306 l 388 278 l 436 278 q 481 285 481 281 q 467 318 474 292 m 328 176 q 287 185 314 183 q 256 182 260 188 q 248 144 244 168 q 268 113 251 121 q 297 115 278 107 q 328 138 315 122 q 328 176 351 164 m 769 175 q 719 179 756 186 q 701 164 710 178 q 693 136 693 150 q 696 123 693 126 q 708 114 699 119 q 764 124 742 100 q 779 153 778 138 q 769 175 781 168 z "},"5":{"ha":993,"x_min":82,"x_max":907,"o":"m 232 840 q 278 844 243 846 q 682 831 425 836 q 810 827 788 829 q 839 819 832 825 q 849 799 849 810 q 856 782 849 786 q 869 751 867 776 q 868 615 871 725 q 883 289 864 424 q 896 179 892 226 q 907 119 901 132 q 907 85 917 100 q 864 53 897 69 q 814 19 832 36 q 788 -1 793 0 q 768 -3 783 -1 q 539 -3 743 -7 q 317 -4 403 1 q 179 -4 231 -10 q 132 3 142 0 q 106 19 122 6 q 82 46 85 36 q 100 254 81 56 q 131 585 119 454 q 146 733 142 717 q 156 751 149 744 q 185 769 163 757 q 213 788 207 783 q 217 801 218 793 q 232 840 211 828 m 590 761 q 381 767 421 764 q 314 761 326 768 q 313 747 292 747 q 389 740 319 747 q 572 729 444 735 l 688 724 l 699 738 q 722 751 711 751 q 739 754 733 751 q 722 757 740 756 q 667 759 703 758 q 590 761 631 760 m 796 553 l 796 703 q 785 696 794 703 q 765 658 768 685 q 763 517 763 632 q 767 304 763 383 q 776 182 769 254 q 786 100 783 110 q 808 107 788 94 l 829 118 l 826 154 q 808 294 818 221 q 797 409 799 374 q 796 553 794 444 m 232 679 q 235 685 236 683 q 224 686 233 686 q 213 684 215 686 q 211 675 211 682 q 213 667 211 668 q 218 668 214 665 q 232 679 225 671 m 276 678 q 262 682 276 682 q 226 661 247 682 q 214 629 194 629 q 249 651 221 629 q 276 678 276 672 m 203 583 q 254 629 204 582 q 300 676 304 676 q 263 651 296 678 q 219 622 232 625 q 206 601 207 619 l 203 583 m 360 669 q 315 669 328 675 q 258 621 303 663 q 210 568 204 568 q 278 604 224 568 q 339 644 296 617 l 375 667 l 360 669 m 475 660 l 431 664 q 402 665 408 665 q 394 658 396 664 q 356 618 392 650 q 324 582 319 583 q 361 601 328 581 q 439 640 393 622 q 475 660 478 657 m 347 622 q 367 642 358 633 q 381 656 375 650 l 385 660 q 306 613 381 660 q 211 560 225 560 q 202 551 204 560 q 196 507 200 542 l 194 492 l 221 513 q 246 547 246 535 q 288 583 246 578 q 313 592 303 586 q 347 622 322 599 m 579 656 q 532 657 561 656 l 500 660 l 485 642 q 413 581 471 626 q 356 529 356 536 q 401 554 360 529 q 518 617 440 576 q 583 654 583 650 q 579 656 583 656 m 557 599 q 567 603 557 599 q 604 632 578 608 q 622 656 631 656 q 480 586 610 656 q 350 510 350 517 q 337 492 350 506 q 321 451 324 479 q 321 426 318 426 q 328 429 322 426 q 403 482 335 436 q 533 581 529 568 q 557 599 536 589 m 688 628 l 689 656 l 663 656 q 636 651 636 656 q 607 622 636 647 l 576 596 l 593 585 q 610 568 610 572 l 614 569 q 628 574 619 571 q 649 582 638 578 l 686 599 l 688 628 m 404 586 q 465 635 457 626 q 466 642 474 643 q 426 625 458 640 q 365 594 393 611 q 336 571 336 576 q 344 556 336 565 q 358 553 350 549 q 404 586 365 557 m 689 578 q 688 590 689 590 q 650 573 686 590 q 614 547 614 556 q 606 523 614 540 q 597 504 597 506 l 603 508 q 620 519 610 513 q 643 533 631 525 q 681 561 674 554 q 689 578 689 568 m 521 544 q 521 551 522 549 q 424 485 517 550 q 324 414 331 421 q 321 407 314 406 q 367 435 331 410 q 463 490 418 468 q 515 526 514 517 q 521 544 517 533 m 689 517 q 685 551 689 551 q 642 524 682 550 l 601 497 l 601 475 l 601 451 l 631 463 q 675 479 657 472 l 689 483 l 689 517 m 251 496 q 251 517 256 517 q 221 497 247 515 q 193 468 193 476 q 190 442 193 457 l 188 424 l 214 444 q 245 472 240 465 q 251 496 250 478 m 528 479 q 522 503 528 497 q 515 508 517 508 q 450 474 510 508 q 363 421 390 439 l 322 393 l 325 368 q 329 340 326 344 q 369 364 332 338 q 468 425 407 389 l 528 461 l 528 479 m 649 433 q 689 468 689 463 q 685 474 689 474 q 643 458 682 472 q 603 442 604 443 q 599 419 601 440 q 599 401 596 401 q 649 433 603 401 m 243 444 q 250 456 250 451 q 240 451 249 457 q 219 437 231 446 q 203 422 207 428 l 243 444 m 524 417 q 526 421 524 417 q 528 436 528 425 q 525 447 528 447 q 458 409 521 447 q 367 350 396 371 q 336 326 342 333 q 336 308 331 318 q 429 356 340 303 q 524 417 519 408 m 688 417 q 688 432 688 425 q 687 443 688 439 q 685 447 686 447 q 639 417 681 446 q 595 381 606 394 q 585 350 585 368 q 588 344 585 344 q 597 350 589 346 q 649 371 613 357 l 686 386 l 688 417 m 232 356 l 250 371 l 249 404 l 247 438 l 236 429 q 208 414 226 421 q 189 406 190 406 q 178 310 189 404 q 169 214 168 215 l 192 231 q 235 265 213 247 q 260 286 257 283 q 258 318 263 289 q 251 347 254 347 l 235 340 q 217 338 217 331 q 232 356 218 343 m 517 383 q 517 394 519 394 q 426 344 513 394 l 342 293 l 349 279 q 372 260 361 258 q 436 294 383 263 q 498 339 486 326 q 517 383 510 351 m 633 317 q 691 358 689 353 q 689 371 693 364 q 633 356 686 378 l 579 333 l 561 297 q 552 281 557 290 q 544 265 547 271 l 542 260 l 558 267 q 633 317 578 279 m 693 321 q 689 343 693 343 q 610 291 686 342 q 506 219 533 240 q 450 185 474 197 q 385 145 435 178 q 311 90 336 113 q 314 89 299 82 q 467 179 349 106 q 681 297 642 290 q 691 302 689 299 q 693 321 693 306 m 478 300 l 488 317 q 438 286 485 317 q 388 251 390 256 q 390 247 383 247 q 399 249 393 247 q 442 268 417 251 q 478 300 467 285 m 697 283 l 696 294 l 694 294 q 688 292 692 293 q 682 290 685 292 q 476 175 643 279 q 328 86 361 103 q 276 74 276 60 q 343 126 276 78 l 411 176 l 383 178 q 349 185 356 182 q 299 161 342 188 q 189 104 206 104 q 239 154 178 104 q 250 164 244 160 q 304 211 304 208 q 292 235 304 214 l 278 256 l 229 229 q 174 206 179 204 q 167 203 167 208 q 161 135 167 199 q 157 69 154 72 q 278 68 160 67 l 397 69 l 418 83 q 497 135 438 99 q 672 251 618 208 q 697 283 697 271 m 272 272 q 258 272 269 279 q 236 256 253 268 l 204 228 q 219 235 206 228 q 263 258 250 250 q 272 272 275 267 m 694 217 q 696 239 697 219 l 694 258 l 661 233 q 563 165 631 207 l 490 118 q 583 167 492 117 q 656 200 624 188 q 694 217 690 214 m 683 194 q 694 206 690 201 l 697 208 q 528 126 678 206 q 485 103 508 115 q 451 85 463 92 q 438 78 439 79 q 540 72 432 75 q 654 68 647 69 l 657 68 q 671 107 644 75 q 676 136 699 139 q 603 106 667 133 q 514 82 514 68 q 544 101 514 86 q 619 149 571 117 q 683 194 668 182 m 325 199 q 313 204 315 204 q 269 169 311 204 q 228 132 228 133 q 238 135 228 131 q 264 151 247 140 q 301 174 281 161 q 329 194 329 192 q 325 199 329 197 m 710 129 q 700 193 701 190 q 668 172 699 194 q 596 122 640 150 l 554 96 q 606 117 558 96 q 692 142 682 150 q 679 101 706 131 q 663 78 663 82 q 685 74 663 74 q 711 68 708 74 q 714 92 718 50 q 710 129 713 107 z "},"6":{"ha":1093,"x_min":40,"x_max":1008,"o":"m 465 933 q 579 899 556 944 q 596 728 599 858 l 594 638 l 792 639 q 958 638 925 639 q 996 632 990 638 q 1008 540 1003 625 q 1008 444 1014 454 q 990 432 1001 435 q 965 381 981 429 q 911 239 953 346 q 881 157 885 171 q 881 133 876 143 q 876 86 897 106 q 851 77 869 79 q 736 74 833 75 q 501 65 604 69 q 313 60 392 61 q 238 60 250 58 q 218 69 226 61 q 211 113 197 89 q 175 231 215 121 q 115 383 132 346 q 97 419 101 414 q 82 425 92 425 q 57 435 67 425 q 48 453 50 443 q 44 500 46 463 q 40 600 39 585 q 51 624 42 615 q 78 632 65 635 q 97 629 93 629 q 411 633 408 631 q 410 756 414 638 q 414 896 407 875 q 430 924 421 917 q 465 933 439 931 m 521 849 q 500 863 515 863 q 482 860 485 864 q 482 747 479 856 l 486 638 l 501 638 q 516 640 513 638 q 522 650 519 642 q 524 751 525 664 q 521 849 524 838 m 629 556 q 644 568 644 565 q 618 565 642 568 q 597 558 597 564 q 575 528 597 553 l 551 501 l 579 521 q 629 556 596 532 m 644 533 l 675 568 q 640 550 669 568 q 593 519 610 532 l 565 499 l 589 499 l 613 499 l 644 533 m 706 567 q 699 568 703 568 q 675 553 689 568 l 660 538 l 682 551 q 706 567 703 564 m 693 511 q 693 515 693 511 q 719 543 693 519 q 739 568 746 567 q 735 568 738 568 q 685 542 724 568 q 640 507 639 513 q 664 503 640 503 q 693 511 693 503 m 760 540 l 799 568 l 779 568 q 758 564 765 568 q 729 540 750 560 q 703 510 700 513 q 760 540 710 503 m 824 533 q 849 564 849 560 q 842 569 849 568 q 824 567 835 569 q 807 561 814 565 q 765 532 796 556 l 735 510 l 767 508 l 799 507 l 824 533 m 936 563 q 897 568 936 568 q 863 567 869 568 q 856 558 857 565 q 832 529 853 551 q 819 514 824 519 q 815 508 814 508 q 858 526 817 508 q 917 551 900 547 q 936 563 936 556 m 156 544 l 174 558 l 143 561 l 113 563 l 114 531 l 117 499 l 126 514 q 156 544 136 528 m 481 561 q 431 535 481 572 q 388 499 389 501 q 408 494 392 494 l 435 494 l 457 526 q 481 561 481 558 m 508 529 l 556 564 l 522 564 q 494 563 499 564 q 483 550 489 561 q 460 515 476 536 q 453 494 446 496 q 508 529 463 494 m 589 560 q 524 529 589 579 l 479 494 l 504 494 l 529 494 l 558 525 q 589 560 589 556 m 354 542 l 374 560 l 354 558 q 315 547 315 558 q 304 519 315 540 q 296 499 293 499 q 354 542 306 499 m 401 557 q 360 535 401 571 q 314 499 333 511 l 300 490 l 326 492 l 351 493 l 376 522 q 401 557 401 553 m 432 546 l 451 560 l 433 560 q 413 554 419 560 q 375 506 407 549 l 376 504 q 390 515 382 507 q 432 546 421 539 m 228 554 q 206 556 229 556 q 164 540 183 556 q 138 511 147 526 l 128 499 l 144 499 q 194 525 163 499 q 210 539 201 532 q 223 549 218 546 q 228 554 228 553 m 282 551 q 281 554 283 553 q 267 556 275 556 q 243 547 246 556 q 225 518 240 538 q 211 497 210 499 q 242 519 213 496 q 282 551 272 542 m 306 546 q 301 551 306 551 q 276 535 297 551 q 239 503 254 518 q 238 494 232 496 q 256 494 242 494 l 279 494 l 293 518 q 306 546 306 542 m 936 535 q 931 547 936 547 q 892 533 926 547 q 854 515 857 518 q 889 513 851 513 q 927 517 918 513 q 936 535 936 521 m 214 518 q 229 543 233 543 q 200 518 226 543 q 181 496 175 497 q 185 494 182 494 q 214 518 196 494 m 906 435 q 875 439 906 439 l 846 439 l 843 396 q 831 291 839 351 q 824 225 822 231 q 845 271 825 221 q 885 375 865 321 q 906 435 906 429 m 769 392 l 772 433 l 742 433 l 711 433 l 708 340 q 703 226 706 242 l 700 208 l 722 208 q 741 210 736 208 q 747 218 746 211 q 760 303 751 240 q 769 392 768 365 m 636 360 l 636 429 l 615 429 q 590 426 594 429 q 583 314 583 425 l 583 203 l 604 206 q 625 210 622 207 q 633 262 629 214 q 636 360 636 310 m 219 421 q 189 424 204 421 l 175 426 l 188 401 q 254 225 217 335 q 265 199 261 203 q 278 196 268 196 q 293 200 293 196 q 264 313 293 206 l 236 421 l 219 421 m 510 342 l 510 425 l 499 425 q 483 424 496 425 q 461 422 469 422 q 442 419 446 421 q 439 414 438 418 q 468 246 450 375 q 476 201 475 203 q 497 203 478 199 l 515 206 l 513 232 q 510 342 510 260 m 369 390 l 361 421 l 336 421 q 311 419 311 421 l 314 406 q 326 364 318 393 q 340 310 333 335 l 369 201 l 386 200 l 401 199 l 399 218 q 369 390 383 326 z "},"7":{"ha":964,"x_min":57,"x_max":882,"o":"m 574 924 q 631 936 604 938 q 667 926 658 935 q 772 794 686 910 q 871 654 858 679 q 882 606 879 638 q 879 556 885 575 q 849 514 875 543 q 722 382 824 485 q 392 67 424 83 q 313 79 360 50 q 164 216 251 117 q 61 367 76 315 q 57 407 53 390 q 79 447 61 424 q 386 753 124 507 q 528 892 524 882 q 539 907 531 901 q 574 924 547 913 m 674 803 q 621 864 626 864 q 598 854 613 863 q 582 842 583 846 q 479 739 579 835 q 205 476 283 556 q 131 386 126 397 q 174 317 139 364 q 251 226 210 269 l 286 190 l 315 225 q 553 467 351 268 q 767 669 754 665 q 767 676 768 672 q 754 696 765 679 q 725 736 743 713 q 674 803 707 760 m 797 587 q 800 594 797 587 q 807 604 803 601 q 809 609 811 607 q 788 593 807 611 q 775 574 769 574 q 781 572 776 572 q 797 587 792 572 m 782 547 q 810 583 811 576 q 803 578 807 590 q 795 567 799 569 q 782 564 792 564 q 765 559 769 564 q 756 532 761 554 l 756 525 q 782 547 758 525 m 732 497 q 747 531 742 508 q 751 554 753 553 q 745 549 751 556 q 731 535 739 543 q 715 515 717 519 q 717 500 713 510 l 721 486 l 732 497 m 708 492 q 703 506 704 506 q 696 500 701 507 q 686 471 689 492 l 683 450 l 699 464 q 710 478 708 474 q 708 492 713 483 m 675 451 q 679 478 681 471 q 669 478 678 486 q 663 472 667 475 q 653 459 654 463 q 656 451 651 456 q 663 440 663 446 q 668 436 663 429 q 675 451 672 442 m 642 407 q 658 428 658 422 q 650 443 658 433 q 632 426 636 460 q 631 417 631 422 l 626 393 l 642 407 m 619 400 q 619 425 624 424 q 608 418 617 425 q 597 405 599 408 q 601 392 596 401 q 619 400 614 364 m 597 382 q 581 381 583 415 q 579 365 579 374 l 579 344 l 592 357 q 600 369 599 365 q 597 382 601 372 m 572 361 l 574 386 l 556 368 l 538 350 l 547 336 q 556 324 554 325 q 564 329 558 324 q 572 361 571 336 m 543 326 q 532 340 538 338 q 522 331 526 344 q 519 307 519 321 l 521 286 l 535 300 q 546 313 544 310 q 543 326 547 317 m 511 281 q 514 308 515 294 l 513 326 l 501 314 q 492 302 493 307 q 494 286 492 297 q 511 281 501 257 m 486 253 q 486 278 493 258 l 481 297 l 481 271 q 482 249 481 249 q 486 253 483 250 m 465 231 q 471 260 472 236 l 469 282 l 456 268 q 444 251 444 257 q 457 226 444 246 q 465 231 458 224 m 444 229 q 437 245 440 243 q 428 242 433 247 q 426 215 422 235 l 429 194 l 440 206 q 448 217 447 213 q 444 229 449 221 m 419 204 q 413 224 419 225 q 407 215 410 222 q 406 194 401 206 q 417 189 413 176 q 419 204 419 194 m 390 161 q 401 178 401 171 q 396 192 401 185 q 382 185 386 207 q 381 169 381 178 l 381 150 l 390 161 m 371 157 q 369 174 371 174 q 360 164 368 174 q 354 144 350 154 q 367 139 360 131 q 371 157 371 144 m 514 749 q 526 755 514 749 q 556 767 538 761 q 599 772 574 772 q 636 767 625 772 q 658 724 658 754 q 668 700 658 704 q 692 665 688 690 q 686 610 697 640 q 664 583 679 589 q 649 572 649 578 q 631 551 649 558 q 597 551 613 543 q 556 597 592 554 q 513 656 521 639 q 494 672 506 667 q 474 699 478 681 q 483 731 469 718 q 514 749 490 738 m 443 656 q 482 646 464 664 q 476 590 504 625 q 456 558 461 571 q 451 545 451 547 q 458 543 451 543 q 490 551 467 543 q 537 555 519 563 q 554 524 554 547 q 547 501 554 508 q 517 485 539 493 q 389 504 428 449 q 381 547 379 518 q 392 594 382 575 q 417 632 401 613 q 443 656 433 651 z "},"8":{"ha":988,"x_min":132,"x_max":906,"o":"m 486 921 q 611 922 554 933 q 763 855 696 906 q 867 726 829 804 q 906 547 906 647 q 901 460 906 485 q 757 176 872 286 q 567 75 671 94 q 383 94 479 61 q 231 192 288 126 q 185 255 208 217 q 153 321 163 293 q 132 426 135 372 q 143 511 129 481 q 292 732 167 560 q 436 911 417 904 q 486 921 446 914 m 557 846 l 568 856 l 544 854 q 508 851 517 854 q 494 835 500 847 q 490 821 490 824 q 496 814 490 818 q 510 818 504 808 q 539 838 519 838 q 557 846 546 838 m 575 844 q 572 847 585 854 q 567 844 571 846 q 560 837 560 839 q 565 828 560 835 q 574 789 582 810 q 550 767 567 771 q 518 776 533 764 q 511 781 513 781 q 510 775 510 781 q 496 757 510 769 l 482 746 l 503 747 q 553 765 524 751 q 594 792 582 778 q 622 807 608 807 q 654 817 638 807 l 672 825 l 653 833 q 615 847 635 843 q 598 849 603 850 q 586 842 593 849 q 572 836 575 831 q 575 844 571 838 m 731 788 l 728 789 q 719 796 725 792 q 708 804 714 800 l 685 819 l 667 808 q 653 790 650 796 q 658 769 658 785 l 658 756 l 693 771 q 731 788 729 786 m 713 764 q 721 772 724 771 q 699 764 718 772 q 688 757 688 758 q 690 756 688 756 q 713 764 699 756 m 790 713 q 772 743 793 715 q 744 771 750 771 q 721 760 738 772 q 708 747 704 747 q 718 735 714 747 q 704 690 731 706 q 658 697 678 674 l 647 711 l 572 663 q 506 613 500 615 q 635 654 528 608 q 746 697 708 685 q 790 713 789 711 m 556 744 l 586 768 q 547 752 583 767 q 499 738 511 738 l 485 738 l 485 679 q 488 621 485 621 q 572 675 494 621 q 653 736 650 729 l 657 746 l 628 733 q 575 715 600 722 q 536 708 550 708 q 521 715 522 708 q 556 744 521 719 m 599 744 q 588 754 588 756 q 560 736 586 754 q 547 717 529 715 q 581 725 557 718 l 610 735 l 599 744 m 792 701 l 792 703 q 639 646 728 683 q 500 604 532 600 l 486 607 l 483 578 q 482 547 481 550 q 522 568 483 547 q 628 619 563 590 q 703 658 696 649 q 728 669 713 669 q 765 684 738 671 q 792 701 792 697 m 817 658 q 803 688 808 685 q 779 681 797 692 q 756 667 760 668 q 756 660 751 665 q 760 619 771 640 l 754 608 l 785 619 q 819 633 815 631 q 817 658 824 638 m 710 604 q 694 624 697 611 l 690 638 l 621 606 q 506 549 536 568 q 472 514 476 531 q 468 496 467 497 q 526 515 471 493 q 640 561 582 536 l 722 597 l 710 604 m 831 608 q 824 621 826 621 q 774 601 817 619 q 522 474 671 560 q 446 428 465 442 q 415 400 426 415 q 350 356 389 367 q 314 332 317 343 q 394 353 325 326 q 557 428 463 379 q 663 476 603 450 q 738 506 724 503 l 751 510 l 736 513 q 716 531 722 517 q 715 560 710 544 q 750 582 722 582 q 780 563 771 582 q 776 526 789 543 q 775 517 771 517 q 799 524 779 517 q 808 526 804 525 q 815 526 813 526 q 817 526 817 526 q 818 524 818 525 q 788 511 818 518 q 608 439 711 492 q 443 347 547 407 q 331 276 339 286 l 321 268 l 343 271 q 426 296 374 275 q 606 378 478 317 q 692 417 681 413 q 699 422 697 419 q 696 433 700 425 q 697 459 692 446 q 710 478 701 472 q 747 477 726 486 q 767 453 767 468 q 774 449 767 446 q 796 456 783 451 q 810 454 811 460 q 740 408 806 440 q 733 404 736 406 l 707 392 l 719 388 q 735 371 732 383 q 738 363 736 365 q 743 363 740 361 q 764 367 747 364 q 782 364 779 369 q 732 310 788 347 q 700 288 707 294 q 693 274 693 281 q 682 252 693 261 q 657 243 671 243 q 638 247 642 243 q 622 247 633 253 q 614 231 613 243 l 615 219 l 669 233 q 719 247 708 243 q 739 263 729 251 q 824 440 794 328 q 833 536 833 475 q 831 608 833 597 m 540 494 l 621 542 q 567 521 614 540 q 490 493 515 500 q 466 483 471 488 q 453 461 461 479 q 446 442 443 442 l 449 442 q 540 494 454 444 m 690 396 q 718 414 724 411 q 529 332 708 417 q 431 289 489 313 q 383 267 383 271 q 392 254 383 264 l 400 244 l 458 276 q 690 396 608 360 m 668 358 l 668 378 q 593 338 635 360 q 410 235 401 239 q 554 289 426 229 q 644 329 615 318 q 665 341 663 338 q 668 358 668 344 m 274 351 q 238 360 261 351 q 226 364 232 363 q 218 365 221 365 l 215 365 q 226 335 215 360 q 247 293 238 310 q 450 150 317 178 q 629 174 544 131 q 665 194 644 181 q 700 220 686 208 q 713 233 714 232 q 663 222 711 235 q 603 197 615 208 q 572 189 592 186 q 511 178 550 190 q 475 168 483 169 q 458 172 467 167 q 440 186 446 178 q 436 207 436 194 q 442 225 436 219 q 442 233 450 232 q 431 231 438 233 q 408 225 417 225 q 396 217 397 225 q 371 200 390 203 q 339 208 351 197 q 332 251 319 226 q 326 263 336 260 q 338 293 301 268 q 389 325 354 306 q 457 368 457 365 l 454 368 q 415 351 450 367 q 351 331 385 338 q 321 314 322 322 q 300 279 319 289 q 278 276 285 274 q 250 310 251 286 q 272 344 249 335 l 286 351 l 274 351 m 771 353 q 772 360 775 360 q 753 356 769 360 q 736 344 736 350 q 715 324 736 331 q 681 326 694 317 q 651 322 674 331 q 531 268 629 313 q 479 240 479 246 q 486 239 481 239 q 499 230 493 239 q 507 211 506 221 q 509 200 507 200 q 528 208 511 200 q 544 226 544 217 q 560 253 544 244 q 594 254 576 263 q 617 253 610 247 q 624 275 624 258 q 632 303 624 294 q 656 313 640 313 q 682 303 672 313 l 692 294 l 722 314 q 771 353 760 339 m 547 200 q 546 204 551 204 q 528 197 539 204 l 517 190 l 529 193 q 547 200 542 196 z "},"9":{"ha":1050,"x_min":113,"x_max":967,"o":"m 751 976 q 888 961 832 990 q 924 930 904 953 q 953 886 944 907 q 967 775 976 825 q 908 681 957 732 l 890 661 l 892 626 q 872 499 894 558 q 782 336 850 440 q 714 231 736 267 q 669 142 693 194 q 642 75 646 90 q 596 15 633 28 q 492 72 564 4 l 471 93 l 461 83 q 369 69 411 36 q 235 201 356 79 q 113 333 118 319 q 126 386 103 364 q 317 565 268 508 q 393 665 369 629 q 426 733 417 701 q 459 788 438 771 q 542 822 481 804 l 583 835 l 596 861 q 660 935 614 900 q 751 976 707 969 m 846 900 q 693 869 769 929 l 683 861 l 707 863 q 761 850 732 865 q 800 828 789 838 q 828 818 811 818 q 867 782 857 818 q 875 758 872 760 q 883 765 878 757 q 886 771 883 767 q 890 846 904 800 q 846 900 878 886 m 717 757 q 709 788 714 785 q 675 782 704 790 q 653 775 658 778 q 649 765 649 772 q 653 756 649 756 q 658 764 658 756 q 663 772 658 772 q 669 761 668 771 q 679 749 672 751 q 699 716 694 744 q 694 668 704 688 q 690 651 690 660 q 696 619 690 643 q 710 582 706 582 q 713 583 711 582 q 718 657 717 586 q 717 757 719 728 m 736 771 q 728 786 731 786 q 724 757 721 786 q 728 697 728 724 l 731 679 q 736 724 731 685 q 736 771 740 754 m 579 743 q 578 751 579 749 q 572 754 576 754 q 558 752 567 754 q 533 743 550 750 l 503 732 l 490 699 q 482 615 474 654 q 538 458 490 576 q 562 403 551 425 q 579 371 572 381 q 589 363 586 361 q 553 560 606 374 q 526 665 538 613 q 517 719 514 717 q 524 713 521 724 q 529 693 526 707 l 535 678 q 536 683 536 679 q 563 721 538 707 q 579 743 578 729 m 493 539 q 468 628 471 619 l 465 642 l 442 608 q 381 528 421 576 q 342 479 342 481 q 376 396 342 476 q 453 242 447 231 q 401 428 457 257 q 375 511 375 507 q 393 492 375 528 q 411 451 401 476 q 483 311 476 304 q 446 488 488 326 q 432 569 425 568 q 436 567 433 569 q 456 518 440 563 q 510 378 494 413 q 532 343 525 343 q 493 539 549 343 m 704 572 q 689 613 699 579 l 681 644 l 683 572 q 683 526 683 544 q 681 496 683 507 q 676 481 679 485 q 667 478 672 478 q 650 501 660 479 q 633 553 640 522 q 622 586 625 586 q 621 576 618 586 q 626 510 625 561 q 624 453 628 460 q 596 461 613 432 q 586 471 588 471 q 601 388 601 411 l 601 375 l 611 389 q 647 429 618 399 q 717 529 711 497 q 722 581 724 581 q 717 575 721 581 q 704 572 711 567 m 675 556 q 672 619 675 614 q 660 616 669 622 q 642 599 650 610 q 635 583 635 589 q 658 504 643 536 q 674 506 671 475 q 675 556 675 521 m 613 574 q 594 583 610 581 q 562 603 579 586 q 544 618 544 621 q 564 558 544 611 q 593 485 583 506 q 611 456 608 456 q 615 458 614 454 q 618 514 619 464 q 613 574 617 564 m 532 336 q 526 336 532 336 q 508 360 521 336 q 481 426 496 383 l 463 468 q 475 407 463 464 q 490 331 488 353 q 496 303 492 318 q 490 294 499 294 q 471 308 481 296 q 439 369 464 318 l 417 410 q 461 236 467 253 q 438 244 454 218 q 436 247 438 246 l 425 263 q 431 246 424 261 q 436 205 435 231 q 432 176 438 179 q 408 192 422 169 l 400 204 l 397 188 q 368 188 393 156 q 317 267 351 208 q 243 376 246 386 q 263 326 242 371 q 285 267 285 279 q 346 193 285 256 l 407 132 l 440 168 q 513 254 475 204 q 544 294 524 268 q 568 326 564 321 l 583 347 l 571 365 q 542 424 558 383 l 525 463 q 535 413 524 463 q 544 351 544 367 q 532 336 543 336 m 342 428 q 328 464 331 464 q 314 451 325 464 l 301 440 l 313 406 q 360 301 321 381 q 414 199 399 221 q 428 185 424 185 q 429 203 432 186 q 385 329 424 246 q 342 428 354 393 m 301 406 q 294 431 297 428 q 267 411 290 433 l 242 389 l 254 379 q 314 288 264 371 q 375 192 361 207 l 389 176 l 389 190 q 336 322 389 217 q 301 406 306 382 m 271 286 q 229 371 253 336 q 226 374 226 375 q 243 331 224 369 q 271 282 269 281 q 271 286 272 283 m 389 344 q 381 365 389 350 q 372 375 372 379 q 381 356 372 371 l 389 344 m 233 329 q 214 364 215 364 q 203 356 213 364 l 194 344 l 222 319 l 251 293 l 233 329 z "}," ":{"ha":1032,"x_min":110,"x_max":950,"o":"m 763 796 q 845 802 828 803 q 872 794 863 801 q 883 765 885 785 l 882 747 l 906 750 q 938 742 929 751 q 949 678 947 733 q 949 426 951 622 l 946 229 l 933 218 q 904 210 921 207 q 885 206 892 211 q 849 169 878 201 q 783 93 807 122 q 756 63 763 68 q 735 57 750 58 q 703 68 714 56 l 690 81 l 567 78 q 301 68 443 74 q 150 65 169 64 q 121 76 131 65 l 110 89 l 113 351 q 117 608 115 565 q 124 657 118 650 q 136 678 129 663 q 174 704 143 692 q 286 758 265 742 q 304 767 294 765 q 347 768 314 768 q 454 775 394 768 q 608 786 519 781 q 763 796 700 790 m 750 699 l 814 728 q 754 721 774 726 q 699 696 735 715 q 658 672 660 675 q 665 669 658 669 q 750 699 679 668 m 643 690 l 694 715 l 658 715 q 616 708 624 717 q 579 682 608 699 l 551 667 l 572 665 q 643 690 592 664 m 390 672 q 425 693 417 688 q 428 699 433 699 q 417 697 425 699 q 337 692 360 696 q 290 676 314 688 l 260 661 l 313 658 l 365 656 l 390 672 m 875 657 q 871 668 875 668 q 801 636 868 668 q 749 608 763 617 q 738 596 736 600 q 740 588 740 589 q 744 588 740 586 q 754 594 747 590 q 768 600 761 597 q 803 613 807 622 q 771 592 801 608 q 742 572 740 575 q 764 579 742 569 q 794 593 769 582 q 828 608 818 604 q 868 630 861 622 q 875 657 875 638 m 871 611 q 868 615 871 615 q 833 600 865 615 q 803 588 825 597 q 772 574 781 578 q 753 565 760 568 q 744 560 747 563 q 740 555 740 557 q 743 551 740 553 q 809 575 747 546 q 871 611 871 604 m 268 588 q 208 593 221 592 l 190 596 l 188 572 q 184 348 185 557 q 186 138 183 139 q 293 142 188 136 q 544 147 401 147 l 689 147 l 686 222 q 678 406 685 251 q 671 546 671 518 q 661 586 671 576 q 644 592 654 592 q 592 592 633 593 q 515 588 526 589 l 500 586 l 503 550 q 510 437 510 465 q 503 393 510 408 q 465 364 489 364 q 443 371 451 364 q 424 397 435 378 l 410 421 l 389 392 q 358 356 368 361 q 332 352 347 350 q 308 363 317 354 q 297 400 297 374 q 304 471 299 429 q 311 558 313 524 l 311 585 l 268 588 m 867 579 q 863 590 867 590 q 830 576 860 590 q 772 547 800 561 q 746 531 744 532 q 807 547 749 528 q 858 565 850 561 q 867 579 867 569 m 875 553 q 800 538 875 561 l 744 518 l 744 496 q 746 476 744 479 q 754 478 747 474 q 826 519 776 489 q 875 553 875 550 m 879 524 q 878 533 879 529 q 876 538 878 538 q 849 522 872 538 q 793 489 831 511 q 772 476 781 482 q 764 469 763 471 q 815 488 767 468 q 872 508 865 508 q 879 524 879 508 m 879 493 q 876 498 879 497 q 866 497 874 499 q 846 491 858 496 q 813 478 833 486 q 754 456 758 456 q 750 406 747 456 q 756 353 753 354 q 795 368 758 350 q 856 401 832 386 q 879 429 879 417 l 879 442 l 826 425 q 753 411 749 400 q 789 435 757 418 q 879 493 879 483 m 876 451 q 878 465 881 454 q 876 474 878 474 q 868 471 875 475 q 828 446 861 465 q 818 440 822 443 q 810 435 814 438 q 803 431 806 433 q 799 428 800 429 q 799 428 797 428 q 836 436 800 425 q 876 451 872 447 m 879 393 l 878 403 l 856 390 q 800 360 840 381 q 771 344 772 346 q 822 363 769 340 q 873 382 867 382 q 879 393 879 382 m 850 332 q 879 363 879 351 q 874 374 879 374 q 825 354 868 372 q 768 335 782 335 q 756 333 758 335 q 753 322 753 331 q 756 296 753 311 l 758 282 l 790 299 q 850 332 817 311 m 878 314 q 878 333 882 331 q 858 326 874 336 q 797 292 842 317 q 765 271 765 275 q 822 286 764 263 q 869 304 865 304 q 878 314 874 304 m 875 293 q 822 278 875 299 q 769 261 782 261 q 760 257 761 261 q 758 231 758 253 q 764 193 758 193 q 804 228 769 193 q 856 269 844 269 q 868 278 861 269 q 875 293 875 286 z "},"!":{"ha":1110,"x_min":115,"x_max":1028,"o":"m 718 800 q 718 803 718 800 q 727 816 718 807 q 753 825 736 825 q 786 808 764 825 q 897 715 808 792 q 1028 597 1024 606 q 1025 572 1031 588 q 1011 553 1019 557 q 1000 542 1000 550 q 981 514 1000 533 q 903 444 961 494 q 832 381 832 383 q 836 367 831 378 l 840 357 l 886 389 q 942 424 933 421 q 965 420 951 426 q 981 406 978 414 q 979 369 988 386 q 901 310 976 363 q 825 251 828 258 q 821 226 818 228 q 850 242 824 225 q 918 293 886 268 q 969 321 954 321 q 1001 302 990 321 q 999 267 1011 283 q 945 222 993 258 q 857 158 897 185 q 826 136 833 143 q 818 122 818 129 q 797 84 818 111 q 764 54 775 57 q 721 36 754 53 q 685 24 696 25 q 661 33 674 24 q 644 34 657 39 q 583 7 631 29 q 365 -82 389 -82 q 344 -69 357 -82 q 332 -46 332 -56 q 301 -6 332 -35 q 197 112 275 19 q 115 215 119 204 q 121 246 110 231 q 150 261 132 261 q 183 242 164 261 q 263 147 201 222 q 348 53 304 97 q 400 8 392 8 q 581 88 417 8 q 652 124 642 117 q 663 142 663 131 l 663 156 l 629 136 q 498 63 572 103 q 418 22 424 22 q 383 47 393 22 q 367 72 376 63 q 286 158 358 79 q 174 279 215 235 q 140 316 147 306 q 133 335 133 326 q 153 368 133 358 q 199 354 171 378 q 333 215 226 331 q 419 122 397 144 l 435 110 l 474 131 q 676 256 672 243 q 667 256 678 261 q 640 240 658 251 q 549 189 601 215 q 481 161 501 165 q 438 169 460 157 q 294 292 389 193 q 189 429 200 392 q 197 472 182 453 q 236 490 211 490 q 369 544 257 490 q 540 638 481 599 q 614 692 578 661 q 682 755 646 717 q 718 800 718 793 m 882 632 q 804 697 854 656 q 783 715 793 707 q 767 726 774 722 q 760 729 761 731 q 763 713 757 726 q 761 619 767 701 q 767 482 754 504 q 783 497 776 463 q 792 586 789 525 q 800 672 796 663 q 814 668 807 696 q 817 608 819 643 q 814 464 806 464 q 829 514 824 464 q 843 594 831 542 q 863 643 854 644 q 869 558 872 640 q 872 515 868 517 q 876 517 874 515 q 901 565 893 526 q 911 596 906 590 q 910 606 915 600 q 882 632 904 613 m 742 681 l 747 711 l 724 689 l 701 665 l 701 610 q 706 547 701 554 q 725 565 714 535 q 736 632 736 596 q 742 681 738 651 m 753 619 q 756 706 760 711 q 740 597 753 700 q 728 546 736 557 l 718 533 l 735 514 q 753 494 750 494 l 753 500 q 750 515 751 507 q 753 619 749 538 m 801 492 q 801 511 801 492 q 806 570 801 531 q 808 633 811 610 q 803 632 807 672 q 797 560 800 607 q 786 475 793 488 q 782 462 782 465 q 788 454 782 458 q 799 450 796 447 q 801 492 801 453 m 683 626 q 681 647 685 647 q 658 631 675 646 q 640 611 640 617 q 658 588 640 604 l 678 571 l 681 588 q 683 626 683 604 m 858 511 q 860 611 863 529 l 858 625 q 846 564 856 617 q 836 501 836 511 q 838 488 836 490 q 846 492 839 486 q 858 511 856 499 m 689 561 q 693 586 693 560 q 690 613 693 613 q 688 588 688 613 q 689 561 688 563 m 943 576 q 936 586 944 581 q 929 588 931 589 q 931 581 928 588 q 938 572 933 574 q 943 576 942 571 m 924 574 q 918 586 922 586 q 910 566 915 586 q 906 544 904 546 q 917 553 908 543 q 924 574 926 563 m 489 493 q 479 504 489 497 q 463 507 472 510 q 419 488 454 504 q 381 467 390 474 q 374 457 371 461 q 389 369 379 429 q 404 288 401 289 q 408 301 406 286 q 413 335 411 315 q 415 365 415 354 q 419 420 415 390 q 428 470 422 450 q 438 489 433 490 q 446 392 443 488 q 453 285 449 299 q 458 281 456 272 q 461 297 460 285 q 477 401 465 315 q 489 493 489 486 m 515 294 q 511 393 514 304 q 503 486 508 482 q 497 481 499 490 q 485 390 494 469 q 464 268 472 296 q 456 261 463 261 q 447 268 450 261 q 436 408 438 304 l 435 467 l 429 433 q 424 374 424 401 q 418 311 424 340 l 414 278 l 431 263 q 461 240 446 249 q 477 235 472 235 q 500 244 482 236 q 520 260 518 254 q 515 294 522 265 m 551 443 q 536 463 554 450 l 517 476 l 518 406 q 525 301 519 333 l 531 267 l 532 313 q 538 384 532 342 q 551 443 544 426 m 379 372 q 364 453 367 446 q 360 458 361 458 q 353 454 358 458 q 339 382 344 446 l 336 354 l 364 326 l 392 299 l 379 372 m 335 422 q 336 437 336 432 q 335 444 336 442 q 331 447 333 447 q 322 442 328 446 q 315 408 315 438 q 321 371 315 379 q 329 376 326 364 q 335 422 331 386 m 572 407 q 563 440 569 443 q 542 322 546 431 l 539 265 q 560 276 540 265 l 579 289 l 578 332 q 572 407 574 392 m 306 411 q 303 432 306 429 q 288 428 301 435 l 276 422 l 292 406 l 306 389 l 306 411 m 611 344 q 621 386 618 382 q 600 408 624 390 l 578 428 l 581 410 q 583 350 583 393 q 589 300 583 307 q 606 317 597 285 q 611 344 610 328 m 640 350 q 635 378 640 372 q 626 369 629 381 q 618 325 624 360 q 617 313 615 314 q 629 319 619 313 q 640 350 640 326 m 656 336 q 663 343 663 340 q 656 354 663 346 q 650 356 650 361 q 649 349 649 354 q 650 338 649 340 q 656 336 651 336 z "},"\"":{"ha":1063,"x_min":81,"x_max":979,"o":"m 911 758 q 958 758 938 781 l 969 749 l 972 513 q 979 263 974 275 q 965 219 989 235 q 400 186 932 199 q 192 185 244 183 q 115 199 139 188 q 96 222 100 207 q 83 470 90 238 q 81 711 75 703 q 93 725 86 721 q 114 729 101 729 q 131 726 126 729 q 226 725 135 722 q 417 728 300 728 q 707 739 535 729 q 875 747 849 744 q 911 758 901 750 m 825 664 l 831 672 l 810 668 q 697 622 768 660 l 660 604 l 704 604 l 750 603 l 783 629 q 825 664 818 656 m 897 663 q 893 671 897 669 q 871 672 889 672 q 848 670 854 672 q 833 660 842 668 q 793 625 821 646 q 771 603 771 607 q 825 625 778 603 q 885 649 875 647 q 897 663 897 651 m 740 654 q 763 668 763 665 q 724 661 738 667 q 685 638 711 656 q 649 610 649 611 q 657 613 649 608 q 678 624 665 617 q 740 654 704 639 m 607 636 q 651 664 654 661 q 608 658 617 661 q 585 642 600 656 q 521 594 564 622 q 481 565 479 567 q 518 586 482 563 q 607 636 557 610 m 665 635 q 700 663 700 658 q 694 664 700 664 q 637 641 683 664 q 539 588 590 618 l 490 558 l 490 533 l 490 508 l 506 517 q 563 568 563 551 q 601 603 563 599 q 628 610 617 604 q 665 635 639 615 m 528 649 l 551 660 l 535 660 q 500 644 517 660 q 489 632 486 632 q 528 649 492 632 m 571 642 q 582 658 590 658 q 506 629 574 660 q 335 526 400 581 q 297 501 317 513 l 278 490 l 319 490 l 361 490 l 382 510 q 424 549 406 529 q 453 568 443 568 q 506 595 463 568 q 571 642 550 622 m 247 651 q 236 654 249 653 q 200 654 225 654 l 150 653 l 150 617 q 153 574 150 581 q 182 589 157 568 q 207 610 207 608 q 203 610 207 611 q 195 606 200 608 q 185 601 190 604 q 158 590 160 589 q 199 619 156 594 q 247 651 244 646 m 297 636 l 329 656 l 299 656 q 267 651 267 656 q 213 603 267 647 q 174 570 189 583 q 161 557 160 557 q 297 636 164 553 m 356 642 l 369 656 l 358 656 q 286 618 347 656 q 190 561 226 581 l 154 542 l 154 504 q 159 345 154 428 q 168 260 164 263 q 218 257 171 258 q 310 256 265 256 q 351 260 354 257 q 340 275 344 264 q 339 296 336 286 l 342 308 l 279 308 q 226 310 236 308 q 208 319 217 311 q 198 344 199 329 q 206 369 197 358 q 225 378 213 376 q 296 382 238 381 q 379 386 378 386 l 383 400 q 389 417 389 414 q 306 418 389 419 q 232 418 246 417 q 210 425 218 419 q 197 451 197 435 q 236 489 197 483 q 281 513 256 492 q 396 586 318 544 q 469 631 436 607 l 499 653 l 481 654 q 451 649 467 656 q 386 619 436 643 q 233 532 276 563 q 210 522 215 519 q 226 540 204 524 q 282 583 239 550 q 356 642 343 629 m 376 622 q 436 653 435 651 q 408 654 438 656 l 378 654 l 347 624 l 318 594 l 376 622 m 897 625 q 893 642 897 642 q 858 629 889 642 q 817 611 828 617 l 804 604 l 819 601 q 843 586 836 599 q 853 572 850 572 q 876 590 856 572 q 894 608 890 603 q 897 625 897 614 m 900 372 q 897 528 900 474 l 894 594 l 872 576 q 844 547 851 560 q 822 532 836 535 q 786 514 808 529 l 763 499 l 774 489 q 784 463 783 478 q 774 436 785 447 q 747 428 767 429 q 615 424 726 426 l 467 419 l 463 404 q 460 388 458 389 q 578 393 461 386 q 680 398 663 399 q 706 392 697 397 q 721 360 722 379 q 701 332 719 340 q 599 322 690 326 q 467 314 553 319 l 425 311 l 411 286 l 399 261 l 447 261 q 694 268 538 261 q 888 281 851 275 l 901 282 l 900 372 m 578 536 q 563 543 565 543 q 536 524 561 543 q 503 500 506 501 q 510 497 499 497 q 622 496 528 494 l 749 497 l 768 513 l 789 528 l 731 529 l 674 531 l 642 514 q 607 500 611 497 q 629 524 604 504 q 628 529 638 528 q 614 529 624 529 q 578 536 592 529 m 413 497 q 406 506 418 511 q 396 500 401 504 l 378 490 l 394 490 q 413 497 411 490 z "},"#":{"ha":1311,"x_min":19,"x_max":1229,"o":"m 1081 931 q 1194 919 1168 933 q 1226 878 1219 906 q 1229 763 1232 851 q 1219 594 1226 658 q 1185 231 1190 258 q 1169 214 1183 221 q 1157 199 1157 207 q 1126 175 1157 185 q 1049 165 1094 165 l 1019 165 l 1010 142 q 931 63 985 82 q 829 78 878 44 q 783 143 792 103 l 778 167 l 738 164 q 575 158 689 160 l 451 156 l 442 135 q 382 63 422 92 q 333 49 365 50 q 253 72 283 46 q 217 143 222 101 l 214 164 l 164 167 q 97 179 115 169 q 69 205 83 186 q 53 239 56 224 q 39 256 50 250 q 19 292 28 263 q 22 408 3 347 q 46 440 31 432 q 60 450 57 444 q 68 472 64 456 q 126 631 85 547 q 222 726 168 711 q 390 742 279 742 q 431 740 422 742 q 447 732 440 739 q 458 699 461 718 q 438 674 456 681 l 425 668 l 422 593 q 409 469 419 510 q 375 414 399 429 q 344 405 364 407 q 243 401 325 403 l 125 399 l 121 378 q 118 313 118 357 q 125 253 118 267 l 133 239 l 174 239 l 214 239 l 217 257 q 236 324 224 301 q 272 363 249 347 q 340 380 297 376 q 403 372 382 383 q 435 344 424 363 q 453 292 446 326 q 463 254 458 258 q 467 336 465 251 q 469 522 469 421 q 465 660 468 622 q 467 872 453 840 q 480 890 471 883 q 521 901 489 896 q 599 908 553 906 q 738 911 644 910 q 986 922 907 915 q 1081 931 1035 928 m 1147 857 q 1104 859 1139 858 q 1064 857 1069 860 q 994 850 1060 856 q 938 840 938 843 q 943 828 946 833 q 921 807 940 824 q 771 674 856 753 l 800 694 q 803 697 801 696 q 1051 847 967 825 q 1086 838 1085 856 q 1050 790 1089 828 q 981 725 1011 753 l 951 699 l 994 731 q 1135 775 1135 835 q 1082 708 1135 754 q 897 568 1029 663 q 653 378 679 414 l 643 364 l 653 368 q 840 501 676 381 q 1135 699 1078 674 l 1156 710 l 1158 767 q 1158 837 1161 819 q 1147 857 1156 854 m 753 840 l 740 842 q 686 839 707 839 l 646 838 l 596 776 q 546 708 539 710 q 564 715 550 707 q 658 776 571 718 q 753 840 746 835 m 778 835 q 781 842 786 842 q 661 767 768 842 q 549 699 563 699 q 542 692 543 699 q 540 656 540 685 l 540 611 l 574 642 q 689 750 603 665 q 778 835 771 831 m 881 828 l 917 842 l 857 842 l 799 842 l 732 776 q 683 724 672 718 q 781 778 708 740 q 881 828 853 815 m 1079 836 q 1029 831 1079 853 q 897 754 964 801 q 674 581 831 707 q 569 499 574 499 q 632 572 549 499 q 675 608 653 590 q 856 763 767 681 q 919 819 899 801 l 938 835 l 921 832 q 819 788 903 829 q 690 717 736 746 q 592 640 643 688 l 540 593 l 540 515 l 540 438 l 572 460 q 750 600 639 504 q 914 733 904 733 q 897 711 926 733 q 786 619 883 701 q 576 451 640 494 l 542 428 l 540 404 l 540 382 l 588 418 q 912 680 744 538 q 1079 836 1079 822 m 606 831 q 605 835 606 833 q 603 836 604 838 q 575 835 600 836 q 537 828 542 833 q 532 790 532 824 q 535 738 532 754 l 538 721 l 585 778 q 608 807 597 793 q 624 828 618 821 q 628 836 629 836 q 614 831 622 839 q 606 831 606 826 m 1122 786 q 1113 789 1117 789 q 1096 783 1110 789 q 836 588 1043 764 q 694 471 728 497 q 606 408 658 443 q 547 374 553 374 q 540 358 540 374 l 540 342 l 643 344 q 749 351 746 344 q 1021 576 760 388 q 1139 664 1125 651 q 1151 688 1153 676 l 1150 700 l 1103 671 q 833 485 1024 622 q 636 350 642 346 q 649 386 625 356 q 864 556 682 426 q 1096 733 1056 693 q 1122 786 1138 775 m 350 658 q 347 666 350 664 q 338 668 344 668 q 311 644 325 668 q 263 590 297 622 q 214 536 207 540 q 218 538 214 535 q 269 579 226 542 q 332 633 311 617 q 350 658 350 649 m 300 661 q 294 664 299 663 q 265 646 288 664 q 225 608 243 628 l 218 597 q 253 622 221 597 q 300 661 299 657 m 222 618 q 256 660 263 660 q 210 628 229 658 q 195 605 203 617 q 183 586 188 593 l 181 578 q 222 618 182 578 m 1150 636 q 1151 658 1153 657 q 1122 639 1150 660 q 1014 560 1092 617 q 882 463 953 515 q 802 397 843 433 q 764 357 761 360 q 933 471 769 351 q 1133 608 1092 588 q 1150 636 1147 617 m 293 635 l 306 650 q 235 597 301 650 q 167 540 169 544 q 153 503 163 532 l 142 474 l 165 474 q 190 477 182 474 q 218 500 197 481 q 276 551 261 539 q 350 626 350 613 q 347 633 350 633 q 297 592 346 633 q 237 540 267 564 q 188 504 207 517 q 168 494 169 492 q 199 537 167 499 q 256 596 232 575 q 293 635 279 617 m 867 628 q 854 620 867 629 q 757 542 842 611 q 638 443 688 483 q 633 438 632 438 q 757 534 647 444 q 867 628 867 624 m 350 590 q 349 602 350 601 q 340 596 347 603 q 282 544 335 589 q 228 497 228 499 q 231 498 228 496 q 239 503 233 500 q 250 511 244 507 q 329 565 300 547 q 346 577 342 572 q 350 590 350 582 m 1146 572 q 1147 598 1147 597 q 1125 582 1146 599 q 1078 547 1108 568 q 978 460 1039 518 q 924 397 918 403 q 1006 457 925 396 q 1114 533 1089 519 l 1143 549 l 1146 572 m 1111 582 q 1118 590 1119 590 q 935 460 1110 590 q 808 372 843 393 q 776 349 776 351 q 785 347 775 347 q 808 340 799 347 q 819 338 815 336 q 833 349 822 339 q 867 371 843 360 q 903 382 892 382 q 910 390 910 382 q 967 463 910 404 q 1075 556 1025 521 q 1111 582 1088 565 m 350 557 q 349 561 350 560 l 347 564 q 257 504 335 563 l 215 474 l 243 474 l 271 474 l 303 503 q 350 557 350 546 m 1142 532 q 1142 538 1143 538 q 1125 529 1140 538 q 996 439 1094 513 l 925 385 l 944 382 q 971 376 963 379 q 994 396 976 374 q 1060 460 1007 413 q 1128 518 1113 508 q 1142 532 1139 525 m 343 504 q 344 526 346 526 q 326 511 343 528 l 308 494 l 322 494 q 338 489 335 494 l 343 504 m 1138 489 q 1139 513 1140 507 q 1130 508 1139 514 q 1107 490 1121 501 q 1076 463 1093 478 q 988 371 978 375 q 1036 406 993 369 q 1108 457 1082 443 q 1131 472 1126 467 q 1138 489 1136 476 m 328 482 l 328 490 q 308 482 326 490 l 292 474 l 310 474 q 324 475 321 474 q 328 482 328 476 m 1133 453 q 1133 457 1139 458 q 1119 454 1129 457 q 1048 404 1100 444 q 999 358 996 364 q 1011 353 999 354 q 1032 364 1022 351 q 1085 414 1042 378 q 1133 453 1129 449 m 1131 428 l 1131 439 q 1089 404 1129 438 q 1038 351 1025 351 q 1075 381 1039 351 q 1120 413 1110 408 q 1131 428 1131 418 m 1128 388 q 1128 408 1131 408 q 1090 381 1124 408 q 1063 353 1058 356 q 1067 351 1064 351 q 1094 347 1075 349 q 1117 356 1110 347 q 1128 388 1125 365 m 375 300 q 351 308 371 307 q 317 301 332 308 l 304 296 l 326 296 q 364 292 349 294 q 379 289 378 288 q 375 300 381 290 m 1115 261 l 1119 278 l 1074 278 l 1028 278 l 1029 260 q 1035 238 1032 243 q 1072 240 1036 236 q 1113 244 1108 243 l 1113 247 q 1114 254 1113 250 q 1115 261 1115 258 m 794 260 l 799 274 l 679 274 q 549 271 563 272 q 538 266 540 269 q 536 249 536 263 l 536 231 l 583 231 q 709 235 632 231 q 789 242 786 239 q 794 260 793 246 m 907 193 q 906 224 907 217 q 900 231 906 231 q 876 206 892 231 q 857 182 861 182 q 853 168 853 182 q 873 136 853 149 q 910 132 893 124 q 922 142 921 139 q 915 150 922 144 q 907 193 907 156 m 936 218 q 917 223 921 226 q 914 194 914 219 q 928 154 915 151 q 940 176 932 157 q 949 204 949 196 q 936 218 949 211 m 374 211 q 311 213 346 222 q 292 190 300 210 q 289 151 283 169 q 315 118 297 124 q 353 133 333 113 q 386 192 378 161 q 386 203 388 200 q 374 211 385 207 z "},"$":{"ha":1185,"x_min":18,"x_max":1103,"o":"m 353 1015 q 372 1029 367 1029 q 426 1018 378 1029 q 743 988 519 997 q 1017 964 956 978 q 1060 961 1038 960 q 1082 959 1076 961 q 1094 949 1088 957 q 1103 933 1101 942 q 1103 897 1104 925 q 1097 831 1101 854 q 1044 456 1054 621 q 1032 372 1040 396 q 994 310 1024 347 q 857 157 943 247 q 750 57 771 67 q 696 49 731 47 q 519 69 661 51 q 35 167 89 125 q 18 217 8 188 q 94 292 19 225 q 282 476 253 432 q 293 499 292 490 q 292 538 294 507 q 301 676 290 575 q 331 878 313 778 q 343 982 346 961 q 342 1001 340 996 q 353 1015 344 1007 m 472 936 q 421 944 426 942 q 415 943 415 947 q 401 865 415 942 q 377 699 392 811 q 363 568 363 588 q 365 557 363 557 q 369 560 367 557 q 378 579 375 565 q 574 775 397 668 q 788 881 740 879 q 783 856 808 882 l 768 842 l 799 858 q 874 883 854 892 q 876 881 876 883 q 874 876 876 879 q 868 869 872 874 q 856 857 864 865 q 788 800 831 835 q 743 763 746 765 l 789 792 q 944 878 914 876 q 960 874 960 879 q 835 764 960 863 l 833 763 l 832 761 q 701 657 701 660 l 711 664 q 741 681 722 669 q 779 704 760 692 q 916 780 857 750 q 979 804 975 810 q 964 786 983 800 q 947 768 939 769 q 957 769 950 768 q 974 765 971 772 q 951 735 976 757 q 868 672 925 713 q 753 590 811 635 q 682 529 696 544 l 668 515 l 690 526 q 801 601 706 535 q 919 682 883 661 q 971 703 954 703 q 988 699 988 703 q 969 684 988 696 q 875 614 951 672 q 783 543 799 556 l 783 542 q 828 568 793 546 q 941 638 907 621 q 985 647 975 656 q 990 651 988 644 q 996 693 993 660 q 1014 804 1001 742 q 1018 824 1015 811 q 1025 881 1028 872 q 992 894 1022 890 q 981 896 985 896 q 728 915 892 908 q 472 936 560 922 m 844 860 q 858 876 863 876 q 829 864 854 876 q 680 767 772 838 q 506 619 588 697 q 426 547 443 560 l 411 535 l 469 529 l 528 524 l 539 539 q 578 572 549 550 q 621 607 601 589 q 826 769 644 626 q 946 872 947 864 q 900 850 944 876 q 586 625 739 760 q 486 547 497 547 q 482 548 483 547 q 481 550 481 549 q 585 642 485 561 q 690 729 642 686 q 783 808 733 768 q 844 860 821 839 m 721 819 q 747 840 721 819 q 779 866 774 860 q 779 871 785 872 q 753 863 774 871 q 583 772 675 829 q 447 669 490 714 q 408 622 426 650 q 389 585 389 594 q 435 622 389 581 q 531 705 474 658 q 593 751 589 751 q 565 721 606 751 q 445 619 510 678 q 381 553 381 561 q 374 547 381 547 q 367 543 367 547 q 383 539 367 538 q 400 542 394 539 q 417 558 406 546 q 472 611 432 578 q 590 712 513 644 q 721 819 668 779 m 931 775 q 886 753 931 778 q 663 619 781 699 q 614 584 643 607 q 563 542 585 561 q 542 522 540 524 q 593 517 543 522 q 653 510 647 511 q 663 515 663 508 q 718 574 663 528 q 861 679 774 619 q 946 743 925 722 l 968 764 l 953 760 q 914 746 939 757 q 751 635 890 735 q 695 594 718 610 q 657 569 672 578 q 635 557 642 560 q 628 556 629 554 q 638 570 626 560 q 701 621 649 581 q 896 753 810 704 q 931 775 931 774 m 893 639 l 963 694 q 811 599 946 694 q 696 519 718 531 l 675 508 l 692 506 q 736 510 736 499 q 893 639 736 521 m 968 636 q 972 642 976 642 q 826 556 957 643 q 743 503 747 503 q 760 500 747 501 l 781 497 l 869 564 q 968 636 942 617 m 986 622 q 988 633 988 629 q 986 638 988 638 l 936 600 q 842 531 904 578 q 797 497 797 499 q 860 531 797 483 q 969 590 940 590 q 979 596 976 590 q 986 622 982 601 m 975 575 q 977 581 978 579 q 972 581 976 582 q 850 513 940 579 l 822 490 l 846 489 q 868 491 861 489 q 888 504 875 493 q 975 575 968 568 m 971 546 l 972 560 l 951 542 q 918 517 950 542 q 919 514 911 511 q 938 521 925 515 q 963 533 957 529 q 971 546 969 538 m 967 517 q 965 520 967 519 q 959 519 964 521 q 947 515 954 518 q 926 506 940 511 q 900 489 900 493 q 903 486 900 488 q 947 497 925 476 q 967 517 967 513 m 558 447 q 375 467 388 465 q 361 465 365 468 q 346 442 357 461 q 169 261 315 390 l 114 211 l 154 201 q 367 164 210 188 q 646 126 524 140 l 681 124 l 738 183 q 875 325 785 235 q 949 407 954 406 q 833 419 946 407 q 558 447 588 444 m 347 433 q 363 442 356 440 q 394 442 369 443 q 440 428 429 439 l 453 417 l 460 425 q 490 433 468 433 q 549 425 515 433 q 589 408 582 417 q 593 371 603 392 q 563 350 583 350 q 529 356 549 350 q 490 363 515 358 q 458 376 468 365 l 447 386 l 439 378 q 424 369 432 371 q 392 371 417 368 q 360 374 368 372 q 347 385 353 376 q 347 433 325 410 m 613 406 q 633 416 621 415 q 683 411 646 417 q 750 401 715 406 q 790 389 781 399 q 790 340 814 364 q 775 331 782 332 q 736 332 768 329 q 611 357 632 338 q 601 381 601 367 q 613 406 601 396 m 300 368 q 374 364 310 374 q 424 331 424 357 l 424 319 l 429 331 q 486 349 440 353 q 528 333 517 346 q 539 303 542 321 q 519 278 536 286 q 464 278 500 269 q 428 303 428 288 q 413 300 428 317 q 390 291 406 292 q 331 297 374 290 q 283 313 292 303 q 278 344 272 326 q 300 368 283 363 m 578 325 q 608 333 590 335 q 678 323 632 331 q 732 311 724 315 q 752 286 749 306 q 743 254 756 267 q 719 244 733 244 q 647 254 704 244 q 581 271 594 263 q 567 300 567 279 q 578 325 567 317 m 232 288 q 247 289 239 290 q 558 247 403 257 q 639 240 632 242 q 665 215 660 236 q 656 179 671 194 q 640 170 647 171 q 597 171 632 169 q 264 213 418 182 q 218 227 229 219 q 207 253 207 235 q 232 288 207 278 z "},"%":{"ha":1071,"x_min":32,"x_max":988,"o":"m 376 992 q 396 1002 383 1001 q 436 996 408 1003 q 593 968 458 990 q 886 905 804 933 q 985 833 968 876 q 988 797 992 815 q 778 390 975 751 q 657 164 681 217 q 611 77 631 104 q 567 38 592 50 q 524 26 546 26 q 458 36 503 26 q 195 126 336 64 q 32 222 54 188 q 43 339 11 257 q 301 836 99 476 q 367 965 367 951 q 376 992 367 981 m 592 894 q 436 919 439 919 q 335 744 432 919 q 186 469 238 569 l 132 363 l 160 353 q 208 333 188 344 q 269 320 229 322 q 326 308 310 318 q 353 287 340 301 q 367 264 367 272 q 411 242 367 257 q 461 225 456 225 q 504 253 467 225 q 615 329 547 283 q 689 382 689 378 q 668 378 689 386 q 489 289 643 369 q 447 267 461 275 q 422 256 432 260 q 409 252 411 251 q 406 256 407 253 q 592 382 407 265 q 675 436 642 414 l 708 458 q 680 451 707 461 q 628 428 653 440 q 510 360 590 408 q 367 282 381 282 q 372 301 354 282 q 378 308 375 304 q 505 394 403 329 q 658 483 607 458 q 716 519 675 493 q 764 553 757 546 q 763 556 768 556 q 694 533 747 554 q 550 463 665 521 q 374 371 435 404 q 332 356 333 349 q 466 440 332 360 q 731 594 600 521 q 764 615 751 607 l 778 624 q 564 528 769 631 q 303 382 417 451 q 256 358 258 356 q 263 367 253 360 q 378 443 274 375 q 706 639 568 569 l 778 676 q 710 656 765 678 q 606 610 654 633 q 278 410 456 535 q 228 378 231 378 q 243 397 214 378 q 566 599 419 521 q 790 688 713 676 q 808 685 808 689 q 708 629 807 679 q 481 499 524 535 l 567 539 q 586 549 576 543 q 744 622 708 608 q 810 635 810 649 q 614 517 810 629 q 506 454 506 456 q 528 463 506 453 q 581 490 550 474 q 764 564 715 558 l 790 567 l 808 601 q 874 726 835 647 q 914 807 914 804 q 892 822 914 811 q 844 842 869 833 q 592 894 785 861 m 760 511 q 778 549 781 547 q 736 522 776 551 q 663 476 697 494 q 512 388 603 444 q 393 308 421 331 q 396 306 383 300 q 524 379 424 318 q 711 468 647 453 l 740 475 l 760 511 m 715 429 l 731 460 q 503 314 725 458 q 458 283 458 286 q 468 287 458 282 q 492 300 478 292 q 665 386 625 372 l 697 397 l 715 429 m 663 336 l 674 356 q 596 305 672 356 q 517 251 519 254 q 582 281 514 247 q 644 313 632 306 q 663 336 656 321 m 635 282 q 639 297 640 296 q 561 260 638 300 q 485 218 485 221 q 504 208 485 215 l 522 201 l 563 226 q 616 262 604 253 q 635 282 628 271 m 611 239 l 618 251 q 576 225 611 249 q 539 199 540 201 l 540 197 q 575 214 547 203 q 611 239 603 226 m 292 243 q 291 245 293 244 q 285 247 289 246 q 274 247 281 247 q 256 244 258 247 q 261 232 254 242 q 268 226 265 226 q 279 231 271 226 q 292 243 290 238 m 597 208 q 569 203 597 215 l 547 193 l 563 188 q 577 184 574 183 q 588 193 581 185 q 597 208 597 204 m 693 788 q 729 789 719 790 q 747 779 739 788 q 760 753 760 769 q 747 726 760 735 q 703 714 735 717 q 360 554 514 697 q 304 510 314 513 q 273 517 288 506 q 258 547 258 529 q 310 609 258 561 q 411 689 363 657 q 693 788 538 771 z "},"&":{"ha":932,"x_min":96,"x_max":846,"o":"m 347 958 q 542 962 365 964 q 757 956 718 960 q 836 928 824 947 q 846 834 860 899 q 771 621 832 769 q 647 261 686 415 q 618 178 638 221 q 586 128 599 136 q 565 110 574 119 q 538 95 551 97 q 471 96 524 93 q 139 138 208 111 q 96 264 72 163 q 140 404 104 296 q 260 763 215 622 q 278 826 275 813 q 278 844 281 839 q 286 914 263 865 q 347 958 303 949 m 711 886 q 542 891 674 889 q 390 892 410 893 q 374 888 378 890 q 369 875 371 885 q 346 789 364 850 q 321 711 328 728 q 311 683 311 685 q 321 682 311 682 q 343 697 332 682 q 497 817 371 732 q 520 832 508 824 q 540 846 532 840 q 556 856 549 851 q 567 864 563 861 l 571 867 l 549 858 q 417 775 507 840 q 369 742 372 742 q 407 781 356 742 q 560 872 506 851 q 601 882 600 886 q 583 864 603 879 q 529 826 565 851 q 374 714 419 756 l 356 699 l 390 718 q 490 783 428 740 q 632 868 592 853 q 656 876 643 872 q 676 879 668 879 q 683 876 683 879 q 649 849 683 874 q 608 818 604 818 q 624 826 610 818 q 678 857 643 839 q 718 868 721 878 q 717 864 718 867 q 588 775 714 860 q 447 679 464 693 q 444 668 440 669 q 532 722 454 668 q 675 814 633 793 q 732 821 732 842 q 728 811 732 811 q 669 775 721 811 q 568 703 617 739 q 522 665 519 667 q 625 724 528 664 q 729 789 715 782 q 749 836 739 793 q 756 879 758 876 q 711 886 754 883 m 657 867 q 653 867 661 869 q 621 853 643 864 q 483 767 571 831 q 390 707 436 735 l 340 678 l 360 675 q 384 677 375 674 q 429 706 393 681 q 657 867 647 858 m 651 829 q 653 833 656 833 q 542 766 650 833 q 408 681 433 699 l 392 668 l 406 668 q 457 697 418 668 q 571 776 489 722 q 651 829 585 785 m 669 788 q 714 819 717 818 q 665 798 704 819 q 592 753 626 776 q 504 692 553 726 l 467 667 l 482 665 q 506 669 497 664 q 517 677 508 671 q 540 694 525 683 q 567 714 556 706 q 669 788 615 750 m 729 756 q 731 767 732 765 q 676 733 729 768 q 611 686 624 697 q 601 678 606 682 q 596 672 597 675 l 594 669 q 650 699 600 664 q 706 736 682 724 q 729 756 726 747 m 706 713 q 718 729 719 725 q 703 723 717 731 q 668 701 690 715 q 628 671 628 674 q 638 668 628 668 q 672 685 654 668 q 706 713 692 703 m 624 708 q 613 706 653 732 q 592 693 603 701 q 556 667 556 671 q 561 665 556 665 q 592 681 574 664 q 624 708 604 693 m 711 699 l 713 707 q 703 699 711 707 q 703 690 696 690 q 711 699 708 690 m 347 603 q 306 610 328 606 l 290 613 l 278 576 q 269 549 276 571 q 252 503 261 528 q 236 458 243 479 q 207 374 207 376 q 213 378 207 371 q 263 392 226 396 q 313 354 313 388 q 304 331 313 340 q 282 319 296 321 q 226 325 242 318 q 207 353 211 332 q 199 350 206 367 q 183 303 194 339 q 163 219 163 238 l 163 206 l 193 199 q 486 167 264 182 l 526 164 l 549 235 q 607 401 572 308 q 658 544 649 517 l 675 593 l 524 594 q 347 603 371 599 m 289 571 q 310 581 297 581 q 378 575 324 582 q 431 563 425 569 q 436 550 436 553 q 443 554 436 546 q 499 571 457 575 q 535 557 525 567 q 544 533 544 547 q 535 509 544 519 q 494 499 526 499 q 465 501 472 499 q 450 511 458 503 l 438 524 l 431 514 q 414 503 424 506 q 362 504 403 500 q 308 513 321 508 q 282 537 288 519 q 289 571 276 554 m 245 455 q 245 463 245 455 q 255 481 246 471 q 297 490 264 490 q 340 481 331 490 q 349 443 356 463 q 335 425 344 429 q 296 421 325 421 q 254 429 263 421 q 245 455 244 439 m 376 479 q 400 486 386 486 q 432 466 422 486 q 428 428 442 446 q 399 417 418 417 q 371 428 381 417 q 364 454 363 439 q 376 479 365 469 m 494 469 q 510 472 504 472 q 528 467 517 474 q 542 454 540 460 q 531 408 553 425 q 486 408 510 390 q 475 441 472 419 q 494 469 478 463 m 346 367 q 381 377 358 382 q 408 351 404 372 q 405 328 411 342 q 390 311 399 314 q 345 322 363 300 q 346 367 328 343 m 456 354 q 504 354 482 376 q 510 311 522 335 q 471 293 497 288 q 444 319 450 297 q 456 354 439 340 m 385 278 q 440 282 404 281 q 472 281 465 282 q 488 271 479 279 q 496 258 494 264 q 496 239 497 253 q 488 208 493 217 q 465 194 482 199 q 414 193 449 190 q 367 201 379 196 q 346 244 339 217 q 385 278 353 272 z "},"'":{"ha":882,"x_min":111,"x_max":800,"o":"m 506 1083 q 540 1088 513 1090 q 664 1082 563 1085 q 748 1078 733 1081 q 769 1069 763 1076 q 778 1044 778 1061 q 775 956 779 1026 q 764 565 763 765 q 779 254 765 365 q 792 126 788 194 q 800 43 797 64 q 800 19 801 25 q 792 7 799 14 l 779 -4 l 629 -4 q 408 -7 475 -4 q 268 -5 356 -8 q 151 4 181 -1 q 117 43 111 11 q 115 410 122 78 q 111 608 111 596 q 121 628 111 618 q 196 640 132 638 q 278 646 265 643 l 296 647 l 300 681 q 301 763 301 717 q 303 808 301 800 q 314 825 306 815 q 358 831 336 847 q 378 824 365 825 q 435 824 390 822 l 500 825 l 503 849 q 506 943 506 872 q 497 1036 506 1018 q 506 1083 482 1065 m 590 1007 q 590 1010 592 1008 q 585 1011 588 1011 q 577 1008 579 1011 q 575 996 575 1006 l 575 979 l 582 990 q 587 1000 583 994 q 590 1007 590 1006 m 706 996 l 706 1011 l 654 1011 l 603 1011 l 593 994 q 586 979 589 988 q 583 965 583 971 q 586 960 583 960 q 624 981 588 960 q 670 1003 667 1007 q 639 961 674 999 q 583 882 583 899 q 656 943 583 874 q 700 981 694 981 q 706 996 706 981 m 626 961 q 642 981 646 981 q 614 965 638 979 q 585 950 590 950 q 579 926 579 950 l 579 901 l 593 921 q 626 961 604 938 m 674 932 q 690 952 682 943 q 700 967 697 961 l 703 972 q 660 933 700 972 q 599 878 611 888 q 582 869 588 868 q 578 870 579 871 q 577 866 578 869 q 576 858 576 863 q 575 843 575 853 q 571 756 575 813 q 564 628 567 678 l 561 558 l 583 590 q 646 675 603 619 q 689 731 689 728 q 683 728 689 732 q 668 715 678 724 q 647 696 658 706 q 582 643 588 638 q 589 669 579 646 q 610 710 599 693 q 656 767 624 731 q 690 808 690 806 q 653 775 690 810 q 586 726 594 717 q 590 749 582 729 q 607 783 597 768 q 651 836 625 808 q 679 871 679 868 q 674 867 679 872 q 658 853 668 863 q 636 832 647 843 q 579 797 581 779 q 596 832 579 808 q 674 932 613 856 m 688 890 q 699 904 697 899 q 700 926 701 910 l 699 950 l 653 890 q 590 804 588 806 q 633 842 593 803 q 688 890 678 883 m 649 783 l 697 831 l 696 851 l 694 872 l 668 843 q 599 740 593 758 q 649 783 600 736 m 694 772 q 696 788 696 781 q 694 794 696 794 q 661 759 692 794 q 618 706 631 724 q 603 667 592 665 q 650 710 608 671 q 685 747 679 738 q 694 772 692 756 m 438 736 l 454 751 l 415 751 q 375 747 376 751 q 372 732 372 746 q 372 704 371 718 q 374 690 372 690 q 401 708 376 690 q 438 736 425 725 m 669 629 l 693 649 l 692 682 l 690 715 l 649 664 q 572 539 561 551 q 611 574 576 536 q 669 629 649 611 m 493 640 q 491 686 493 686 q 485 679 489 686 q 424 635 479 674 l 367 597 l 367 563 l 367 529 l 397 544 q 451 578 429 564 q 485 594 478 594 q 492 602 490 594 q 493 640 493 610 m 672 539 l 693 558 l 692 593 l 690 628 l 650 583 q 579 481 579 508 q 582 469 579 469 q 619 497 585 469 q 672 539 654 524 m 649 597 q 632 583 649 601 l 617 567 l 633 581 q 649 597 649 596 m 292 479 l 293 572 l 275 572 q 222 569 253 571 l 188 567 l 189 401 q 193 154 190 258 l 196 72 l 249 68 q 304 66 303 64 q 300 107 306 68 q 290 239 294 140 q 286 363 285 338 q 292 479 289 393 m 604 546 q 617 563 617 560 q 599 546 619 567 q 572 531 582 529 l 563 532 l 563 376 l 563 219 l 574 235 q 626 290 583 249 l 668 331 l 624 292 q 575 251 579 251 q 571 258 571 251 q 574 273 571 264 q 581 290 576 282 q 610 332 588 301 l 629 357 l 610 343 q 585 331 592 331 q 583 363 568 331 q 600 386 590 375 l 613 401 l 600 393 q 582 388 588 385 q 576 404 574 392 q 592 437 579 417 q 624 479 604 457 l 647 506 l 628 490 q 596 465 614 481 q 578 460 585 454 q 574 495 567 469 q 604 546 582 521 m 665 461 l 693 488 l 692 514 l 690 540 l 656 501 q 583 397 576 415 q 588 394 585 394 q 665 461 596 394 m 489 465 l 492 515 l 483 511 q 464 499 476 507 q 436 483 451 492 q 374 450 385 453 q 358 385 358 446 l 358 356 l 375 363 q 432 393 394 371 q 481 417 474 417 q 489 465 488 417 m 681 415 q 691 427 689 422 q 692 446 693 432 l 690 467 l 644 419 q 583 340 583 357 q 639 378 583 329 q 681 415 678 414 m 694 388 q 688 408 692 408 q 630 342 681 408 q 579 268 579 276 q 622 303 579 264 q 681 354 667 343 q 694 368 692 364 q 694 388 696 372 m 483 217 q 486 217 483 217 q 489 278 489 217 q 486 339 489 339 q 461 325 482 339 q 399 294 438 311 l 357 276 l 360 235 q 365 171 364 182 l 368 149 l 422 183 q 483 217 478 217 m 701 308 q 697 329 700 321 q 681 326 694 339 q 644 294 672 319 q 579 228 597 250 q 564 192 561 206 l 564 178 l 604 213 q 672 272 658 261 q 701 308 701 297 m 681 190 l 711 219 l 707 250 l 703 279 l 674 247 q 569 108 589 156 q 571 96 564 96 q 615 130 575 96 q 681 190 654 164 m 633 214 l 669 261 q 632 225 668 260 q 579 179 597 192 q 565 166 567 171 q 563 142 563 161 l 563 115 l 578 142 q 633 214 593 168 m 715 179 q 714 188 714 183 q 714 196 714 193 l 713 199 q 656 149 711 200 q 597 90 601 97 q 601 75 586 71 q 675 125 622 82 l 717 160 l 715 179 m 690 101 q 717 143 726 142 q 686 122 710 143 q 636 83 651 94 l 618 69 l 639 69 q 662 74 656 69 q 690 101 668 78 m 489 68 q 493 106 494 72 l 490 139 l 439 107 q 383 74 386 74 q 381 69 381 74 q 431 65 381 65 q 489 68 481 65 m 722 117 q 713 114 722 124 q 696 94 708 110 l 674 67 l 697 89 q 722 117 722 111 m 583 86 q 588 94 589 94 q 578 89 586 94 q 567 85 571 83 q 564 84 565 86 q 561 78 563 82 q 562 71 560 72 q 572 69 564 69 q 582 74 582 71 q 583 86 579 78 m 722 82 q 719 96 722 96 q 703 82 715 96 l 690 69 l 707 69 q 720 72 718 69 q 722 82 722 74 z "},"(":{"ha":1207,"x_min":79,"x_max":1110,"o":"m 529 1031 q 587 1036 560 1047 q 632 989 614 1025 q 656 903 649 953 q 651 843 663 854 q 656 835 646 836 q 682 832 661 833 q 722 831 719 829 q 733 857 724 832 q 790 954 756 911 q 854 1010 825 997 q 912 1010 885 1021 q 953 971 939 1000 q 975 857 975 925 q 979 831 975 833 q 1006 835 983 828 q 1025 836 1025 842 q 1024 832 1025 835 q 1029 821 1022 826 q 1036 797 1036 815 q 1030 745 1036 785 q 1019 693 1024 706 q 1025 688 1018 688 q 1044 689 1029 686 q 1070 689 1064 690 q 1085 681 1076 688 q 1110 665 1099 669 q 1107 542 1142 651 q 889 94 1049 361 q 842 26 854 35 q 796 22 829 17 q 721 26 764 26 q 297 65 585 26 q 159 90 196 79 q 110 119 122 100 q 105 157 99 136 q 131 189 111 178 q 154 208 146 199 l 163 221 l 140 228 q 104 243 115 236 q 84 266 92 250 q 79 293 76 282 q 125 364 81 303 q 278 746 244 529 q 282 814 288 807 q 276 834 276 821 q 281 856 276 847 q 302 869 288 867 q 357 865 317 871 q 419 861 411 860 q 431 881 426 863 q 472 972 442 926 q 529 1031 501 1017 m 583 890 q 569 949 579 926 l 560 969 l 547 953 q 526 924 535 938 q 508 882 518 910 q 500 851 497 854 q 542 844 501 847 q 590 839 578 842 q 595 839 594 838 q 593 844 596 840 q 583 890 589 853 m 901 863 q 894 919 900 897 q 883 942 888 942 q 843 903 871 942 q 817 860 832 889 q 801 828 801 832 q 840 825 801 825 q 890 828 878 825 l 903 831 l 901 863 m 394 788 q 378 790 388 789 l 367 792 q 358 787 360 793 q 351 751 356 781 l 349 732 l 375 757 q 406 779 404 786 q 394 763 407 776 l 382 749 l 397 758 q 414 776 413 767 q 412 784 415 782 q 394 788 408 786 m 590 767 q 506 775 528 772 q 491 776 493 776 q 489 768 489 775 q 492 759 489 761 q 514 757 496 757 q 565 753 540 757 q 589 746 589 750 q 499 683 589 742 q 404 619 413 628 q 429 632 397 613 q 508 683 458 650 q 599 739 574 726 q 653 753 653 763 q 588 704 651 747 q 474 629 524 661 q 419 585 439 606 l 425 589 q 442 598 432 592 q 463 611 451 604 q 489 628 474 618 q 519 646 504 638 q 660 729 610 703 q 674 737 667 733 q 686 744 681 740 q 695 750 692 747 q 701 754 699 753 q 703 757 703 756 q 681 760 700 760 q 590 767 663 760 m 415 751 q 382 738 415 760 q 350 721 354 721 q 346 711 346 721 q 347 704 346 704 q 357 710 349 704 q 415 751 415 747 m 835 749 q 808 753 833 750 q 796 754 800 754 q 789 754 792 754 q 786 753 786 754 q 786 749 786 751 q 782 739 789 743 q 775 726 775 738 q 778 720 775 719 q 806 733 782 721 l 835 749 m 957 749 q 932 756 957 756 q 902 750 914 756 q 851 719 890 744 q 785 681 794 685 q 776 675 776 678 q 815 692 778 674 q 881 719 854 711 q 922 729 901 728 q 946 725 943 731 q 858 663 951 718 q 832 644 832 646 l 836 646 q 845 649 839 647 q 858 654 851 651 q 901 665 879 663 q 925 663 924 668 q 874 628 926 658 q 760 553 756 558 q 840 586 763 547 q 919 621 911 621 q 926 622 926 621 l 942 683 q 957 749 957 744 m 489 740 q 490 740 489 740 q 501 744 490 739 q 506 750 513 750 q 498 749 503 750 q 490 744 493 747 q 489 740 488 742 m 826 721 q 867 750 867 747 q 818 729 858 750 q 775 699 775 708 q 776 690 775 690 q 826 721 779 690 m 538 736 q 536 743 550 743 q 508 736 524 743 q 489 718 489 728 l 489 707 l 510 719 q 538 736 529 731 m 703 732 q 701 742 704 742 q 575 658 693 742 q 519 617 518 618 q 604 667 521 615 q 685 714 675 710 q 703 732 700 721 m 419 724 q 394 724 419 739 q 375 711 388 719 q 340 676 343 688 q 340 667 338 667 q 383 692 343 667 q 419 724 419 714 m 551 729 q 553 733 556 733 q 519 715 550 733 q 479 688 488 696 q 463 678 467 678 q 403 643 460 678 q 332 606 347 608 q 333 592 304 599 q 361 600 347 588 q 461 669 378 614 q 551 729 546 725 m 599 725 q 597 726 606 731 q 494 664 575 717 q 403 606 440 628 q 374 581 374 585 q 394 580 386 576 q 421 600 403 583 q 490 651 446 625 q 599 725 564 694 m 922 718 l 914 721 q 814 681 889 719 q 785 664 790 669 q 779 650 779 658 q 760 621 779 631 q 724 621 740 611 q 690 611 717 626 q 631 578 660 593 q 615 567 622 572 q 603 560 607 563 l 599 557 q 633 556 599 556 l 665 554 l 710 582 q 922 718 914 711 m 694 697 q 701 707 703 701 q 686 703 700 710 q 649 683 672 697 q 594 650 625 669 q 519 606 571 635 q 465 578 468 578 q 500 614 451 578 l 544 650 q 479 610 540 649 q 440 585 456 596 q 426 572 425 574 q 465 567 428 569 l 501 564 l 517 578 q 598 634 526 586 q 694 697 669 682 m 389 669 q 412 688 403 679 q 419 697 421 696 q 382 681 417 701 q 340 653 347 660 q 331 633 333 647 l 328 618 l 342 632 q 389 669 360 649 m 690 667 q 701 682 704 675 q 694 685 700 688 q 606 628 686 681 q 536 578 532 579 q 550 585 538 578 q 621 626 556 589 q 690 667 643 639 m 439 676 q 435 683 440 681 q 397 663 429 685 q 351 628 365 642 l 343 619 l 354 625 q 402 653 368 632 q 439 676 436 674 m 707 653 l 704 664 q 615 613 664 640 l 528 563 l 549 558 q 570 559 561 557 q 601 574 579 561 q 671 617 635 592 q 702 640 696 633 q 707 653 708 646 m 838 615 q 900 658 897 651 q 888 657 901 661 q 879 654 883 656 q 756 590 842 640 q 699 558 713 565 l 686 551 l 710 551 q 749 561 733 551 q 838 615 760 569 m 1050 607 q 1047 615 1053 615 q 1015 614 1043 615 l 999 611 l 986 572 q 843 260 939 418 q 814 206 814 211 q 803 190 814 200 q 777 183 793 183 q 679 183 761 182 q 335 204 496 189 q 267 208 292 208 l 243 208 l 222 181 l 203 153 l 229 149 q 276 142 254 144 q 374 128 293 139 q 610 103 479 114 q 786 96 742 93 l 807 97 l 847 167 q 931 322 883 229 q 1000 467 978 414 q 1050 607 1025 524 m 922 610 q 920 612 921 611 q 910 608 919 613 q 890 599 901 604 q 856 582 878 593 q 807 551 807 556 q 835 561 818 551 q 888 590 850 571 q 922 610 922 608 m 915 586 q 914 594 917 594 q 899 586 911 594 l 886 578 l 899 578 q 915 586 913 578 m 897 560 l 911 568 l 899 568 q 871 560 885 568 l 856 551 l 868 551 q 897 560 882 551 m 322 519 q 297 525 299 525 q 288 503 296 525 q 267 457 279 479 l 254 435 l 275 432 q 335 428 286 431 l 374 425 l 388 461 q 401 500 401 499 q 372 508 401 503 q 322 519 346 513 m 579 483 q 549 485 574 483 q 513 489 524 488 l 478 492 l 464 457 l 451 422 l 476 419 q 547 417 506 417 l 592 417 l 599 433 q 608 465 604 447 l 611 481 l 579 483 m 869 468 l 875 482 l 782 482 q 686 476 689 482 q 672 414 669 417 q 750 408 674 413 q 832 401 826 404 q 843 412 836 400 q 869 468 850 424 m 307 357 q 250 363 289 358 l 217 365 l 192 332 q 174 294 168 297 q 213 287 179 292 q 264 282 247 282 q 283 287 278 282 q 307 318 289 292 l 332 354 l 307 357 m 757 335 q 674 339 676 339 l 636 340 l 617 313 q 589 274 599 285 l 581 261 l 626 260 q 714 256 671 256 l 756 256 l 778 294 l 801 332 l 757 335 z "},")":{"ha":1138,"x_min":68,"x_max":1056,"o":"m 96 769 q 99 776 96 769 q 126 786 103 783 q 157 788 150 789 q 581 785 168 785 q 994 788 993 785 q 1014 790 999 790 q 1036 786 1029 789 q 1050 761 1043 782 q 1056 743 1056 749 q 1050 724 1056 738 q 1040 476 1043 706 q 1028 200 1036 246 q 1010 146 1019 156 q 899 136 992 129 q 689 136 847 140 q 188 140 292 126 q 138 149 149 146 q 118 161 126 151 q 93 183 103 175 q 81 215 81 194 q 74 244 81 236 q 68 268 69 251 q 71 289 67 285 q 78 463 75 293 q 85 697 81 639 q 96 769 89 756 m 972 710 q 565 713 972 711 l 160 715 l 158 694 l 157 672 l 235 615 q 538 426 465 446 q 557 426 549 424 q 588 439 565 428 q 625 461 622 454 q 644 473 626 468 q 792 564 663 478 q 926 651 904 639 q 958 661 947 664 q 968 663 967 660 q 971 685 969 665 l 972 710 m 971 504 l 969 594 q 915 558 968 594 q 858 519 861 521 l 883 529 q 936 539 931 550 q 879 478 936 524 q 817 419 814 424 q 821 421 818 418 q 867 447 835 428 q 918 474 903 468 q 956 471 951 483 q 921 436 957 467 q 869 392 888 411 q 860 378 861 382 q 864 372 860 375 q 901 386 871 368 q 951 410 933 404 l 971 414 l 971 504 m 171 549 l 185 563 l 167 574 l 150 586 l 150 560 q 153 533 150 533 q 171 549 157 533 m 181 529 q 203 547 203 543 q 200 550 203 549 q 169 536 192 554 q 151 514 149 517 q 181 529 154 511 m 215 529 q 214 538 219 539 q 185 521 208 536 q 151 500 158 504 q 147 483 144 497 l 147 468 l 179 494 q 215 529 210 519 m 922 529 q 917 533 924 535 q 864 510 908 532 q 785 464 821 488 l 744 438 l 765 426 q 817 399 778 419 l 849 382 l 864 399 q 911 442 879 415 q 938 468 944 467 q 861 433 924 471 q 806 417 807 401 q 892 500 806 429 q 922 529 919 522 m 246 517 q 224 525 224 531 q 185 488 224 521 q 146 446 146 454 q 147 439 146 439 q 221 478 161 439 l 263 504 l 246 517 m 340 450 q 306 475 335 454 l 278 494 l 264 478 q 200 424 250 461 q 147 381 149 385 q 151 378 143 374 q 185 401 158 382 q 299 467 267 458 q 314 462 311 469 q 307 438 317 454 l 299 421 l 322 433 q 340 450 340 446 m 256 482 q 228 472 275 503 q 219 467 224 469 q 165 435 183 442 q 149 427 151 431 q 146 411 146 424 l 146 394 l 163 406 q 256 482 240 464 m 293 433 q 306 456 306 453 q 303 460 306 460 q 190 394 288 460 q 153 366 161 374 q 146 350 146 358 l 146 338 l 160 346 q 226 383 164 349 q 272 410 260 401 q 293 433 285 419 m 961 401 q 948 399 961 404 q 918 385 935 394 q 892 369 901 376 l 882 361 l 893 356 q 908 354 901 351 q 933 375 914 357 q 961 401 961 400 m 428 396 q 393 386 428 404 q 319 325 368 374 l 269 276 l 326 322 q 406 379 382 367 q 428 396 428 392 m 703 375 q 668 390 681 386 q 624 364 650 397 q 574 315 610 346 q 511 257 510 264 l 514 258 q 571 294 532 269 q 644 340 603 317 q 690 364 686 364 q 693 350 693 364 q 664 303 693 335 l 633 272 l 665 292 q 726 329 699 314 l 758 346 l 744 356 q 703 375 731 363 m 971 381 q 969 394 971 394 q 940 369 967 394 q 919 340 911 343 q 949 351 926 338 q 967 366 963 361 q 971 381 971 371 m 456 381 q 440 385 444 386 q 432 372 436 385 q 400 331 426 358 l 374 303 l 419 336 q 467 374 465 369 q 456 381 467 376 m 424 372 q 426 379 425 376 q 426 382 428 382 q 365 341 419 382 q 262 257 311 300 q 215 211 213 214 q 351 205 221 206 q 636 208 482 204 l 825 213 l 842 232 q 867 274 871 265 q 793 247 864 274 q 706 225 706 215 q 751 274 706 228 q 797 325 797 321 q 783 335 797 328 q 766 337 774 339 q 735 322 758 335 q 646 269 696 303 q 579 238 579 225 q 607 264 579 242 q 658 313 633 286 q 683 344 683 339 q 560 278 683 357 q 464 222 469 218 q 483 245 463 224 q 533 293 504 267 q 581 335 563 319 q 614 365 614 361 l 611 365 q 601 363 607 365 q 588 358 594 361 q 482 294 560 349 q 368 221 376 221 q 375 231 367 221 q 399 256 383 240 q 433 290 415 272 l 504 360 l 492 364 q 466 359 482 369 q 363 282 450 349 q 272 225 272 214 q 315 265 274 229 q 424 372 411 351 m 263 285 q 342 358 342 357 q 340 360 342 360 q 276 327 338 360 q 190 281 215 294 q 156 257 163 263 q 150 242 150 251 q 154 223 150 228 q 171 215 158 218 q 194 224 181 214 q 263 285 207 233 m 536 349 q 531 352 536 350 q 517 356 526 354 q 467 310 513 357 q 436 274 432 272 q 497 317 454 288 q 536 349 535 344 m 971 350 q 949 342 971 356 q 938 333 939 336 q 943 326 938 331 q 965 335 958 315 q 971 350 971 349 m 863 289 q 832 307 861 290 l 807 319 l 764 275 l 722 231 l 751 242 q 826 268 774 250 q 863 289 863 285 m 928 250 q 879 274 882 278 q 878 267 879 272 q 857 235 875 257 q 844 211 840 214 q 869 218 849 208 q 926 218 929 249 q 926 215 926 217 q 926 206 925 207 q 938 204 928 204 q 954 211 951 204 q 955 231 960 224 q 928 250 950 238 m 918 217 q 913 225 918 225 q 890 218 907 225 l 872 210 l 896 208 q 915 210 911 208 q 918 217 918 211 z "},"*":{"ha":1243,"x_min":46,"x_max":1163,"o":"m 269 653 q 315 652 288 656 q 356 643 343 649 q 401 622 397 625 q 453 585 428 610 q 492 536 479 561 l 506 508 l 681 506 q 1000 504 829 503 l 1144 506 l 1153 496 q 1162 467 1163 483 q 1150 443 1161 451 q 1131 433 1139 433 q 1124 422 1125 433 q 1122 354 1122 411 q 1117 271 1122 286 q 1089 253 1113 256 q 1053 247 1071 251 q 993 268 1015 239 l 982 283 l 967 265 q 940 244 951 249 q 916 244 929 240 q 894 256 903 247 q 879 386 881 272 l 879 433 l 697 433 l 514 433 l 513 422 q 371 256 485 296 q 303 246 346 247 q 228 251 261 244 q 124 308 165 265 q 78 408 83 350 q 74 431 76 425 q 64 440 71 436 q 46 474 46 450 q 56 497 46 486 q 78 508 67 508 q 88 513 83 508 q 100 532 93 518 q 170 612 124 579 q 269 653 217 644 m 332 571 q 235 567 272 586 q 153 465 169 535 q 182 353 136 394 q 293 319 221 319 q 335 322 324 319 q 364 331 347 324 q 407 365 388 343 q 435 410 426 386 q 440 436 442 435 q 433 440 438 438 q 424 441 428 442 q 419 439 419 440 q 401 407 419 433 q 368 368 382 381 q 286 328 335 336 q 204 344 238 321 q 176 399 185 358 q 179 463 167 439 q 208 498 188 476 q 236 519 229 519 q 274 531 243 519 q 351 541 314 546 q 401 513 388 536 q 417 506 408 500 q 421 513 422 510 q 411 526 419 515 q 332 571 383 557 m 371 525 q 281 525 335 544 q 186 439 196 494 q 226 360 175 383 q 300 356 257 346 q 376 399 343 367 q 403 463 403 422 q 371 525 403 510 m 351 365 q 350 367 357 369 q 328 357 344 365 q 267 344 304 344 q 213 356 231 344 l 211 357 l 199 363 q 204 357 200 361 q 276 336 228 331 q 319 347 294 338 q 351 365 343 357 z "},"+":{"ha":1308,"x_min":7,"x_max":1226,"o":"m 211 690 q 378 675 300 713 q 476 592 443 644 l 494 563 l 758 567 q 1194 564 1171 572 q 1217 548 1208 560 q 1226 524 1226 536 q 1200 483 1226 511 q 1099 401 1181 465 q 1000 326 1017 336 q 942 346 981 314 l 917 365 l 897 343 q 876 324 882 328 q 856 321 869 321 q 796 336 833 321 l 758 351 l 742 342 q 713 317 724 331 q 665 299 692 293 q 643 309 651 301 q 625 339 635 317 q 610 364 614 364 q 594 363 608 364 l 582 360 l 583 322 q 583 290 585 297 q 572 274 582 283 q 557 263 564 265 q 528 261 550 261 q 498 259 504 261 q 485 247 492 257 q 423 190 460 215 q 350 157 386 165 q 169 167 261 136 q 7 312 49 208 q 22 533 -35 415 q 81 613 43 575 q 211 690 139 671 m 290 615 q 260 625 276 625 q 221 617 246 625 q 186 603 196 610 q 190 597 178 597 q 214 596 196 596 q 318 571 279 596 q 328 568 328 564 q 314 591 328 574 q 290 615 300 608 m 347 608 q 311 622 326 619 l 296 626 l 314 606 q 340 567 331 585 q 358 540 350 549 q 385 496 376 524 q 389 442 394 468 q 368 399 383 421 q 346 360 351 376 q 287 290 325 310 q 201 283 249 269 q 108 328 126 308 q 96 355 99 339 q 88 400 93 371 q 79 440 81 426 q 78 432 78 440 q 82 372 76 408 q 85 346 85 357 q 83 335 86 335 q 77 344 79 335 q 69 393 75 353 l 64 440 l 65 397 q 76 335 67 357 q 111 286 85 313 q 214 229 151 246 q 331 228 276 214 q 418 283 386 243 q 442 308 438 308 q 476 354 446 308 q 506 407 506 400 q 515 428 506 417 q 529 449 526 440 q 464 386 535 465 q 407 318 429 347 q 363 265 367 265 q 371 308 349 265 q 432 397 386 335 q 485 471 481 463 q 422 411 489 479 q 351 344 356 342 q 347 353 346 347 q 354 358 349 358 q 421 424 360 358 l 483 488 l 463 497 q 442 511 450 504 q 424 538 435 518 q 347 608 396 585 m 229 588 q 196 588 225 593 q 151 575 167 583 q 112 533 132 565 q 88 476 92 501 q 89 456 85 456 q 96 442 93 456 q 103 439 99 429 q 111 461 104 443 q 211 578 144 556 q 229 588 231 583 m 310 560 q 257 575 282 572 q 203 564 231 578 q 139 501 164 544 q 117 452 126 481 q 107 410 107 424 q 133 361 107 383 q 158 347 142 354 q 175 340 174 339 q 172 343 178 343 q 148 360 164 343 q 129 392 132 378 q 144 479 114 440 q 171 501 157 496 q 215 511 185 507 q 288 493 260 515 q 317 429 317 471 q 289 361 317 390 q 279 347 276 347 q 309 367 286 347 q 342 399 332 386 q 353 422 351 414 q 353 467 354 431 q 344 531 351 515 q 310 560 336 547 m 382 453 q 381 485 385 468 q 369 510 376 501 l 364 515 q 365 508 364 514 q 365 429 375 465 q 361 404 358 406 l 368 414 q 382 453 379 435 m 1094 492 q 1092 499 1101 497 q 1063 499 1086 499 l 1022 499 l 990 465 q 960 431 958 432 q 1006 456 961 429 q 1068 483 1051 483 q 1094 492 1088 485 m 810 492 q 742 449 810 500 q 681 394 676 399 q 707 406 683 393 q 743 421 735 421 q 781 451 753 421 q 810 492 810 482 m 842 485 l 856 494 l 838 494 q 822 492 825 494 q 817 483 818 490 q 792 447 813 471 l 778 432 q 810 458 781 433 q 842 485 829 475 m 888 492 q 856 482 888 504 q 850 478 853 481 q 807 444 831 464 q 783 421 783 424 q 801 413 783 418 q 819 410 815 408 q 832 419 824 411 q 888 492 888 486 m 925 469 l 963 494 l 931 494 q 901 493 907 494 q 894 486 896 492 q 875 458 892 476 q 851 428 849 428 q 867 435 854 428 q 925 469 903 457 m 979 467 q 996 494 1004 494 q 972 488 986 494 q 948 474 965 483 q 916 455 931 464 q 901 445 901 446 q 906 445 901 444 q 915 446 910 446 q 940 443 931 447 q 953 442 947 439 q 979 467 958 446 m 582 467 l 608 490 l 553 490 q 505 489 513 490 q 497 482 497 488 q 424 369 497 471 q 382 307 390 322 l 381 306 l 378 297 q 413 340 381 299 l 414 342 l 415 343 q 487 425 442 376 q 538 474 532 474 q 538 458 542 474 q 538 445 536 447 q 546 443 539 443 q 582 467 556 443 m 613 464 q 620 477 617 471 q 625 486 624 483 l 626 490 q 600 470 625 490 q 569 443 575 450 l 561 433 l 579 435 q 598 440 593 436 q 613 464 603 444 m 651 463 l 681 490 l 660 490 l 639 490 l 625 465 q 610 436 610 439 q 651 463 610 425 m 708 486 q 698 489 704 492 q 672 469 692 486 q 641 440 643 446 q 653 425 639 433 l 669 414 l 682 433 q 708 486 713 478 m 778 486 l 764 490 q 747 490 757 490 q 717 486 714 490 q 710 464 718 482 q 692 429 703 446 q 689 422 686 421 q 728 449 693 424 q 778 486 776 486 m 1069 475 q 1014 450 1071 485 q 967 422 967 424 q 976 411 961 418 q 983 410 981 408 q 1030 441 990 411 q 1069 475 1069 471 m 246 431 q 225 439 246 439 q 202 435 207 439 q 197 421 197 432 q 222 404 197 404 q 238 413 231 404 q 246 431 246 421 m 865 414 q 878 428 874 424 l 883 433 q 855 418 878 432 q 832 403 832 404 q 838 397 832 401 q 865 414 844 396 m 168 332 q 128 356 146 339 l 110 371 l 118 357 q 143 326 125 343 q 160 313 154 315 q 188 311 167 311 q 243 321 214 311 q 269 332 268 329 q 251 331 271 335 q 168 332 210 319 m 492 332 q 510 336 508 335 q 510 354 511 338 l 508 371 l 492 350 l 474 329 l 492 332 m 331 347 l 336 360 q 314 346 333 360 q 265 319 294 332 q 214 306 235 307 q 206 292 172 300 q 278 296 244 281 q 331 347 311 311 m 126 331 q 110 350 110 349 q 107 349 107 353 q 115 334 107 343 q 129 321 122 325 q 133 322 138 317 q 126 331 131 325 z "},",":{"ha":733,"x_min":194,"x_max":651,"o":"m 390 993 q 481 997 419 997 q 563 988 542 996 q 638 867 622 960 q 651 571 657 758 q 597 165 642 253 q 528 107 579 131 q 419 82 478 83 q 342 107 368 82 q 322 137 326 119 q 310 206 317 154 q 304 449 304 257 q 310 679 304 640 q 353 817 328 794 q 432 839 379 840 q 531 757 506 839 q 535 485 543 714 q 530 398 532 414 q 521 374 528 382 q 496 363 511 363 q 469 372 481 363 q 462 393 463 379 q 463 479 461 407 q 465 653 465 567 q 456 749 465 732 q 446 763 450 761 q 426 765 442 765 q 401 760 406 765 q 382 667 393 746 q 376 421 374 608 q 388 174 378 233 l 390 156 l 431 157 q 496 172 471 160 q 531 199 522 185 q 578 579 571 260 q 551 904 583 854 q 526 922 543 918 q 471 926 508 926 q 314 889 350 924 q 274 747 288 864 q 269 211 258 625 l 272 65 l 261 54 q 225 44 246 39 q 200 71 204 50 q 194 310 199 82 q 200 742 188 608 q 250 928 213 876 q 305 969 267 951 q 390 993 343 986 z "},"-":{"ha":878,"x_min":185,"x_max":797,"o":"m 407 886 q 496 893 439 894 q 581 882 553 892 q 772 713 711 835 q 797 615 797 665 q 763 483 797 557 q 642 275 729 408 q 544 122 567 161 q 514 79 525 85 q 475 83 492 67 q 460 94 469 89 q 433 122 451 99 q 415 151 415 146 q 328 274 415 164 q 227 413 257 364 q 185 511 197 463 q 221 741 154 629 q 407 886 288 853 m 558 813 q 501 822 528 821 q 472 822 482 825 q 433 806 461 819 q 321 736 360 769 l 308 725 l 324 726 q 432 767 340 731 q 538 804 524 804 q 551 800 551 806 q 529 786 551 793 q 369 703 479 768 q 290 651 290 656 q 308 657 289 650 q 364 686 336 669 q 481 726 449 732 q 497 731 497 724 q 506 738 497 738 q 550 756 511 738 q 601 779 583 772 l 617 785 l 601 794 q 558 813 586 803 m 397 799 q 424 814 418 810 l 424 815 q 390 801 418 814 q 359 783 378 794 q 328 760 340 771 q 317 747 315 750 q 342 763 318 746 q 397 799 365 782 m 639 768 q 617 775 629 778 q 558 749 604 772 l 517 728 l 543 732 q 600 744 560 733 q 644 758 640 754 q 639 768 646 760 m 411 738 l 469 772 q 408 749 465 772 q 319 717 356 725 q 291 708 297 713 q 278 692 285 704 q 249 604 256 654 l 246 590 l 268 607 q 333 649 285 619 q 378 679 382 678 q 326 657 375 681 q 263 629 268 629 q 260 638 258 629 q 306 674 261 644 q 411 738 350 704 m 661 744 q 650 749 658 750 q 610 738 642 747 q 550 725 569 725 q 531 721 532 725 q 544 704 526 717 l 561 690 l 611 715 q 661 744 663 739 m 683 719 q 671 733 674 733 q 618 708 664 732 q 571 681 572 683 q 635 686 568 668 q 654 693 644 689 l 692 706 l 692 708 q 688 713 690 710 q 683 719 686 717 m 703 692 q 653 683 699 699 q 603 669 626 674 l 585 668 l 596 646 q 607 593 607 622 q 577 507 608 542 q 494 467 546 472 q 443 446 479 464 q 389 413 407 428 l 378 403 l 389 406 q 478 441 407 411 q 574 483 549 471 q 690 533 647 522 q 711 548 706 538 q 721 586 717 558 l 724 608 l 671 582 q 625 558 625 561 q 632 557 625 557 q 651 550 651 554 q 633 547 651 546 q 611 557 613 549 q 616 566 610 561 q 639 578 622 571 q 710 612 699 604 q 722 628 722 619 q 715 638 722 638 q 675 632 707 639 q 615 631 611 618 q 661 661 618 638 q 703 692 706 688 m 714 665 q 707 676 710 678 q 686 667 704 676 q 652 647 668 657 q 638 635 636 636 q 679 641 640 633 q 718 651 718 649 q 714 665 718 656 m 353 640 q 354 650 358 650 q 342 643 351 650 q 299 616 314 626 q 274 599 283 606 q 261 590 264 593 l 260 588 q 306 607 263 586 q 353 640 347 629 m 507 640 q 481 651 490 651 q 438 631 460 651 q 413 590 415 611 q 431 551 408 567 q 486 539 453 536 q 522 557 508 542 q 536 600 540 576 q 507 640 532 624 m 317 594 q 338 610 338 608 l 307 597 q 299 594 303 596 q 254 576 261 576 q 246 573 247 575 q 249 563 244 571 q 271 567 250 556 q 317 594 290 576 m 324 582 q 340 588 339 586 q 340 594 342 589 q 326 590 339 597 q 313 580 313 582 q 324 582 313 578 m 342 574 q 307 565 342 579 q 293 560 301 564 q 259 544 265 549 q 254 533 253 540 q 299 435 260 494 q 372 336 319 403 q 429 269 425 269 q 522 317 435 269 q 622 378 611 363 q 628 394 632 393 q 515 344 617 397 q 428 317 428 299 q 446 336 428 321 q 486 365 464 351 q 582 418 517 385 q 658 461 657 456 q 554 417 663 468 q 406 356 424 356 q 399 357 400 356 q 401 364 399 358 q 551 451 413 385 q 676 519 676 513 q 594 483 672 521 q 458 423 536 456 q 369 390 379 390 q 363 396 363 390 q 418 443 363 408 q 449 464 450 461 q 385 438 443 464 q 317 419 317 406 q 318 422 317 421 q 335 439 319 429 q 369 465 347 447 q 392 486 390 482 q 386 492 393 489 q 340 475 379 494 q 294 457 301 456 q 329 504 271 467 q 336 508 332 506 q 351 519 344 514 q 356 525 357 524 q 315 513 351 535 q 269 501 275 488 q 311 550 263 518 q 342 574 342 569 m 346 549 q 311 539 346 563 q 275 507 274 513 q 313 521 276 501 q 346 549 346 540 m 689 493 q 693 514 701 515 q 686 511 690 514 q 560 446 676 503 q 432 378 444 388 l 421 369 l 444 378 q 556 428 475 390 q 661 474 642 468 q 689 493 679 479 m 369 506 q 333 496 367 517 q 296 464 299 472 l 300 465 q 346 489 321 475 q 369 506 371 503 m 418 476 q 397 479 397 485 q 369 454 397 475 q 356 442 364 449 q 344 433 349 436 q 339 428 340 429 l 385 447 q 407 458 396 453 l 432 471 l 418 476 m 664 446 q 665 451 667 451 l 589 413 q 450 328 468 350 q 447 323 446 324 q 456 325 447 322 q 531 363 467 331 q 618 401 592 393 q 642 414 635 407 q 664 446 649 421 m 583 321 l 588 329 l 510 294 l 432 260 l 439 249 q 450 239 446 239 q 517 276 456 239 q 583 321 579 314 m 557 281 q 563 290 564 290 q 510 262 560 290 q 456 229 460 233 l 468 232 q 474 235 471 233 q 557 281 546 264 m 531 240 l 540 256 q 504 239 539 256 q 465 219 468 221 q 467 210 460 219 l 472 200 l 497 213 q 531 240 521 226 m 500 192 l 506 204 q 492 199 503 203 q 481 193 482 194 q 483 185 479 192 q 489 178 486 178 q 500 192 492 178 z "},".":{"ha":890,"x_min":171,"x_max":806,"o":"m 400 879 q 485 883 433 886 q 569 871 536 881 q 726 788 664 842 q 806 664 789 733 q 774 504 824 588 q 697 417 750 463 q 599 351 643 371 q 575 338 575 342 q 551 279 575 335 q 485 108 485 126 q 473 88 485 97 q 447 78 461 78 q 423 87 435 78 q 411 106 411 96 q 374 228 411 113 l 335 346 l 314 353 q 231 401 271 368 q 174 469 192 433 q 172 681 125 565 q 329 853 218 796 q 400 879 368 872 m 413 792 q 478 812 469 808 q 475 815 486 815 q 428 810 458 815 q 338 772 383 801 q 265 704 292 742 l 253 683 l 269 697 q 406 764 306 729 q 454 785 457 782 q 394 768 450 786 q 329 756 329 750 q 413 792 333 771 m 561 797 q 486 803 519 811 l 474 800 l 486 799 q 499 790 500 796 q 485 781 499 783 q 366 740 432 767 q 281 694 300 713 q 276 682 271 682 q 324 697 286 681 q 383 721 369 715 q 406 733 406 729 q 417 749 406 739 q 488 754 435 767 q 549 761 510 750 q 596 772 588 772 q 606 776 606 772 q 561 797 606 782 m 631 765 q 621 768 633 768 q 582 761 606 767 q 525 743 526 749 q 580 753 531 742 q 631 765 629 764 m 657 750 q 582 744 649 760 l 539 736 l 557 724 q 601 664 589 701 q 607 654 606 656 q 611 657 608 653 q 676 690 619 671 q 704 703 707 700 q 675 699 703 706 q 618 690 644 690 q 589 699 593 690 q 591 714 583 708 q 631 732 599 719 q 646 738 640 735 q 655 742 651 740 q 658 746 658 744 q 657 750 658 747 m 686 725 q 671 738 674 738 q 632 722 660 735 q 593 707 594 707 q 596 703 592 707 q 667 706 607 692 l 697 713 l 686 725 m 358 694 l 361 703 l 329 690 q 272 672 300 678 q 242 661 249 669 q 222 589 228 642 l 218 564 l 250 586 q 310 628 289 614 q 336 652 336 644 q 301 642 336 660 q 246 625 246 617 q 273 642 246 628 q 315 663 300 657 q 340 676 325 665 q 358 694 354 686 m 724 678 q 713 693 717 692 q 673 681 707 693 q 629 661 639 668 q 668 651 601 643 q 681 653 674 651 q 731 661 729 660 q 724 678 732 663 m 511 665 q 480 679 493 678 q 447 671 467 681 q 407 633 413 656 q 429 596 401 610 q 463 592 442 589 q 504 606 481 594 q 532 625 528 617 q 511 665 542 644 m 675 622 q 721 650 721 646 q 710 649 722 651 q 663 642 696 644 q 619 643 629 640 l 606 646 l 606 628 q 594 590 606 610 q 592 575 588 575 q 608 581 603 579 q 619 588 619 582 q 675 622 619 594 m 735 615 q 736 635 736 628 l 736 642 q 679 614 735 642 q 633 588 633 590 q 643 586 632 586 q 679 586 663 585 q 696 585 693 586 q 692 581 699 582 q 668 575 683 576 q 497 521 626 571 q 435 493 469 508 q 376 467 400 478 l 356 454 q 450 482 357 451 q 692 546 624 538 q 713 550 708 547 q 724 568 718 553 q 735 615 733 588 m 335 617 q 333 633 335 633 l 293 606 q 250 575 253 578 q 251 574 249 574 q 275 581 257 574 q 321 597 304 593 q 334 601 332 599 q 335 617 336 604 m 319 581 q 326 590 335 590 q 296 581 318 589 q 224 538 222 551 q 226 533 224 535 q 264 549 228 531 q 319 581 300 568 m 349 572 q 340 581 343 581 q 326 572 338 581 q 275 544 313 564 q 233 518 232 522 q 244 518 233 515 q 300 540 251 521 q 353 563 349 560 q 349 572 354 563 m 367 550 q 356 554 361 556 q 318 539 351 553 q 258 514 279 521 q 236 504 236 507 q 250 485 236 501 q 302 440 269 460 q 356 419 335 419 q 379 417 372 421 q 419 428 388 413 q 571 482 453 443 q 642 506 617 497 q 684 521 668 514 q 703 531 700 528 q 704 536 707 533 q 613 519 699 542 q 418 461 526 497 q 329 436 332 433 q 338 450 326 439 q 440 506 354 468 l 471 521 q 396 497 467 521 q 274 474 283 458 q 285 492 269 479 q 329 519 301 504 q 369 544 368 539 q 367 550 369 546 m 425 521 q 399 529 418 521 q 382 535 386 535 q 364 529 378 535 q 315 500 343 518 q 296 478 278 476 q 340 488 307 478 q 425 521 429 514 m 674 494 l 689 511 q 668 506 686 511 q 604 483 654 499 q 535 462 574 475 q 469 439 496 449 l 442 428 q 471 435 443 425 q 570 461 501 444 q 647 478 639 478 q 674 494 657 478 m 633 458 q 640 468 646 468 q 567 452 628 468 q 449 418 506 436 q 394 397 393 400 l 408 354 q 424 318 421 317 q 464 335 426 319 q 500 353 490 344 q 510 374 510 363 q 500 372 510 375 q 474 364 490 369 q 436 350 457 358 q 428 351 428 347 q 478 381 428 354 q 583 431 529 407 q 633 458 621 447 m 494 329 q 496 336 497 335 q 465 325 494 338 l 444 315 q 474 319 457 317 q 494 329 492 322 m 485 310 q 476 312 483 313 q 449 307 469 311 q 430 300 432 303 q 432 285 428 297 l 436 272 l 457 285 q 485 310 485 300 m 468 272 q 469 280 472 279 q 453 271 467 281 q 440 258 435 261 q 456 260 444 256 q 468 272 467 265 m 458 249 q 451 250 458 254 q 446 246 447 249 q 449 235 443 236 q 454 239 451 235 q 458 249 458 244 z "},"/":{"ha":801,"x_min":194,"x_max":719,"o":"m 408 853 q 463 852 419 856 q 532 844 507 849 q 633 803 578 833 q 706 747 688 774 q 719 713 715 733 q 717 678 722 692 q 667 614 710 664 q 606 544 626 568 l 588 521 l 600 510 q 633 433 626 485 q 590 328 644 363 q 439 310 536 293 q 396 317 397 318 q 360 256 394 315 q 261 101 288 128 q 225 93 247 85 q 203 124 203 101 q 275 313 203 143 q 293 358 293 353 q 267 381 293 363 q 204 451 225 413 q 195 502 194 468 q 206 554 196 536 q 314 614 236 613 l 349 614 l 358 646 q 376 717 368 676 q 378 769 383 757 q 371 829 363 808 q 408 853 378 844 m 475 775 q 467 781 475 781 q 463 774 458 781 q 474 760 465 767 q 481 757 476 758 q 479 761 479 758 q 475 775 475 768 m 518 726 q 519 727 518 726 q 511 751 519 728 q 494 778 503 774 q 492 754 476 783 q 500 742 494 749 q 511 730 506 735 q 518 726 517 725 m 533 740 q 524 769 524 768 q 517 775 524 771 q 514 769 513 775 q 521 747 515 764 q 532 718 532 719 q 538 715 532 717 q 541 719 542 713 q 533 740 540 725 m 572 739 q 560 759 571 754 q 550 757 550 764 q 558 728 550 751 q 576 700 569 700 q 578 711 581 700 q 576 724 578 714 q 572 739 574 733 m 601 706 q 597 732 600 719 q 593 733 594 743 q 593 725 593 731 q 597 699 593 706 q 601 706 600 699 m 638 713 q 617 728 629 722 l 604 735 l 607 721 q 610 700 610 706 q 625 697 610 694 q 642 703 640 700 q 638 713 644 706 m 486 622 q 436 660 436 675 q 469 625 436 657 q 511 588 503 593 q 522 583 522 582 q 486 622 522 586 m 467 613 q 454 627 469 613 q 438 642 439 642 q 450 627 435 642 q 467 613 465 613 m 544 610 q 508 629 533 621 l 483 638 l 494 626 q 524 599 506 614 q 542 585 539 586 q 549 590 546 583 q 544 610 554 599 m 479 594 q 446 618 457 607 q 432 629 435 629 q 424 614 429 629 q 426 599 419 599 q 474 578 432 599 l 518 556 q 510 568 519 556 q 479 594 503 581 m 567 610 q 569 615 569 614 q 564 617 568 617 q 557 615 558 617 q 556 610 556 613 q 560 603 560 603 q 567 610 561 603 m 469 571 q 417 589 415 599 q 425 579 418 586 q 467 544 433 572 l 494 519 l 504 532 q 511 547 514 544 q 469 571 506 553 m 432 560 q 414 572 417 572 q 428 558 403 572 q 431 556 429 557 l 447 547 l 432 560 m 465 522 q 445 535 460 526 q 425 549 431 544 l 407 560 l 401 546 q 400 533 399 536 q 410 522 401 529 q 447 504 422 511 q 481 503 474 496 q 484 510 486 507 q 465 522 482 513 m 321 532 q 322 541 324 539 q 310 542 319 543 q 267 500 267 542 q 304 444 267 474 q 401 394 342 415 q 489 381 442 381 q 546 386 532 381 q 561 410 560 392 q 556 443 563 422 q 544 464 550 464 q 535 447 542 464 q 508 421 526 425 q 447 428 489 417 q 347 481 385 443 q 321 532 317 513 z "},":":{"ha":1114,"x_min":78,"x_max":1032,"o":"m 449 885 q 628 888 485 888 l 768 888 l 793 875 q 851 805 839 853 q 847 667 864 757 q 839 607 836 610 q 901 599 843 604 q 972 589 958 594 q 1008 561 986 583 q 1032 526 1031 539 q 1024 406 1036 506 q 996 242 1011 307 q 972 189 986 203 l 960 175 l 886 172 q 783 169 815 169 l 754 169 l 751 136 q 749 86 749 100 q 739 58 749 71 l 729 47 l 521 46 q 342 47 376 46 q 299 53 308 47 q 279 133 271 68 l 283 172 q 204 176 282 172 q 119 186 138 181 q 89 214 101 192 q 78 276 79 232 q 90 456 74 351 q 124 576 107 560 q 278 606 138 589 l 300 608 l 303 646 q 317 751 306 686 q 338 831 329 815 q 376 869 351 857 q 449 885 400 881 m 778 794 q 760 811 771 806 q 711 818 749 817 l 689 818 q 693 817 690 817 q 743 782 729 811 q 751 707 751 767 q 753 656 751 664 q 760 647 754 647 q 768 653 765 647 q 776 685 771 660 q 778 794 792 765 m 497 811 l 525 815 l 490 815 q 400 794 406 815 q 393 760 397 785 q 390 735 389 736 l 397 750 q 415 782 401 765 q 441 800 425 794 q 497 811 457 806 m 681 733 l 679 747 l 625 746 q 481 736 525 744 q 465 722 469 733 q 456 674 460 710 l 453 647 l 565 647 l 678 647 l 681 683 q 681 733 683 724 m 382 665 q 383 693 385 679 q 379 690 382 703 q 378 681 379 686 q 378 651 375 651 q 382 665 381 653 m 322 454 q 342 474 329 461 q 400 540 404 535 q 372 540 397 543 q 361 539 364 539 q 333 528 344 536 q 278 472 322 519 q 181 347 181 372 q 322 454 181 311 m 425 511 l 458 543 l 442 543 q 424 540 429 543 q 410 519 419 536 q 303 394 392 492 l 292 381 q 328 417 297 386 q 425 511 386 475 m 532 531 l 547 543 l 510 543 l 471 543 l 461 522 q 381 410 439 481 q 360 379 356 378 q 372 382 367 382 q 447 450 378 382 q 532 531 517 519 m 560 538 q 563 543 564 543 q 518 506 558 542 q 446 438 478 469 l 397 388 l 418 390 q 439 396 432 392 q 458 414 446 400 q 560 538 522 486 m 847 532 q 679 540 781 539 l 574 544 l 556 518 q 494 443 536 492 q 465 408 476 422 q 456 392 454 393 l 472 404 q 511 435 489 417 q 656 526 657 557 q 651 514 654 521 q 628 475 643 496 q 589 421 615 460 l 565 389 l 631 451 q 702 518 682 503 q 738 533 722 533 q 733 485 771 533 q 728 478 731 482 l 713 458 l 733 475 q 784 513 758 496 q 815 529 810 529 q 771 444 842 529 q 735 400 739 407 q 811 449 732 396 q 929 508 917 519 q 888 444 940 496 q 863 417 858 417 q 915 447 868 417 q 954 476 947 469 q 961 493 961 483 q 949 515 961 506 q 922 525 938 525 q 847 532 910 525 m 292 514 l 313 533 l 293 533 q 186 518 242 532 q 165 464 174 515 l 163 444 l 175 463 q 213 503 189 481 q 244 525 238 525 q 221 497 250 525 q 184 458 199 476 q 174 436 169 439 q 215 454 179 431 q 292 514 250 478 m 735 503 q 742 525 746 521 q 643 450 731 538 l 578 386 l 606 386 l 635 386 l 679 435 q 735 503 722 482 m 443 508 l 449 521 q 373 448 447 521 q 253 326 299 375 q 181 263 181 253 q 206 294 181 265 q 246 343 235 328 q 300 407 261 363 q 378 494 382 494 q 304 424 375 494 q 183 331 210 328 q 175 349 174 332 q 258 467 175 379 l 282 494 q 164 432 179 404 q 157 414 161 438 q 150 300 150 367 q 151 250 150 251 q 188 247 153 249 q 258 247 224 246 q 293 249 293 247 q 300 267 293 253 q 303 290 307 281 l 300 300 l 288 290 q 272 283 275 281 q 329 364 267 290 q 443 508 428 478 m 640 511 q 642 518 642 515 q 640 521 643 521 q 598 492 636 521 q 522 432 560 464 l 475 393 l 513 390 q 554 390 551 388 q 602 456 568 408 q 640 511 636 504 m 810 511 l 814 521 q 774 494 808 521 q 707 438 739 467 l 653 389 l 669 383 q 693 378 688 378 q 749 433 701 378 q 810 511 797 488 m 915 490 q 919 503 924 503 q 781 418 904 503 l 715 372 l 732 357 q 751 324 749 340 q 758 296 754 306 q 763 265 763 286 l 763 243 l 792 243 q 824 247 815 243 q 857 268 832 250 q 942 343 938 326 q 939 351 943 351 q 875 324 935 351 q 778 289 789 283 q 771 300 768 292 q 786 314 774 308 q 818 333 800 321 l 835 344 l 822 357 l 810 369 l 792 360 q 771 354 775 350 q 779 364 768 357 q 813 393 790 371 q 839 417 835 417 q 876 447 844 417 q 915 490 908 478 m 946 438 q 950 457 967 463 q 917 439 940 453 q 878 413 881 415 q 881 396 874 410 l 886 383 l 911 403 q 946 438 935 424 m 951 406 q 950 431 954 432 q 947 425 949 431 q 917 397 944 419 q 878 362 892 376 q 858 347 864 347 q 825 328 853 347 q 789 306 797 308 q 779 299 779 304 q 863 328 779 289 q 932 358 925 357 q 944 368 942 360 q 951 406 947 376 m 624 315 q 381 310 406 326 q 376 274 376 308 q 369 225 376 239 q 358 176 365 217 q 350 122 350 135 q 514 117 350 117 l 678 117 l 681 151 q 679 197 683 186 q 676 229 675 208 q 683 294 683 285 q 672 307 682 303 q 624 315 663 313 m 936 306 l 939 321 q 915 303 928 313 q 879 272 903 292 l 864 261 l 897 275 l 931 289 q 936 306 932 290 m 914 258 q 926 275 928 274 q 889 261 924 278 l 856 243 l 878 243 q 898 246 892 243 q 914 258 904 249 z "},";":{"ha":1069,"x_min":24,"x_max":988,"o":"m 544 763 q 774 753 675 776 q 908 653 874 731 q 936 515 936 593 q 928 478 936 489 q 897 461 921 468 q 865 460 878 454 q 839 490 853 467 q 744 556 807 542 l 721 561 l 701 539 q 657 458 668 504 q 657 435 653 440 q 679 429 661 429 q 728 424 697 429 q 767 414 758 419 q 795 378 792 401 q 779 336 799 356 q 643 265 751 308 q 556 226 581 240 q 510 190 531 213 q 471 163 486 165 q 411 197 433 156 q 340 293 394 228 q 267 369 286 358 q 236 439 236 388 q 271 494 236 481 q 368 488 306 507 q 374 490 372 486 q 378 504 376 493 q 397 574 382 525 q 424 644 413 622 q 450 690 435 669 q 469 726 464 708 q 490 752 474 744 q 544 763 506 760 m 582 686 l 599 693 l 579 694 q 551 690 561 694 q 529 672 542 686 l 517 658 l 540 668 q 582 686 565 679 m 581 667 q 628 693 628 690 q 594 681 628 696 q 536 657 568 669 q 511 645 518 650 q 496 626 504 640 q 469 560 485 608 q 463 540 467 553 q 455 499 450 501 q 499 514 460 496 q 519 524 513 521 q 575 549 542 533 q 613 567 608 564 q 632 581 649 582 q 565 561 617 578 q 486 539 492 539 q 503 556 469 539 q 536 572 515 563 q 575 593 560 585 l 592 601 q 542 583 590 604 q 496 566 506 568 q 482 568 486 564 q 485 573 482 569 q 503 585 489 576 q 539 605 517 593 q 603 638 561 617 q 679 681 678 676 l 611 651 q 546 626 576 636 q 513 621 515 617 q 526 635 510 625 q 581 667 542 644 m 683 693 l 668 694 q 606 669 650 694 q 556 639 546 638 q 560 640 557 639 q 626 667 569 643 q 683 693 682 692 m 753 683 q 718 689 750 685 q 693 686 693 689 q 694 678 699 682 q 618 636 690 674 q 544 596 544 599 l 551 597 q 568 604 558 600 q 588 612 574 606 q 628 627 603 618 q 668 643 653 636 q 715 661 699 654 q 740 673 731 668 q 752 680 750 678 q 753 683 754 682 m 672 615 l 689 633 q 649 617 685 633 q 577 583 613 600 q 542 565 542 567 q 599 581 543 564 q 649 599 636 593 q 672 615 661 604 m 619 553 q 621 560 624 560 q 606 553 617 560 q 600 547 596 547 q 604 547 601 547 q 619 553 613 547 m 594 531 l 596 532 l 597 538 q 507 503 578 538 q 453 476 463 481 q 450 472 447 475 q 513 495 451 469 q 594 531 575 521 m 594 506 q 597 520 600 518 q 579 514 593 522 q 508 483 568 507 q 458 460 468 467 q 443 444 447 454 q 382 414 431 414 q 342 401 338 414 q 346 397 343 400 q 396 406 353 390 q 514 454 481 435 q 564 478 538 468 q 589 489 589 488 l 594 506 m 583 464 q 580 473 583 471 q 574 469 576 475 q 533 449 571 465 q 458 408 496 433 q 419 378 417 381 q 492 411 424 375 q 561 442 544 438 q 579 448 575 443 q 583 464 583 453 m 567 428 q 544 425 581 442 q 486 397 524 417 q 400 358 411 361 q 389 363 386 356 q 419 392 393 372 l 440 411 l 397 397 l 358 385 l 382 358 q 392 345 386 353 q 402 333 399 338 q 407 328 406 329 q 481 371 408 325 q 567 428 553 417 m 338 421 q 325 424 333 421 l 319 425 q 325 418 319 425 q 338 416 332 411 q 338 421 343 421 m 579 406 l 579 413 q 508 371 569 411 q 451 335 479 351 q 419 313 419 315 q 428 301 419 311 l 438 292 l 451 306 q 556 385 489 340 q 579 406 579 401 m 590 382 q 581 390 583 390 q 529 354 578 390 q 464 304 481 318 q 465 299 442 285 q 519 331 482 307 q 588 369 576 365 q 596 374 596 372 q 590 382 596 376 m 615 363 q 568 349 614 375 q 497 307 546 336 q 455 280 460 285 q 456 268 450 275 q 467 266 458 263 q 506 288 475 269 q 615 363 617 354 m 654 351 q 660 360 669 361 q 640 356 653 360 q 619 345 633 353 q 595 331 606 338 q 585 322 585 324 q 615 332 588 321 q 654 351 642 343 m 897 254 q 919 261 911 260 q 964 239 940 261 q 988 197 988 217 q 979 175 988 182 q 971 156 971 167 q 932 86 971 146 q 890 17 893 28 q 862 -5 886 -1 q 706 -12 838 -8 q 379 -17 556 -17 q 178 -12 203 -17 q 71 86 117 -3 q 49 115 57 113 q 32 138 40 118 q 24 178 24 157 q 59 242 24 226 q 131 225 94 257 q 176 140 157 203 l 186 110 l 210 107 q 497 106 240 104 q 768 103 760 106 q 786 114 778 100 q 828 179 801 142 q 867 229 854 217 q 897 254 885 249 z "},"<":{"ha":1186,"x_min":153,"x_max":1104,"o":"m 544 746 q 600 750 568 749 q 629 748 622 750 q 647 736 636 746 q 656 690 669 715 q 643 676 650 679 q 619 672 636 672 q 546 634 592 672 q 479 554 500 596 q 464 490 465 526 l 461 453 l 492 450 q 553 431 531 447 q 575 386 575 414 q 565 358 575 372 q 547 343 556 343 q 468 294 542 343 q 357 222 389 242 q 319 204 333 208 q 290 201 304 200 q 263 218 276 201 q 236 258 250 235 q 200 325 222 281 q 153 437 160 404 q 163 486 146 469 q 184 499 174 497 q 231 494 194 500 q 268 493 264 489 q 283 526 272 499 q 390 669 310 603 q 544 746 471 736 m 407 572 q 410 581 408 576 q 411 588 411 585 l 413 590 q 398 575 411 590 q 390 551 385 560 q 397 547 396 543 q 407 572 399 553 m 386 483 q 381 531 385 508 l 378 551 l 368 536 q 347 493 358 521 l 338 464 l 360 429 q 397 376 396 371 q 383 422 397 383 q 364 468 369 460 q 364 483 356 481 q 369 483 367 485 q 382 469 375 478 q 389 465 389 460 q 386 483 389 468 m 342 422 q 331 456 332 456 q 318 444 329 456 l 307 432 l 328 396 q 354 360 350 360 q 342 422 361 360 m 325 386 q 297 425 300 425 q 298 415 296 425 q 306 389 300 406 q 317 356 311 372 q 328 314 325 336 l 331 290 l 397 335 l 464 379 l 443 385 q 410 403 422 390 l 397 414 l 400 401 q 404 375 404 388 q 400 361 404 363 q 390 368 397 360 q 374 389 382 376 l 356 411 l 356 410 q 361 372 360 401 q 362 347 363 351 q 356 343 361 342 q 325 386 349 344 m 264 392 q 239 421 246 421 q 236 418 236 421 q 263 361 236 414 q 299 294 289 308 q 314 282 308 278 q 300 326 319 285 q 264 392 279 367 m 319 317 q 303 371 319 324 q 278 419 286 418 q 263 417 265 421 q 267 404 260 414 q 297 351 276 390 l 319 317 m 936 565 q 1014 569 992 586 q 1066 464 1031 558 q 1104 326 1101 369 q 1104 298 1106 304 q 1093 282 1103 292 q 1019 278 1071 260 q 986 285 993 288 q 967 256 981 283 q 885 158 944 208 q 767 88 825 108 q 643 71 711 67 q 601 76 610 74 q 583 86 592 78 q 567 131 560 107 q 581 147 572 143 q 611 151 590 151 q 717 199 658 151 q 792 331 792 260 l 792 350 l 769 358 q 693 435 693 383 q 703 465 693 454 q 740 489 713 476 q 936 565 906 556 m 986 465 q 968 499 974 500 q 946 492 964 499 l 928 486 l 933 458 q 961 378 947 404 l 969 363 l 971 376 q 958 436 971 390 q 950 485 947 482 q 960 476 954 489 q 975 436 965 465 q 996 385 990 396 q 1001 376 1000 376 q 1006 379 1003 375 q 986 465 1015 394 m 922 469 q 917 478 922 478 q 897 474 913 479 q 882 456 881 467 q 908 396 883 446 q 933 351 929 353 q 938 357 935 351 q 932 415 940 368 q 922 469 922 458 m 889 406 q 864 460 868 460 q 853 456 860 460 q 849 446 847 453 q 861 413 850 439 q 888 343 879 374 q 908 306 900 303 q 913 310 911 306 q 889 406 918 326 m 851 415 q 834 447 836 447 q 835 437 832 447 q 843 414 838 426 q 854 393 849 401 l 865 381 q 851 415 867 382 m 829 429 q 822 442 826 440 q 804 435 817 443 l 790 428 l 810 421 q 831 414 829 414 q 829 429 831 415 m 1003 365 q 988 382 994 367 l 979 397 l 979 378 q 986 360 979 360 q 1010 358 993 360 l 1026 354 l 1022 369 q 1017 380 1018 379 q 1013 374 1015 381 q 1003 365 1010 364 m 961 356 q 956 368 960 361 q 949 371 951 376 q 946 361 949 368 q 944 346 942 346 q 951 349 946 346 q 961 356 961 353 m 882 339 q 872 363 878 350 q 867 372 868 371 q 867 365 867 372 q 875 342 865 356 q 882 332 881 332 q 882 339 883 332 m 928 333 q 925 346 931 338 q 918 347 919 354 q 928 333 921 333 m 888 306 q 876 324 888 311 q 869 328 869 331 q 888 306 882 306 m 894 294 q 876 300 886 289 q 864 296 863 317 q 867 274 865 288 q 874 251 871 251 q 881 256 875 251 q 901 293 900 272 q 894 294 901 301 m 861 249 q 861 264 863 256 q 859 269 860 269 q 856 264 858 269 q 856 249 853 256 q 859 243 858 243 q 861 249 860 243 z "},"=":{"ha":836,"x_min":94,"x_max":756,"o":"m 524 778 q 574 775 546 781 q 664 705 589 771 q 747 621 739 639 q 756 513 756 606 q 736 206 756 401 q 719 96 726 114 q 689 75 713 78 q 663 70 672 75 q 440 61 654 65 q 197 59 264 57 q 115 72 131 61 q 96 130 99 86 q 94 428 93 174 l 97 739 l 107 747 q 196 756 117 756 q 460 771 339 756 q 524 778 518 778 m 200 678 l 190 682 l 185 682 l 167 682 l 167 656 l 167 628 l 182 651 q 200 678 194 668 m 208 618 q 214 651 215 624 l 213 679 l 190 644 q 167 603 167 611 q 169 596 167 596 q 183 603 172 596 q 208 618 203 615 m 614 617 l 626 640 l 613 651 l 599 664 l 596 567 q 590 461 593 468 q 644 515 586 449 q 671 546 663 535 q 680 559 676 554 q 682 564 683 564 q 653 547 679 564 q 601 529 601 515 q 633 571 601 535 q 650 590 643 581 q 661 603 657 599 l 664 608 q 635 594 660 611 q 606 578 608 578 q 614 617 593 578 m 632 602 q 640 608 632 602 q 649 617 649 614 q 642 626 649 619 q 633 630 636 632 q 621 613 629 628 q 616 601 618 607 q 613 593 614 596 q 613 590 611 590 q 632 602 615 590 m 190 594 l 192 597 q 179 592 190 597 q 167 572 167 585 l 167 558 l 178 574 q 185 585 181 578 q 190 594 190 593 m 214 544 q 213 574 217 546 l 208 600 l 197 586 q 176 544 176 557 q 194 539 176 538 q 214 544 211 542 m 669 567 q 683 582 683 575 q 678 594 683 589 q 665 590 674 597 q 629 551 657 583 l 617 536 l 636 549 q 669 567 665 565 m 458 557 q 428 556 432 563 q 425 494 425 549 l 425 429 l 444 431 q 465 435 463 432 q 471 496 468 439 l 472 554 l 458 557 m 682 435 q 683 503 685 467 l 682 543 l 663 521 q 617 469 647 501 q 586 425 589 440 q 585 413 585 418 q 586 408 585 408 q 618 426 588 408 q 671 444 671 458 q 667 439 671 439 q 525 339 654 439 q 340 178 379 226 l 328 161 l 350 176 q 426 233 368 188 q 592 357 519 306 q 674 408 664 408 q 682 435 679 408 m 215 529 q 192 532 215 532 l 167 532 l 167 501 l 168 474 q 193 500 171 476 q 215 529 215 525 m 203 460 q 215 472 213 468 q 215 489 217 476 l 213 508 l 200 494 q 172 453 172 464 q 196 454 172 439 q 203 460 200 457 m 222 435 q 215 456 218 456 q 189 432 213 456 q 167 397 167 408 q 169 386 167 386 q 199 400 171 386 l 226 414 l 222 435 m 233 396 q 222 400 232 404 q 194 388 215 399 l 163 372 l 163 339 l 163 307 l 176 326 q 211 368 186 342 q 233 396 235 389 m 678 394 q 643 382 686 408 q 403 201 556 325 q 324 136 332 144 q 328 131 319 132 q 382 131 338 129 l 444 133 l 472 161 q 551 229 500 190 q 636 300 601 267 l 668 331 l 647 319 q 589 279 625 308 q 484 203 551 250 q 413 156 417 156 q 397 145 410 157 q 379 139 385 133 q 378 145 379 143 q 392 160 378 147 q 426 190 406 172 q 488 242 446 207 q 603 339 565 307 q 661 383 649 378 q 678 394 675 390 m 678 368 q 677 381 681 381 q 663 374 674 382 q 535 270 651 367 q 419 171 419 174 q 433 179 419 165 q 506 232 446 192 q 589 292 568 275 q 634 324 608 308 q 667 339 660 339 q 675 347 675 339 q 678 368 675 354 m 221 336 q 249 372 254 367 q 239 378 244 378 q 203 345 232 378 q 171 299 175 313 l 169 293 q 178 299 171 293 q 221 336 189 307 m 263 343 q 268 360 276 360 q 222 325 261 360 q 174 283 185 292 q 164 270 165 279 q 163 222 163 261 q 165 164 163 167 q 194 181 168 161 q 228 211 219 200 q 325 326 301 304 q 338 343 343 343 q 265 286 325 343 q 176 232 183 211 q 224 299 176 246 q 263 343 250 329 m 389 331 l 417 356 l 351 356 l 286 356 l 249 314 q 197 253 213 272 l 182 233 l 197 242 q 254 289 211 249 q 336 351 321 351 q 336 324 363 351 q 332 319 335 322 q 289 272 317 306 q 263 237 261 239 q 315 272 265 235 q 389 331 365 310 m 507 351 l 482 356 q 476 356 479 356 l 443 356 l 401 325 q 261 188 318 263 q 247 147 232 147 q 269 165 253 147 q 450 308 297 194 q 467 321 458 314 q 482 333 475 328 q 494 342 489 338 q 503 349 500 346 l 507 351 m 479 315 q 489 325 492 325 q 391 251 485 325 q 281 163 297 178 q 250 140 261 143 q 235 147 239 136 q 272 215 229 165 q 296 244 294 240 l 286 239 q 267 225 281 235 q 168 140 168 151 q 180 133 167 135 q 238 131 193 131 l 296 131 l 307 149 q 424 269 340 200 q 479 315 469 307 m 672 301 l 674 319 q 640 290 672 321 q 546 211 607 260 q 472 149 483 163 l 460 133 l 486 151 q 554 201 510 169 q 633 258 594 233 q 665 281 660 275 q 672 301 671 288 m 658 263 q 606 229 658 267 q 486 135 488 142 q 517 156 494 135 q 599 219 540 176 q 658 263 658 261 m 667 239 l 665 256 q 602 210 661 254 q 529 154 543 167 q 519 135 513 136 q 599 178 529 135 l 667 222 l 667 239 m 661 181 q 661 194 663 190 q 647 189 661 197 q 617 168 633 181 q 596 149 601 156 q 594 139 590 139 q 631 156 604 139 q 661 181 658 174 m 589 154 l 601 169 q 574 151 599 169 q 554 136 554 138 l 560 136 q 589 154 572 139 z "},">":{"ha":776,"x_min":122,"x_max":693,"o":"m 406 933 q 422 941 414 940 q 446 938 429 942 q 475 918 468 931 q 483 868 482 906 l 486 825 l 500 825 l 514 825 l 517 857 q 528 907 521 907 q 531 897 533 907 q 526 856 528 888 q 526 832 524 832 q 535 869 529 832 q 542 894 538 894 q 543 878 546 894 q 538 827 538 835 q 547 813 539 819 q 565 803 558 803 q 592 792 575 803 q 622 767 608 781 q 660 700 651 735 q 653 642 668 665 q 608 610 632 613 q 544 631 585 608 q 508 650 510 651 q 492 549 506 647 q 481 449 479 450 q 528 436 482 449 q 693 269 714 385 q 681 229 688 240 q 675 204 675 217 q 652 172 675 192 q 596 136 629 151 q 528 113 571 125 q 472 100 486 100 q 464 97 465 100 q 463 76 463 93 q 458 50 463 53 q 455 54 456 49 q 454 72 454 60 l 451 94 q 449 58 449 90 q 439 18 447 26 q 410 8 426 6 q 378 24 393 10 q 365 40 367 33 q 363 65 363 46 l 363 92 l 338 92 q 209 112 271 92 q 122 163 147 132 q 135 325 65 232 q 194 369 169 372 q 235 314 218 367 q 257 265 247 276 q 294 239 267 253 q 342 224 322 225 l 361 221 l 361 308 l 361 399 l 333 406 q 200 503 238 433 q 170 572 175 546 q 174 632 165 599 q 303 783 200 733 q 367 808 344 803 l 389 813 l 389 850 q 406 933 389 921 m 489 649 q 481 671 490 665 q 471 669 474 676 q 458 578 468 660 q 447 473 447 488 q 454 456 446 458 q 466 453 465 453 q 477 541 467 454 q 489 649 488 628 m 381 665 q 356 656 381 674 q 283 542 292 610 l 279 521 l 321 501 q 365 483 363 481 q 373 566 367 483 q 381 665 379 649 m 450 306 q 453 339 450 306 q 456 375 457 372 q 448 378 454 378 q 439 325 442 378 q 439 224 435 228 q 450 306 443 240 m 522 351 q 485 366 494 364 q 474 363 476 368 q 468 289 471 357 q 469 224 465 231 q 506 228 474 218 q 560 256 538 238 q 583 292 583 275 q 563 322 583 301 q 522 351 542 342 m 456 218 q 457 257 458 221 l 456 293 l 453 257 q 456 218 450 217 z "},"?":{"ha":799,"x_min":46,"x_max":708,"o":"m 500 825 q 569 826 524 829 q 636 817 615 824 q 705 758 679 804 q 708 688 731 711 q 685 678 697 678 q 642 689 674 678 q 537 702 593 704 q 440 679 481 700 q 388 647 419 669 l 357 628 l 407 625 q 472 616 456 622 q 506 597 488 610 q 522 581 524 585 q 528 565 521 575 q 535 531 540 550 q 513 506 531 513 q 313 482 490 496 q 250 475 251 476 q 245 451 249 472 q 242 415 242 431 l 242 394 l 344 397 q 460 398 432 400 q 500 385 489 396 q 510 358 508 375 q 504 335 511 340 q 497 324 497 329 q 447 297 497 301 q 369 282 414 293 q 311 268 322 269 q 308 258 301 267 q 325 243 313 256 q 350 215 350 218 q 315 239 350 206 q 292 260 299 257 q 276 263 285 264 l 265 260 l 290 236 q 334 210 311 217 q 401 201 357 203 q 443 206 429 201 q 508 232 457 210 q 632 269 607 274 q 660 251 646 267 q 678 222 675 236 q 608 139 689 163 q 556 121 578 129 q 400 104 476 90 q 332 114 375 108 q 236 144 271 122 q 185 188 218 156 q 142 238 151 221 q 123 256 133 251 q 92 261 113 261 q 74 265 76 261 q 86 269 71 269 q 97 268 90 268 q 122 271 124 267 q 108 278 121 275 q 54 322 71 286 q 46 361 42 346 q 67 385 51 379 q 99 382 82 390 q 106 381 104 379 q 107 393 107 382 q 113 439 107 407 q 117 468 119 467 q 92 472 115 469 q 58 485 67 475 q 138 567 22 532 l 163 576 q 120 567 158 578 q 69 553 82 557 q 64 556 63 550 q 89 568 65 561 l 113 576 l 94 576 q 76 579 76 578 q 119 588 75 585 q 171 593 158 589 q 200 625 179 596 q 254 686 221 654 q 314 736 288 718 q 365 771 357 764 q 500 825 422 813 m 460 610 q 392 618 433 618 q 339 610 351 618 q 343 604 333 606 q 404 604 354 603 q 468 606 467 604 q 460 610 468 607 m 239 469 q 236 478 242 478 q 219 443 229 478 q 214 397 210 408 q 224 390 217 390 q 233 426 231 390 q 239 469 236 460 m 321 281 l 338 285 q 306 282 335 286 q 292 276 290 281 q 321 281 296 275 m 278 274 q 276 279 282 279 q 265 279 274 279 q 257 274 257 276 q 267 269 258 269 q 278 274 275 269 z "},"@":{"ha":878,"x_min":150,"x_max":796,"o":"m 660 840 q 736 817 707 860 q 742 721 765 775 q 621 567 719 671 q 579 513 571 513 q 642 565 593 513 q 754 700 690 617 q 796 747 792 750 q 738 665 799 740 q 636 546 678 589 q 617 513 611 514 q 649 497 638 513 q 653 463 660 481 q 626 440 647 447 q 544 428 604 432 q 519 424 525 425 q 514 415 514 422 q 522 399 514 403 q 564 394 531 396 q 602 391 594 393 q 618 381 610 389 q 615 327 639 354 q 551 306 592 300 q 532 303 532 307 q 539 257 532 297 q 547 151 547 213 q 539 61 547 89 q 524 18 533 40 q 507 -17 515 -4 q 496 -25 499 -29 q 511 11 493 -24 q 540 135 542 71 q 538 135 540 153 q 536 122 536 129 q 510 17 526 44 q 499 8 500 1 q 506 29 497 14 q 528 131 521 61 q 528 263 535 201 l 525 289 l 522 246 q 513 171 518 200 q 500 97 506 144 q 478 22 492 43 q 440 0 465 0 q 369 67 389 0 q 360 206 361 99 l 357 314 l 306 311 q 228 317 250 308 q 207 349 207 325 q 223 378 207 371 q 288 386 239 386 q 348 389 338 386 q 358 406 358 392 l 358 421 l 314 421 q 201 438 214 421 q 203 483 183 461 q 218 494 210 492 q 257 497 226 496 l 301 500 l 274 531 q 208 630 243 568 q 154 743 172 692 q 150 785 144 771 q 168 803 156 799 q 203 818 183 808 q 292 803 253 844 q 316 769 306 788 q 360 686 326 751 q 438 557 415 576 l 449 546 l 464 565 q 521 654 481 585 q 609 794 582 757 q 660 840 636 831 m 508 408 l 503 425 q 501 417 501 424 q 506 400 501 406 q 508 400 508 394 q 508 408 508 403 z "},"A":{"ha":813,"x_min":189,"x_max":731,"o":"m 619 1086 q 657 1083 643 1090 q 688 1029 678 1072 q 694 928 699 986 q 697 865 690 881 q 731 554 736 792 q 709 296 726 413 q 665 126 692 179 q 597 64 643 83 q 447 40 542 40 q 290 61 353 39 q 196 157 215 89 q 189 443 171 240 q 200 586 196 517 q 219 788 207 694 q 242 899 232 881 q 315 931 254 922 q 517 946 435 949 l 556 944 l 564 979 q 619 1086 586 1079 m 463 861 l 482 872 l 467 872 q 443 861 451 872 q 440 851 438 851 q 463 861 443 851 m 511 867 q 506 872 515 872 q 486 865 496 872 q 443 840 479 860 q 397 813 407 819 q 394 806 389 806 q 413 808 397 806 q 472 836 438 813 q 511 867 506 860 m 396 851 q 398 850 396 851 q 411 859 400 850 q 414 868 422 868 q 400 860 407 868 q 396 851 392 851 m 549 853 q 558 868 569 869 q 525 853 549 867 q 479 826 500 838 q 458 814 458 817 q 463 813 458 813 q 476 814 468 814 q 549 853 506 818 m 363 863 q 361 864 365 864 q 332 856 349 865 q 311 851 315 847 q 303 847 304 858 q 300 832 301 843 l 297 811 l 329 836 q 363 863 360 860 m 582 836 q 594 847 589 842 q 601 856 599 853 q 603 861 604 860 q 539 832 594 865 l 513 817 l 531 815 q 553 814 551 815 q 582 836 556 814 m 374 846 l 388 858 q 365 846 385 858 q 324 817 343 832 q 296 790 306 801 q 290 775 286 778 q 295 777 290 774 q 308 788 300 781 q 324 803 315 794 q 374 846 358 833 m 401 829 q 428 857 429 854 q 321 782 424 860 q 285 736 285 756 q 297 743 285 733 q 323 765 310 753 q 336 779 336 776 q 345 792 336 785 q 363 801 354 799 q 401 829 374 803 m 638 822 q 633 837 635 833 q 628 838 631 840 q 621 829 625 836 q 606 806 614 815 q 603 800 600 799 q 613 804 604 800 q 633 811 626 811 q 638 822 642 811 m 611 826 q 614 836 615 835 q 599 830 613 838 q 576 817 585 822 l 567 808 l 578 806 q 611 826 597 801 m 631 782 q 640 799 642 793 q 622 799 638 806 q 607 790 608 793 q 613 779 606 788 q 619 773 617 772 q 631 782 622 774 m 649 772 q 632 771 649 789 l 622 760 l 636 761 q 647 763 644 761 q 649 772 649 765 m 332 740 l 335 760 q 309 739 332 760 q 283 714 286 718 q 281 692 279 707 l 282 678 l 306 700 q 332 740 329 722 m 656 729 q 650 756 651 756 q 642 740 646 756 q 642 711 636 725 q 644 690 649 696 q 640 672 640 683 q 649 660 640 660 q 656 663 654 660 q 658 681 658 667 q 656 729 658 699 m 553 735 q 453 740 531 750 q 404 733 406 735 q 389 660 403 729 q 381 529 368 551 q 447 513 390 513 q 550 546 538 513 q 566 629 561 572 q 565 713 571 686 q 553 735 563 729 m 324 697 q 317 699 324 706 q 310 692 314 696 l 300 681 l 313 686 q 324 697 324 692 m 313 665 q 319 678 321 676 q 297 669 317 681 q 276 644 276 657 l 276 632 l 290 643 q 313 665 303 654 m 649 626 q 656 650 663 642 q 649 651 653 653 q 639 633 642 650 l 638 617 l 649 626 m 294 619 q 311 637 311 626 q 310 647 311 647 q 292 632 310 647 q 279 614 269 614 q 294 619 285 614 m 650 597 q 663 613 663 600 q 661 625 663 625 q 647 612 658 625 q 636 597 635 599 q 650 597 639 596 m 286 594 q 301 611 301 610 q 286 604 301 613 q 272 589 272 597 q 281 589 272 581 q 286 594 283 590 m 303 583 l 306 597 q 286 581 303 599 q 273 561 269 564 q 281 563 276 558 q 294 568 286 568 q 303 583 301 568 m 658 586 q 642 586 658 592 q 632 569 632 582 l 632 558 l 644 571 q 658 586 658 583 m 658 544 l 660 572 q 640 551 657 572 q 621 525 622 531 q 610 500 617 513 l 601 486 l 629 500 l 657 514 l 658 544 m 285 549 q 292 558 292 556 l 283 554 q 281 551 282 553 q 272 541 269 543 q 285 549 275 539 m 301 542 q 300 551 301 551 q 282 533 297 551 q 268 514 267 515 q 287 522 272 510 q 301 542 301 533 m 289 487 q 300 494 289 487 q 311 507 311 501 q 307 514 311 513 q 294 506 306 515 q 272 487 282 497 q 264 475 263 476 q 289 487 267 472 m 653 438 q 657 493 658 492 q 609 464 656 494 q 560 429 563 433 l 578 436 l 581 438 q 642 457 638 469 q 624 436 643 451 q 497 335 497 338 q 503 324 497 332 q 513 317 510 317 q 550 343 517 317 q 636 390 618 390 q 604 356 649 390 q 582 338 594 349 q 506 276 526 296 q 483 261 488 261 q 439 228 479 261 q 385 179 399 196 q 383 176 381 175 q 425 206 389 179 q 544 289 479 246 q 625 339 608 332 q 644 358 640 346 q 653 438 647 371 m 369 443 q 358 454 372 447 q 331 474 344 461 q 317 483 321 482 q 307 478 314 483 q 278 448 299 472 q 260 422 258 424 q 292 438 261 421 q 332 451 332 463 q 296 413 332 449 q 258 372 258 376 q 284 387 258 371 q 337 421 310 403 q 369 443 364 439 m 614 481 l 614 482 q 576 462 610 481 q 529 433 542 443 q 481 401 508 419 q 442 378 454 386 l 431 369 l 442 367 q 556 439 457 363 q 599 468 582 458 q 614 481 614 478 m 275 460 q 283 473 285 472 q 272 465 281 474 q 264 451 261 457 q 275 460 265 446 m 367 389 l 439 438 l 413 442 q 381 440 385 444 l 324 389 q 256 314 249 321 q 276 326 257 313 q 367 389 286 333 m 525 443 q 522 446 528 446 q 488 442 517 446 q 451 432 464 439 q 390 386 439 425 q 278 283 268 289 q 286 286 279 283 q 334 316 310 299 q 361 339 358 333 q 376 355 363 346 q 399 364 390 364 q 425 378 407 364 q 483 414 460 400 q 525 443 522 439 m 594 425 q 621 447 622 446 q 576 426 613 447 q 507 378 540 404 q 481 358 485 363 q 481 349 476 353 q 494 346 489 342 q 532 376 497 349 q 594 425 554 394 m 281 410 q 301 433 301 431 q 299 433 301 435 q 279 419 297 432 q 258 398 258 407 q 276 407 258 389 q 281 410 278 408 m 300 379 q 315 394 317 394 q 283 376 313 394 q 254 344 254 357 l 256 338 q 268 349 258 338 q 300 379 278 360 m 336 354 q 335 356 347 364 q 296 329 325 350 l 253 299 l 256 254 q 278 153 261 172 q 289 147 288 142 q 289 150 289 149 q 311 185 289 160 q 368 238 333 210 l 407 271 l 394 275 q 372 274 382 281 q 363 267 371 272 q 343 251 356 261 q 322 235 331 242 q 278 206 281 203 q 338 268 271 213 q 363 297 367 293 q 358 311 358 301 l 358 322 l 340 308 q 294 282 321 296 q 265 269 267 268 q 272 290 261 274 q 301 322 283 306 q 317 336 308 329 q 330 348 325 343 q 336 354 335 353 m 567 338 q 577 348 574 344 q 579 351 581 351 q 544 327 576 351 q 511 299 513 303 q 561 333 507 289 q 567 338 564 336 m 639 311 q 639 332 642 331 q 551 263 638 335 q 444 171 464 192 l 421 146 l 442 160 q 482 192 463 174 q 562 251 511 215 q 622 289 613 286 q 634 294 632 290 q 639 311 636 297 m 583 303 l 589 308 q 521 263 585 307 q 432 199 457 219 q 336 138 346 132 q 344 151 333 139 q 369 179 354 163 l 408 218 l 375 196 q 297 138 297 142 q 341 123 297 135 q 386 114 385 111 q 528 256 419 169 q 583 303 579 297 m 596 228 q 628 257 624 249 q 631 271 632 265 q 550 217 629 279 q 508 179 535 206 q 460 131 481 153 q 444 108 440 108 q 475 133 447 108 q 536 182 496 150 q 596 228 578 213 m 439 263 q 421 267 422 267 q 362 220 415 268 q 301 158 308 172 q 304 157 299 154 q 318 165 308 158 q 349 188 321 168 q 394 221 378 208 q 444 260 443 254 q 439 263 444 261 m 619 215 l 622 228 q 551 172 618 231 q 515 132 504 129 q 536 146 519 133 q 592 186 557 163 q 619 215 618 204 m 513 197 l 540 225 q 483 181 535 225 q 449 154 471 168 q 414 128 429 142 l 397 114 l 414 113 q 431 115 425 111 q 456 139 438 119 q 513 197 479 165 m 606 171 q 608 182 610 182 q 575 156 606 182 q 543 126 544 129 q 544 122 540 121 q 567 131 549 122 q 606 171 594 143 m 517 151 q 513 153 531 168 q 494 136 506 147 q 476 113 469 114 q 517 151 485 113 z "},"B":{"ha":850,"x_min":94,"x_max":765,"o":"m 386 956 q 500 955 436 961 q 606 933 564 949 q 699 881 658 914 q 758 811 740 849 q 765 774 771 788 q 731 751 758 751 q 711 758 718 751 q 683 793 704 764 q 536 878 643 851 q 447 883 513 883 q 346 874 382 883 q 254 835 290 858 q 181 765 218 811 q 151 751 168 751 q 124 763 133 751 q 135 825 106 786 q 238 910 171 875 q 386 956 306 944 m 454 707 q 631 669 561 714 q 696 605 667 646 q 738 519 725 564 q 756 429 746 489 q 763 363 765 369 q 726 339 751 338 q 708 335 715 340 q 681 313 701 331 q 417 204 565 204 q 167 304 275 204 q 125 328 142 326 q 101 340 107 329 q 94 382 94 351 q 104 426 94 417 q 133 476 114 438 q 269 640 186 581 q 454 707 351 700 m 578 615 q 546 626 546 632 q 557 617 547 625 q 615 547 594 589 q 627 515 625 526 q 629 471 629 504 q 621 401 629 422 q 588 340 604 360 q 581 328 579 329 q 611 349 583 325 q 660 396 639 374 l 685 425 l 678 456 q 651 539 667 507 q 619 583 642 560 q 578 615 597 606 m 464 581 q 425 588 435 589 q 399 579 415 588 q 339 517 361 561 q 322 457 321 482 q 325 456 322 453 q 335 463 326 456 q 358 481 343 469 q 386 504 374 493 q 461 563 447 553 q 481 576 481 574 q 464 581 481 578 m 507 561 q 501 564 506 564 q 477 547 500 564 q 454 526 454 529 q 462 529 454 525 q 480 539 469 533 q 499 550 490 544 q 504 555 501 553 q 508 559 507 557 q 507 561 508 561 m 514 544 q 518 551 522 553 q 425 486 493 542 q 415 478 419 482 q 417 478 410 474 q 454 501 425 482 q 514 544 508 539 m 261 519 l 269 543 q 253 525 268 543 q 226 492 238 507 q 197 440 214 474 q 181 399 181 407 q 223 352 181 388 q 296 304 265 317 l 308 299 l 297 311 q 261 368 271 340 q 251 444 251 396 q 261 519 253 497 m 538 539 q 533 542 536 543 q 504 524 529 542 q 467 494 479 507 l 451 481 l 469 490 q 493 506 485 499 q 521 524 500 511 q 534 533 529 528 q 538 539 539 538 m 523 494 q 536 501 523 494 q 551 511 550 508 q 550 519 553 514 q 522 510 547 525 q 462 467 504 499 q 419 432 419 435 q 430 438 419 431 q 458 456 440 444 q 523 494 496 481 m 517 465 q 555 487 551 483 q 557 497 558 490 q 529 483 556 503 q 493 456 501 461 l 514 464 q 517 465 515 464 m 560 456 q 561 468 563 458 q 551 471 560 476 q 540 463 549 468 q 503 435 515 446 l 486 421 l 521 436 q 560 456 557 454 m 393 446 q 394 450 399 453 q 375 438 392 449 q 333 406 339 413 q 332 388 328 399 l 338 374 l 364 396 q 411 439 410 436 q 389 425 411 440 q 350 404 354 404 q 367 425 333 404 q 393 446 389 439 m 501 446 l 500 447 q 463 422 497 446 q 415 388 428 397 q 381 363 397 371 q 364 353 365 356 q 365 347 363 351 q 388 360 368 342 q 456 410 411 378 q 501 446 501 443 m 544 411 q 557 440 558 439 q 524 424 554 443 q 478 389 493 404 l 524 413 q 531 418 529 417 q 540 419 536 422 q 532 408 542 417 q 474 358 522 399 l 443 331 q 471 347 446 331 q 514 372 493 363 q 544 411 532 382 m 450 436 q 400 403 450 440 q 351 361 351 364 q 367 369 354 358 q 414 408 383 385 q 450 436 450 435 m 463 389 q 475 403 478 403 q 426 372 472 403 q 381 338 381 340 q 383 335 381 336 q 388 333 385 333 q 463 389 396 331 m 456 356 q 467 369 469 369 q 458 365 465 369 q 443 354 451 360 q 427 342 435 349 q 414 331 419 336 q 410 326 408 326 q 430 334 415 325 q 456 356 444 343 z "},"C":{"ha":1114,"x_min":-50,"x_max":1032,"o":"m 472 889 q 669 851 582 908 q 740 772 711 825 q 774 656 768 718 l 776 626 l 842 628 q 927 624 899 629 q 981 599 956 618 q 1032 475 1033 558 q 928 244 1031 350 q 747 119 853 168 q 522 57 642 69 q 404 53 475 51 q 293 65 333 56 q 19 204 122 101 q -50 372 -50 274 q 4 515 -50 458 q 160 588 61 576 l 185 590 l 185 607 q 229 732 185 663 q 334 833 265 788 q 472 889 403 878 m 603 806 q 536 819 578 817 l 494 821 l 399 726 q 286 610 301 629 l 267 586 l 283 583 q 303 588 294 582 q 343 624 311 593 q 466 737 406 686 q 533 783 526 788 q 522 768 538 781 q 497 749 515 763 q 420 683 467 725 q 342 610 374 642 q 317 578 311 578 q 372 624 321 578 q 585 792 572 800 q 579 778 588 790 q 554 748 571 765 q 519 714 538 731 q 322 513 457 658 l 313 499 q 347 531 319 503 q 467 634 397 576 q 590 729 538 692 q 647 761 643 767 q 578 697 649 756 q 407 540 532 658 q 231 368 282 422 q 225 361 221 358 q 251 386 229 364 q 569 649 424 550 q 626 689 608 674 q 663 699 657 710 q 589 629 663 690 q 447 504 540 589 q 324 388 354 419 l 311 374 q 336 397 315 376 q 460 501 379 438 q 597 600 542 564 q 635 624 622 615 q 658 638 649 632 q 669 642 668 643 q 671 639 669 640 q 576 543 671 624 q 365 350 442 431 l 338 321 q 342 324 339 322 q 478 435 399 378 q 647 551 629 544 q 658 553 657 556 q 635 532 658 547 q 544 451 613 518 l 497 401 q 511 414 499 403 q 685 538 603 488 l 718 557 l 711 568 q 701 629 704 578 q 673 742 696 700 q 603 806 650 783 m 415 761 q 438 786 428 774 q 454 805 449 799 q 458 811 460 811 q 420 798 449 811 q 371 769 392 785 q 318 725 342 750 q 285 683 301 707 q 272 657 269 660 q 277 660 274 657 q 287 669 281 663 q 300 683 293 675 q 369 738 346 732 q 375 735 375 739 q 349 699 375 732 l 322 667 l 344 688 q 415 761 369 711 m 419 628 q 526 732 497 707 q 551 760 554 757 q 529 746 549 760 q 364 604 457 688 q 335 576 339 582 q 333 563 331 569 q 342 551 339 551 q 419 628 344 551 m 340 704 l 344 711 q 299 668 333 707 q 285 644 278 644 q 340 704 294 646 m 632 679 q 586 650 632 682 q 397 505 478 574 q 213 333 317 436 q 148 270 175 294 q 121 247 121 246 q 181 326 117 257 q 342 490 244 396 q 513 658 513 656 q 506 656 513 660 q 318 488 463 625 q 135 301 174 350 q 103 272 103 258 q 154 340 103 278 q 247 444 206 401 q 301 506 303 504 q 285 510 300 507 q 263 502 274 513 q 197 431 251 492 q 99 319 118 342 q 79 297 86 304 q 67 284 72 289 q 60 280 63 279 q 57 282 58 281 q 64 297 53 288 q 69 307 71 306 l 65 306 q 60 305 61 304 q 61 313 60 306 q 110 388 64 321 q 183 493 156 456 l 194 510 q 189 503 193 507 q 101 392 165 478 q 38 300 38 306 q 58 270 38 294 q 97 232 79 246 q 393 126 215 138 q 725 189 571 114 q 898 320 833 242 q 961 478 963 399 q 925 547 961 529 q 801 554 889 565 q 740 550 747 547 q 732 549 732 553 q 604 424 732 539 q 486 314 544 371 l 451 278 q 718 497 560 376 q 753 524 740 514 q 775 539 767 533 q 785 544 783 544 q 790 543 788 544 q 726 490 792 539 q 578 358 661 442 q 465 239 515 296 q 404 161 415 182 q 419 171 400 153 q 492 239 440 189 q 708 433 646 390 q 779 486 744 460 q 849 529 838 529 q 814 488 863 529 q 760 439 758 442 l 786 457 q 889 518 881 524 q 886 511 894 515 q 763 413 849 489 q 621 278 676 338 l 586 242 l 629 281 q 726 360 665 313 q 835 440 786 407 q 885 469 883 474 q 839 425 888 465 q 738 333 799 392 q 657 250 676 275 q 657 246 642 233 q 679 265 664 253 q 842 394 771 353 q 926 436 921 442 q 918 424 928 435 q 890 396 908 413 q 849 360 871 379 q 782 303 804 324 l 756 278 l 792 301 q 857 340 822 322 q 896 354 892 357 q 842 299 897 351 q 764 222 796 256 q 739 200 742 200 q 799 269 726 200 q 849 325 857 328 q 726 240 806 304 q 663 197 663 188 q 734 269 663 201 q 846 369 806 338 q 892 411 896 411 q 885 408 890 411 q 791 349 833 381 q 679 253 749 318 q 635 213 651 228 q 606 189 618 199 q 590 178 594 179 q 585 178 586 176 q 714 322 582 188 l 778 388 l 729 351 q 615 256 679 313 q 525 183 531 178 q 531 197 522 186 q 615 285 542 211 q 718 388 689 360 l 756 422 l 725 400 q 528 226 631 328 q 458 163 461 161 q 530 246 453 169 q 696 399 607 322 q 783 475 783 474 l 776 471 q 758 459 769 467 q 733 442 746 451 q 493 226 651 385 q 388 131 394 131 q 381 136 382 131 q 385 146 379 142 q 400 168 389 149 q 521 315 419 207 l 569 367 l 517 322 q 399 215 463 276 q 324 153 324 144 q 325 156 324 154 q 381 219 326 161 q 640 471 469 318 q 718 546 724 544 q 714 544 717 547 q 546 428 624 492 q 357 256 468 365 q 253 158 256 157 q 439 360 247 165 l 550 475 q 283 257 410 378 q 207 197 207 183 q 301 299 207 201 q 544 529 438 440 q 618 593 593 569 l 643 617 l 596 588 q 447 478 536 550 q 278 329 358 406 q 168 235 168 224 q 168 239 168 236 q 254 331 169 243 q 568 624 400 482 q 632 679 632 678 m 271 618 q 279 629 282 629 q 269 619 278 629 q 256 603 260 610 q 258 603 253 597 q 271 618 261 606 m 224 497 q 230 503 224 497 q 236 513 236 510 q 226 517 236 515 q 212 510 219 518 q 181 474 204 503 q 97 349 99 363 q 156 418 100 351 q 224 497 211 485 m 147 500 q 153 508 151 504 q 157 514 156 513 l 158 517 q 124 506 157 517 q 26 410 42 478 q 25 403 24 403 q 36 417 26 403 q 80 465 50 436 q 117 494 110 494 q 121 479 125 494 l 118 463 l 126 474 q 147 500 136 485 m 246 500 q 257 517 260 517 q 218 472 256 517 l 197 447 q 207 456 200 449 q 246 500 235 486 m 115 478 q 111 482 115 482 q 77 450 107 482 q 36 399 47 418 q 22 375 24 382 q 22 354 19 368 l 25 333 l 36 350 q 85 426 54 376 q 115 478 115 475 m 99 411 q 120 442 111 428 q 135 465 129 457 q 139 474 140 474 q 81 397 135 474 q 29 318 28 321 q 35 322 31 318 q 48 338 39 326 q 69 367 57 349 q 99 411 81 385 z "},"D":{"ha":725,"x_min":53,"x_max":640,"o":"m 210 860 q 226 868 221 865 q 235 872 232 871 q 240 872 239 872 q 242 868 242 871 q 210 849 242 865 q 122 779 156 822 q 113 764 111 764 q 147 792 115 764 q 233 843 190 828 q 342 863 275 858 q 538 774 499 871 q 547 706 547 747 q 518 579 547 644 q 508 555 517 575 q 496 528 499 535 q 472 483 488 508 q 444 449 456 458 q 355 400 403 411 q 239 401 307 389 q 192 408 201 408 q 153 422 182 408 q 97 465 118 439 q 61 533 75 492 q 53 603 53 558 q 64 679 54 649 q 74 717 69 700 q 92 749 75 722 q 122 793 108 776 q 210 860 156 833 m 426 849 q 388 856 399 856 q 378 854 379 856 q 381 849 376 853 q 406 831 386 842 q 451 797 426 821 q 488 749 475 772 q 515 635 515 694 l 518 603 l 522 613 q 539 697 538 651 q 526 774 540 743 q 426 849 500 832 m 361 778 q 239 774 307 806 q 143 653 164 735 q 158 536 126 589 q 254 467 189 483 l 254 482 q 304 567 254 510 q 336 610 328 594 q 392 678 365 661 q 408 682 410 689 q 399 663 408 676 l 385 642 l 406 658 q 435 679 424 674 q 440 687 440 683 q 432 707 440 690 q 361 778 410 754 m 93 715 q 103 733 99 726 l 106 742 q 82 707 96 742 q 62 619 65 671 q 69 533 58 567 q 112 461 83 492 q 176 421 140 431 q 189 419 188 418 q 175 428 190 421 q 85 529 115 458 q 72 597 75 553 q 93 715 69 665 m 439 629 q 450 651 450 639 q 446 664 450 664 q 424 638 442 664 q 375 576 406 613 q 331 521 351 550 q 311 485 311 492 q 349 524 311 476 q 375 556 360 536 q 439 629 428 621 m 447 596 q 449 603 449 600 q 449 610 449 607 l 449 613 q 422 585 444 613 q 379 524 400 557 q 343 465 340 465 l 347 467 q 374 497 353 469 q 419 553 393 524 q 447 596 444 579 m 342 586 q 351 599 347 594 q 353 603 354 603 q 338 588 351 603 q 324 571 324 572 q 342 586 324 564 m 432 546 l 435 554 q 404 522 431 553 q 378 483 372 485 q 389 490 379 483 q 432 546 411 506 m 293 531 l 296 542 q 272 510 293 542 l 265 497 l 276 507 q 293 531 288 517 m 328 475 l 335 490 l 319 475 q 311 460 304 460 q 328 475 318 460 m 254 742 q 307 726 294 756 q 279 681 317 699 q 250 659 258 671 q 236 621 242 647 q 224 581 231 589 q 200 573 214 572 q 176 583 186 574 q 167 598 168 592 q 171 628 167 604 q 254 742 183 718 m 433 426 q 471 422 451 429 q 577 363 526 404 q 640 288 628 322 q 640 240 647 263 q 611 204 632 217 q 566 192 593 192 q 515 206 539 193 q 449 275 471 231 l 439 290 q 443 275 438 289 q 470 231 450 258 q 508 186 490 203 q 597 153 549 149 q 622 150 624 156 q 607 144 622 147 q 536 154 568 138 q 469 218 504 171 q 421 308 433 265 q 414 367 415 328 q 418 415 413 406 q 433 426 424 425 m 254 467 q 276 463 265 464 l 296 460 l 301 481 q 318 519 307 501 q 358 571 329 536 q 428 663 428 653 q 358 592 428 676 q 339 568 349 581 q 268 482 292 510 l 254 467 z "},"E":{"ha":903,"x_min":-36,"x_max":822,"o":"m 300 799 q 464 801 356 801 l 572 801 l 590 781 q 636 664 622 746 q 639 649 638 657 q 642 637 640 642 q 643 631 643 632 q 667 622 644 626 q 783 551 740 606 q 822 426 825 497 q 806 363 819 390 q 758 306 790 331 q 690 275 726 282 l 674 272 l 676 247 q 694 176 681 219 q 707 128 707 142 q 696 106 707 114 q 498 85 686 97 q 219 75 310 72 q 135 81 158 76 q 108 101 113 86 q 104 181 104 111 l 104 250 l 85 253 q 7 285 33 260 q -36 417 -46 333 q 54 546 -26 503 l 81 560 l 81 599 q 92 699 81 650 q 119 765 103 747 q 167 785 131 779 q 300 799 203 792 m 550 719 l 543 736 l 471 736 q 287 730 399 736 q 167 718 175 724 q 153 662 163 715 q 147 604 143 608 q 224 614 149 604 q 481 638 368 635 l 575 640 l 567 672 q 550 719 560 701 m 493 568 q 469 572 492 572 q 401 568 446 572 q 294 556 356 564 q 219 547 225 547 q 217 531 215 547 q 219 517 217 519 q 232 511 222 514 q 356 506 267 504 q 468 515 446 507 q 483 538 472 517 q 493 568 493 560 m 574 557 l 586 567 l 574 569 q 560 561 563 572 q 560 549 557 550 q 574 557 563 549 m 546 510 q 574 534 549 508 q 597 561 599 560 q 572 545 594 564 q 549 519 550 526 q 546 510 544 511 m 640 560 q 608 556 621 567 q 535 479 594 544 q 517 457 517 460 q 535 471 517 454 q 599 522 554 488 q 647 556 643 556 q 646 558 649 557 q 640 560 644 558 m 707 531 q 675 549 690 542 q 660 553 663 554 q 656 546 657 553 q 635 517 653 538 l 617 497 l 633 510 q 667 519 663 528 q 657 506 668 515 q 647 476 638 488 q 655 473 650 471 q 675 488 660 475 q 711 513 700 507 l 725 519 l 707 531 m 603 500 q 640 539 642 538 q 597 508 639 540 q 526 450 556 476 q 411 325 492 419 q 413 317 406 318 q 428 317 415 317 l 449 319 q 458 349 446 322 q 518 419 472 375 q 603 500 561 460 m 175 463 q 154 492 163 469 l 146 508 l 146 507 q 139 494 146 500 q 135 483 132 490 q 110 429 139 474 l 96 410 l 118 431 q 150 456 140 451 q 167 454 160 461 q 167 438 172 447 l 165 431 l 168 433 q 185 429 182 444 q 176 400 188 415 l 165 385 l 178 392 q 197 394 197 406 q 196 390 197 393 q 197 385 194 383 q 232 408 201 386 q 271 425 269 438 q 267 410 271 421 q 267 397 261 396 q 286 410 271 399 q 319 431 307 426 q 319 438 331 436 q 282 440 313 438 q 175 463 201 444 m 111 488 l 132 508 q 103 497 125 507 q 71 479 81 486 q 31 421 42 458 q 33 418 29 415 q 57 439 39 421 q 111 488 92 471 m 746 485 q 732 506 736 503 q 713 488 728 508 q 650 421 693 464 l 622 393 q 626 396 624 393 q 670 430 643 410 q 719 463 697 450 q 742 474 740 476 q 736 456 746 468 q 693 410 726 443 l 647 364 l 675 379 q 743 411 739 415 q 725 382 746 408 q 708 356 706 356 q 743 389 724 356 q 756 437 756 410 q 746 485 756 464 m 701 488 q 707 499 711 499 q 676 476 701 499 q 644 444 651 454 q 622 428 636 431 q 528 350 594 421 l 497 321 l 542 324 q 594 331 586 326 q 667 396 603 333 q 715 449 718 447 l 710 446 q 601 363 679 426 q 568 340 571 338 q 636 421 561 347 q 701 488 694 481 m 115 456 q 117 464 121 464 q 60 400 107 464 q 35 356 32 365 q 38 351 36 353 q 42 350 40 349 q 76 398 44 351 q 115 456 108 444 m 581 436 q 585 456 588 446 q 572 456 582 464 q 554 436 568 450 q 507 379 526 406 q 469 336 485 351 l 453 317 l 465 317 q 481 323 474 317 q 506 350 488 329 q 554 406 533 383 q 581 436 574 429 m 61 424 l 89 456 q 57 425 86 456 q 29 393 28 394 q 61 424 31 392 m 488 435 q 498 450 494 444 q 500 456 501 456 q 442 393 493 456 q 393 340 399 340 q 403 388 369 340 q 432 422 415 404 q 446 443 451 443 q 381 383 439 443 q 324 315 324 322 q 363 313 324 313 q 400 317 403 313 q 442 381 393 328 q 488 435 476 418 m 163 447 q 111 410 163 460 q 53 335 43 344 q 82 359 54 332 q 136 415 110 386 q 163 447 163 444 m 468 442 q 464 442 475 451 q 444 422 457 435 q 409 379 426 403 q 394 353 392 356 q 413 372 396 353 q 447 414 429 392 q 468 442 465 436 m 361 432 q 364 438 368 438 q 353 439 363 438 q 339 437 342 439 q 336 428 336 435 q 351 425 336 414 q 361 432 356 428 m 406 436 q 372 428 406 447 q 364 424 368 426 q 286 338 333 401 l 267 313 l 286 313 q 306 317 306 313 q 342 358 306 319 q 406 436 406 428 m 601 432 q 596 433 601 433 q 571 411 590 433 l 551 389 l 576 410 l 601 432 m 178 422 q 172 425 175 425 q 152 411 167 425 q 128 383 138 397 q 94 343 113 361 q 82 321 76 324 l 86 319 q 114 336 96 317 q 156 386 132 354 q 178 422 179 418 m 326 413 q 328 424 328 422 q 290 401 322 428 q 219 338 257 375 l 196 315 l 217 314 l 239 313 l 281 357 q 326 413 322 401 m 250 394 q 257 413 263 413 q 210 381 249 413 q 157 318 181 357 q 158 314 156 315 q 168 313 160 313 q 185 319 178 313 q 213 347 193 325 q 250 394 244 383 m 494 379 q 506 394 503 389 l 510 400 q 495 386 507 400 q 478 363 483 372 l 474 354 q 494 379 476 356 m 704 369 q 714 382 710 376 q 719 392 718 388 l 722 394 q 684 374 719 394 q 639 346 649 353 q 644 335 618 332 q 663 339 651 336 q 685 347 679 342 q 704 369 692 351 m 182 375 q 175 378 186 386 q 144 351 165 372 q 122 317 117 319 q 133 313 132 313 q 158 340 136 313 q 182 375 179 368 m 610 244 l 610 261 l 590 260 q 501 254 582 260 q 304 244 442 249 l 174 242 l 174 193 q 178 142 174 146 q 356 143 188 135 q 522 153 419 146 q 626 163 625 161 l 619 196 q 610 244 610 228 z "},"F":{"ha":760,"x_min":39,"x_max":647,"o":"m 531 885 q 566 888 544 893 q 603 869 588 883 q 625 836 617 856 q 644 771 633 817 q 647 251 711 500 q 619 169 638 217 q 596 118 601 122 q 547 110 586 113 q 469 108 507 107 q 251 132 382 114 q 78 163 119 150 q 39 211 35 176 q 47 239 40 229 q 74 288 54 244 q 107 369 93 332 q 133 529 133 443 q 108 740 133 610 q 82 828 93 818 q 72 855 69 839 q 89 879 74 871 q 165 878 100 885 q 380 874 244 871 q 531 885 515 876 m 569 790 q 554 818 560 818 q 505 776 547 819 q 466 728 463 732 q 497 742 469 725 q 532 751 532 763 q 499 717 532 739 q 472 689 478 703 q 454 675 468 676 q 401 635 438 671 q 392 621 388 621 q 447 656 397 621 q 576 736 547 726 q 582 747 583 739 q 569 790 581 754 m 200 808 q 175 811 190 810 q 165 810 167 811 q 165 803 163 808 q 167 786 167 790 q 178 790 167 779 q 192 797 189 800 q 204 800 194 794 q 200 808 213 804 m 483 796 l 508 811 l 482 811 l 456 811 l 417 775 q 386 738 381 740 q 425 760 392 736 q 483 796 451 776 m 492 775 q 510 793 501 785 q 524 806 519 801 l 528 811 q 475 781 525 811 q 419 744 425 750 q 433 738 422 739 q 456 742 449 738 q 492 775 464 747 m 231 786 l 251 807 l 239 807 q 207 792 226 807 q 191 781 201 788 q 179 772 181 774 q 174 762 174 768 q 179 731 174 756 l 186 694 l 199 706 q 211 724 211 718 q 222 738 211 729 q 266 773 235 744 q 297 804 297 801 q 286 807 297 807 q 256 794 274 807 q 224 764 238 782 q 206 749 210 747 q 204 753 204 750 q 207 760 204 756 q 215 770 210 764 q 231 786 221 776 m 328 806 l 321 807 q 285 778 314 807 l 257 750 l 292 776 q 328 806 325 803 m 340 775 q 360 807 364 806 q 306 776 346 807 l 265 744 l 286 743 l 308 742 l 340 775 m 389 799 q 394 807 404 807 q 371 792 386 807 q 365 782 363 781 q 389 799 369 786 m 401 772 q 429 807 439 807 q 397 792 422 807 q 349 760 371 776 q 331 740 328 743 q 349 738 335 738 q 369 744 360 738 q 401 772 378 750 m 494 724 q 504 731 494 724 q 514 740 514 738 q 494 731 514 743 q 475 715 475 718 q 494 724 475 711 m 569 708 q 579 717 575 713 q 585 724 583 721 q 585 726 586 726 q 533 701 579 729 q 436 636 488 674 q 419 617 414 617 q 439 610 432 617 q 453 608 446 603 q 506 653 467 621 q 569 708 538 679 m 596 681 q 586 708 592 708 q 578 703 583 710 q 510 643 571 696 q 450 586 450 594 q 446 569 450 578 q 450 568 444 565 q 465 578 454 569 q 538 624 485 592 q 596 656 592 656 q 598 658 597 656 q 598 667 599 661 q 596 681 597 674 m 217 686 q 206 694 210 694 q 196 686 203 694 q 193 647 188 678 q 197 600 197 617 q 201 582 197 582 q 215 592 206 582 q 224 608 224 603 q 235 624 224 614 q 251 633 246 633 q 278 653 257 633 l 300 672 l 278 672 q 239 657 256 672 q 215 643 218 639 q 226 664 213 647 q 231 678 238 678 q 217 686 225 678 m 347 647 l 374 672 l 347 672 q 322 669 329 672 q 296 651 314 667 q 276 632 275 635 q 307 624 278 629 q 324 626 318 622 q 347 647 331 629 m 393 671 q 372 657 393 676 l 356 642 l 375 656 q 393 671 393 669 m 401 647 q 421 673 428 672 q 385 650 414 674 q 351 624 353 626 q 361 621 351 621 q 401 647 374 621 m 569 628 q 565 629 592 646 q 524 604 551 621 q 400 519 436 550 l 386 508 l 401 508 q 440 529 415 508 q 569 628 469 554 m 603 631 q 601 635 603 633 q 597 638 599 638 q 512 574 592 638 q 432 507 432 511 q 465 518 432 496 q 513 547 489 533 q 572 583 532 557 q 603 608 597 599 q 603 631 608 617 m 228 581 q 211 575 228 594 q 203 536 201 565 l 204 506 l 232 535 l 260 564 l 244 571 q 228 581 228 576 m 586 576 q 592 585 592 583 q 581 578 593 588 q 526 544 572 569 q 464 506 476 517 q 456 489 451 496 q 461 478 461 479 q 520 523 461 476 q 586 576 579 569 m 603 526 q 606 526 603 526 q 610 556 610 526 q 608 586 610 586 l 597 575 q 529 519 588 564 q 458 460 478 479 q 439 443 443 443 q 404 418 435 443 q 367 388 381 399 q 367 382 361 382 q 408 407 374 382 q 522 481 449 436 q 603 526 596 526 m 300 557 q 278 556 289 561 q 239 522 267 550 q 206 488 213 496 q 199 465 200 479 l 196 444 l 208 456 q 219 478 219 465 q 229 502 219 492 q 251 513 239 513 q 286 533 265 513 q 297 544 293 540 q 301 551 300 549 q 302 555 303 553 q 300 557 301 557 m 371 551 q 347 553 356 551 q 315 535 339 556 q 299 513 293 514 q 303 511 300 511 q 334 509 322 506 q 364 529 346 513 l 386 551 l 371 551 m 424 550 l 413 551 q 378 529 399 551 q 364 508 356 507 q 396 528 371 508 q 424 550 421 549 m 600 488 q 610 506 610 492 q 607 521 610 521 q 511 453 599 521 q 424 379 424 385 q 433 378 424 378 q 478 404 443 378 q 546 453 506 426 q 600 488 586 481 m 597 454 q 610 475 611 467 q 608 477 610 476 q 601 476 606 478 q 589 469 596 474 q 569 458 582 465 q 493 404 529 433 l 456 375 l 465 368 q 476 363 472 363 q 492 375 479 364 q 544 415 513 393 q 597 454 582 443 m 256 447 q 232 453 240 450 q 215 447 226 456 q 199 440 204 438 q 194 440 196 442 q 193 433 193 438 q 174 356 193 419 l 172 349 q 185 358 174 349 q 197 379 197 371 q 224 406 197 399 q 253 428 235 408 l 272 444 l 256 447 m 608 419 q 610 438 611 425 l 608 450 l 574 425 q 475 340 476 354 q 476 335 474 333 q 506 353 481 336 q 572 394 539 376 q 608 419 607 413 m 482 443 q 476 443 490 451 q 438 415 467 436 q 400 382 400 386 q 482 443 410 378 m 286 439 q 286 443 290 443 q 267 426 282 443 l 251 410 l 267 424 q 286 439 285 438 m 328 428 l 343 443 l 324 443 q 303 440 311 443 q 281 422 296 436 l 257 400 l 274 399 q 298 401 288 396 q 328 428 308 407 m 363 442 l 360 443 q 332 418 356 443 l 308 393 l 335 417 q 363 442 360 439 m 411 436 q 392 439 411 439 q 372 435 379 439 q 349 417 365 431 q 326 390 324 393 q 381 410 336 375 q 411 436 411 435 m 590 388 q 600 398 604 399 q 574 385 596 397 q 481 324 544 369 q 365 237 417 278 q 317 192 313 196 q 347 188 318 192 l 376 183 l 426 235 q 590 388 496 307 m 603 368 q 604 381 604 375 l 604 386 q 560 349 603 386 q 494 289 518 311 l 469 264 l 492 279 q 547 313 515 296 q 586 331 579 331 q 603 368 597 331 m 196 300 q 227 339 233 339 q 210 347 221 339 l 200 356 l 179 338 q 139 272 158 318 q 125 221 119 224 q 181 210 128 218 q 268 197 235 201 l 292 194 l 353 253 l 414 310 l 396 311 q 376 309 382 313 q 354 289 369 306 q 305 246 333 267 q 272 228 276 225 q 280 246 268 231 q 318 292 292 261 q 342 319 342 317 q 328 321 342 321 q 264 281 313 321 q 176 224 186 214 q 228 276 175 226 q 275 328 278 325 q 269 331 274 329 q 250 328 257 335 q 242 322 249 328 q 225 306 235 315 q 206 289 215 297 q 158 260 158 249 q 196 300 158 263 m 297 319 q 299 325 304 325 q 264 297 293 325 l 235 268 l 263 290 q 297 319 294 317 m 588 319 q 586 321 592 322 q 550 303 578 318 q 426 215 485 268 q 399 183 394 186 q 404 182 400 183 q 435 178 414 179 q 458 188 447 178 q 519 247 469 197 l 588 319 m 338 287 q 350 299 338 287 q 363 314 363 311 q 360 317 363 317 q 336 296 357 317 q 304 261 315 275 l 299 251 q 304 256 300 253 q 338 287 314 263 m 443 308 q 439 313 446 313 q 399 283 435 313 q 363 250 363 254 q 380 261 363 249 q 417 289 397 274 q 443 308 438 304 m 579 263 q 592 307 592 306 q 526 242 590 307 q 469 175 461 176 q 486 182 476 172 q 519 206 496 190 q 546 221 543 221 q 540 196 557 221 q 533 185 536 189 l 521 172 l 536 175 q 549 179 546 175 q 558 197 553 183 q 579 263 568 221 m 499 175 q 523 188 507 172 q 532 203 539 204 q 510 190 528 201 q 499 175 490 176 z "},"G":{"ha":1179,"x_min":-169,"x_max":1097,"o":"m 999 842 q 1035 850 1033 850 q 1060 844 1036 851 q 1088 825 1082 838 q 1088 798 1093 810 q 1058 760 1083 786 q 947 617 976 667 q 847 357 863 478 q 839 335 843 333 q 822 331 833 336 q 797 329 810 325 q 778 349 782 336 q 779 396 775 361 q 885 654 794 532 l 901 676 l 853 654 q 804 626 803 631 q 750 592 806 621 q 272 288 461 439 q 137 165 213 242 q 19 35 61 89 q -56 -70 -33 -32 q -82 -140 -78 -108 q -89 -161 -85 -161 q -92 -148 -93 -160 q -85 -115 -92 -136 q -69 -76 -78 -94 l -58 -53 q -64 -58 -60 -53 q -75 -75 -75 -71 q -80 -78 -75 -78 q -85 -75 -85 -78 q -45 -17 -85 -69 q 32 76 -6 35 q 156 207 81 135 q 208 263 218 268 q 203 258 207 261 q 31 103 108 185 q -89 -50 -47 21 q -115 -88 -108 -81 q -137 -97 -122 -96 q -162 -85 -151 -97 q -169 -61 -172 -74 q -96 61 -162 -29 q -2 165 -69 96 q 113 274 65 233 q 768 688 361 478 l 886 749 q 674 715 810 731 q 513 706 538 699 q 496 720 503 707 q 492 744 489 733 q 508 765 494 760 q 578 774 522 769 q 999 842 750 783 m 415 406 q 414 408 415 408 q 378 385 411 408 q 339 356 344 361 l 363 368 q 372 375 367 372 q 415 406 415 404 m 1058 746 q 1077 769 1071 761 q 1088 781 1083 776 q 1094 785 1093 786 q 1097 782 1096 783 q 1061 717 1100 779 q 1018 652 1022 654 q 1014 654 1014 650 q 1033 689 1015 660 q 1047 713 1043 704 q 1050 721 1051 721 q 988 640 1046 721 q 922 540 931 560 q 863 350 883 454 q 843 282 847 282 q 849 329 840 285 q 865 406 857 374 q 925 560 889 497 q 1058 746 961 624 z "},"H":{"ha":1342,"x_min":47,"x_max":1260,"o":"m 1088 894 q 1172 903 1135 903 q 1221 893 1210 903 q 1231 872 1231 885 q 1222 849 1231 858 l 1214 840 l 1238 842 q 1260 840 1263 843 q 1221 832 1258 835 q 911 753 1082 819 q 585 577 740 685 q 350 361 431 469 q 327 327 339 346 q 308 295 315 308 q 304 282 301 282 q 468 360 307 282 q 605 425 575 413 q 642 435 635 438 q 665 410 661 428 q 653 378 668 392 q 500 301 643 369 q 158 114 264 188 q 89 69 99 69 q 81 60 83 69 q 74 1 79 50 q 67 -24 71 -24 q 68 24 64 -19 l 72 65 l 58 79 q 47 107 44 90 q 58 146 49 125 q 85 225 65 164 q 153 382 104 285 q 232 628 236 551 q 235 647 231 647 q 240 629 240 649 q 236 581 240 610 q 225 531 232 553 q 225 526 224 525 q 260 600 236 542 q 308 664 285 664 q 331 653 319 664 q 342 633 342 643 q 214 354 342 597 l 189 306 l 214 335 q 324 447 249 374 q 440 554 399 521 q 775 782 608 694 q 1088 894 942 869 m 1131 826 l 1160 832 l 1138 832 q 949 788 1075 833 q 840 738 917 775 q 751 692 763 701 l 783 706 q 786 707 785 706 q 1131 826 961 793 m 329 346 q 331 351 333 351 q 269 279 325 351 l 249 251 l 271 263 q 293 279 293 274 q 308 310 293 283 q 329 346 322 338 m 236 243 q 240 251 242 247 q 233 250 239 257 q 229 240 226 242 q 236 243 232 240 z "},"I":{"ha":1108,"x_min":-121,"x_max":1018,"o":"m 707 729 q 731 737 714 738 q 850 722 747 736 q 922 713 901 717 q 963 706 942 710 q 990 697 983 703 q 1003 684 997 690 q 1015 664 1008 678 q 1007 506 1040 613 q 975 428 997 475 q 933 347 953 381 q 910 315 914 313 q 911 328 904 318 q 916 338 917 336 q 906 339 915 339 q 885 348 894 339 q 875 368 875 357 q 908 480 875 378 q 939 583 942 582 q 900 572 938 586 q 853 550 863 557 q 810 499 844 544 q 753 437 775 453 q 699 421 731 421 q 654 432 674 421 q 601 475 635 443 l 565 510 l 592 469 q 710 349 644 392 q 736 328 735 333 l 731 328 q 704 342 721 332 q 575 476 642 381 q 533 532 539 531 q 528 528 532 533 q 522 517 525 524 q 507 315 504 474 q 492 57 510 104 q 468 18 483 36 q 438 -4 453 0 q 344 11 400 -17 q 244 94 289 39 q 201 162 224 119 q 167 239 178 204 q 153 269 160 260 q 128 296 147 279 q -29 369 13 403 q -65 251 -62 342 q -39 63 -67 160 q 33 -79 -11 -35 q 58 -111 54 -100 q 50 -136 61 -122 q 24 -147 40 -147 q 6 -143 13 -147 q -18 -122 -1 -139 q -120 117 -90 -51 q -107 375 -150 286 q -61 431 -93 403 q -4 474 -12 474 q -14 458 7 474 q -19 454 -17 456 q -28 448 -25 451 q -33 443 -32 444 l -36 442 q -12 442 -35 440 q 115 396 39 449 q 257 265 146 374 q 394 142 368 154 q 425 135 418 128 q 438 179 435 142 q 440 322 440 217 q 450 510 442 464 q 490 586 458 556 q 516 602 506 599 q 550 603 526 606 q 638 535 575 601 q 690 488 681 490 q 718 497 703 485 q 760 546 733 510 q 808 599 789 583 q 867 631 828 614 q 901 647 901 644 q 838 657 901 650 q 708 682 722 671 q 697 704 697 690 q 707 729 696 718 m 1017 586 q 1018 608 1018 599 q 1017 617 1018 617 q 1010 588 1015 617 q 982 490 1004 556 l 982 489 l 982 488 l 981 486 l 981 483 l 961 419 q 969 436 963 422 q 971 439 969 438 q 1000 516 986 471 q 1017 586 1014 561 m 338 96 q 244 182 319 108 l 172 253 l 181 228 q 249 103 204 160 q 350 18 294 47 q 429 1 394 -7 q 469 35 450 7 q 492 93 489 63 l 490 108 l 489 107 q 472 85 485 97 q 449 69 458 74 q 338 96 403 53 z "},"J":{"ha":867,"x_min":86,"x_max":785,"o":"m 339 867 q 410 867 371 883 q 569 771 449 851 q 760 629 754 647 q 774 610 763 622 l 785 597 l 782 517 q 733 133 769 197 q 703 107 721 114 q 624 97 686 100 q 443 97 563 93 q 133 111 208 100 q 101 126 111 114 q 86 164 90 139 q 86 322 83 185 q 93 531 89 458 q 93 614 97 601 q 101 649 88 629 q 175 729 115 668 q 339 867 288 840 m 538 710 q 418 787 460 763 q 375 811 376 811 q 336 783 374 811 q 238 696 304 760 q 172 625 172 632 q 231 622 172 619 q 378 636 289 625 q 543 653 453 646 l 617 657 l 538 710 m 649 575 q 657 594 661 593 l 653 594 q 418 572 514 585 q 286 558 357 565 l 225 554 l 251 521 q 325 440 279 488 q 389 379 371 393 q 425 363 413 363 q 463 378 438 363 q 553 460 496 401 q 649 575 610 519 m 717 533 q 717 546 717 542 q 717 551 718 550 l 688 515 q 632 447 664 483 l 604 414 l 636 444 q 690 494 672 479 q 717 533 714 515 m 172 494 q 168 518 178 508 l 158 526 l 158 503 q 172 494 158 464 m 714 483 q 713 499 714 499 q 678 464 711 499 q 606 396 643 428 q 546 336 572 367 l 522 310 l 550 336 q 625 403 581 365 q 690 454 669 440 q 710 469 707 464 q 714 483 714 474 m 194 483 q 185 494 188 496 q 181 475 182 492 q 183 458 181 458 q 189 460 185 457 q 200 470 199 465 q 194 483 201 475 m 167 456 q 169 467 174 467 q 163 464 167 467 q 156 429 157 461 q 156 401 154 401 q 161 404 157 400 q 188 435 169 411 l 207 460 l 188 450 q 164 447 164 439 q 167 456 164 450 m 219 451 q 211 451 219 461 q 207 447 210 450 q 203 440 203 440 q 211 443 204 439 q 219 451 219 447 m 708 440 q 711 453 717 454 q 690 442 707 453 q 603 372 661 424 q 490 263 546 321 q 411 186 415 186 q 442 233 397 186 q 497 297 506 300 q 467 268 494 297 q 411 219 415 215 q 413 233 407 222 q 428 254 418 244 q 458 296 450 274 l 458 299 q 413 249 451 297 q 386 216 394 226 q 371 198 378 206 q 363 191 364 190 q 360 192 363 192 q 372 216 357 194 q 404 256 388 238 q 425 294 432 288 q 390 265 421 294 q 336 208 358 235 q 299 169 304 169 q 317 210 286 168 q 342 236 329 226 q 381 278 367 258 q 394 295 393 292 q 389 301 394 299 q 364 294 381 306 q 309 250 342 279 q 264 204 276 221 q 244 183 249 183 q 251 203 236 182 q 283 244 261 217 q 317 286 306 272 q 335 310 328 300 q 342 323 343 321 q 342 328 342 325 q 285 294 331 333 q 208 215 239 256 q 181 192 181 178 q 210 234 181 196 q 260 294 239 272 q 281 321 281 317 q 263 312 281 326 q 224 276 246 297 q 190 240 201 254 q 161 213 165 208 q 201 271 154 219 q 286 378 300 378 q 265 368 282 378 q 244 351 249 358 q 215 331 235 342 q 182 300 194 317 q 160 276 169 285 q 151 263 153 271 q 150 226 150 256 q 153 179 150 185 q 370 164 160 171 q 590 165 581 157 q 635 222 599 171 q 679 290 671 274 l 689 310 l 672 299 q 564 208 619 268 q 529 179 532 176 q 619 285 525 183 q 660 332 663 331 q 649 325 658 332 q 578 269 632 314 q 499 197 525 224 q 467 176 465 167 q 485 203 468 183 q 601 326 500 221 q 708 440 699 426 m 244 425 q 228 431 228 446 q 208 399 228 425 q 168 351 189 372 q 151 310 154 336 l 149 285 l 168 304 q 249 399 238 374 q 253 412 254 408 q 244 425 253 415 m 219 431 q 182 407 219 442 q 159 383 164 390 q 154 365 154 375 q 158 354 156 353 q 192 392 164 357 q 219 431 219 426 m 708 383 q 709 400 708 393 q 710 413 710 407 q 710 422 710 419 l 710 425 q 657 371 708 425 q 578 286 606 317 l 547 254 l 589 289 q 688 358 681 365 q 649 301 693 351 l 632 283 l 661 303 q 694 319 690 322 q 699 320 697 318 q 703 330 701 322 q 706 349 704 338 q 708 383 707 361 m 274 396 q 265 403 267 403 q 256 392 263 403 q 235 363 249 381 l 222 344 l 238 358 q 267 379 250 371 q 278 387 276 385 q 274 396 279 389 m 314 326 l 332 336 l 313 356 q 293 367 293 375 q 275 340 293 360 l 263 325 q 271 331 265 326 q 290 343 286 343 q 286 315 299 343 q 285 309 285 310 q 289 311 285 308 q 314 326 297 317 m 481 294 l 506 325 q 465 289 489 321 q 451 265 449 265 q 481 294 453 265 m 363 315 q 350 318 350 326 q 332 292 350 314 l 315 268 l 342 289 q 356 301 351 297 q 364 308 361 304 q 366 313 367 311 q 363 315 365 314 m 694 256 q 699 313 704 317 q 694 303 697 311 q 624 190 689 281 q 619 183 618 183 q 632 189 621 183 q 656 194 644 196 q 670 185 668 193 q 667 178 672 178 q 663 185 663 178 q 660 192 663 192 q 636 181 656 192 q 614 165 617 171 q 614 160 608 160 q 625 163 617 161 q 658 165 642 165 q 674 168 671 165 q 681 186 676 171 q 694 256 688 208 m 460 540 q 489 543 474 542 q 513 545 504 544 q 522 546 521 546 q 540 540 531 547 q 554 525 550 533 q 553 500 558 513 q 538 483 549 488 q 473 474 528 479 q 375 468 418 469 q 340 468 346 467 q 325 479 333 469 q 319 514 311 494 q 375 535 329 533 q 460 540 408 535 z "},"K":{"ha":981,"x_min":96,"x_max":900,"o":"m 251 869 q 322 872 272 872 q 392 868 372 871 q 701 694 554 842 q 822 539 781 615 q 886 354 864 463 q 899 236 899 294 q 889 156 900 178 q 829 113 871 121 q 679 144 772 101 q 564 233 586 186 q 558 274 557 249 q 565 303 560 293 q 601 356 571 314 q 635 456 639 407 q 622 506 633 485 q 581 556 610 526 q 465 617 518 617 q 429 610 443 617 q 332 561 415 604 q 224 557 275 531 q 168 603 201 569 q 121 660 135 636 q 96 761 89 715 q 128 826 100 796 q 182 856 156 856 q 219 862 200 856 q 251 869 239 868 m 293 794 q 296 803 303 803 q 289 800 293 803 q 282 794 285 797 q 281 789 279 790 q 293 794 282 786 m 269 790 q 267 799 271 797 q 254 794 263 800 q 256 781 249 792 q 269 790 265 768 m 321 792 q 317 799 324 800 q 294 785 308 796 q 272 768 278 772 q 279 744 267 765 q 300 729 294 725 q 321 755 307 735 q 339 783 335 775 l 339 789 q 333 783 339 789 q 313 757 324 776 q 297 742 301 738 q 311 775 289 750 q 321 792 318 785 m 358 782 q 375 797 375 796 q 364 799 375 799 q 353 796 356 799 q 347 783 350 793 l 342 768 l 358 782 m 397 789 q 349 760 397 804 q 346 757 347 758 q 310 719 317 731 q 311 700 304 707 q 335 718 317 694 q 375 761 353 740 q 397 789 397 782 m 421 768 q 426 783 429 782 q 413 777 425 786 q 384 751 400 768 q 354 719 368 735 q 330 688 333 694 q 331 675 326 682 q 336 656 336 667 q 340 649 336 649 q 363 661 343 650 q 386 678 388 675 q 417 719 385 681 q 450 765 450 761 q 399 726 450 779 q 374 697 386 713 q 355 679 357 676 q 360 700 353 682 q 390 736 367 718 q 421 768 414 756 m 474 769 q 458 764 464 775 q 454 753 453 754 q 467 758 456 753 q 474 769 479 765 m 226 694 q 210 718 221 703 q 174 767 176 767 q 171 764 172 767 l 171 763 q 215 658 154 722 q 276 617 254 617 l 283 618 q 275 628 283 619 q 226 694 261 643 m 481 739 q 490 758 499 760 q 464 747 485 758 q 424 713 450 739 q 397 681 397 686 q 402 680 397 679 q 414 683 407 681 q 481 739 439 690 m 510 747 q 510 751 517 751 q 494 742 504 751 l 490 735 l 494 738 q 510 747 504 742 m 536 736 l 531 739 q 519 733 525 742 l 517 726 q 524 729 517 726 q 529 732 526 731 q 533 735 532 733 q 536 736 535 736 m 497 714 q 507 733 511 735 q 483 720 501 733 q 460 700 465 707 q 465 690 456 692 q 489 686 471 689 l 525 682 l 536 696 q 551 725 556 718 q 515 710 544 738 q 485 693 485 681 q 497 714 485 694 m 582 706 q 566 715 569 715 q 558 710 563 715 q 567 703 558 704 q 577 701 575 703 q 578 690 579 699 q 578 678 575 679 q 590 685 582 676 q 594 694 596 690 q 582 706 593 697 m 567 681 q 565 694 569 693 q 549 686 561 694 q 538 676 538 679 q 549 671 538 674 q 563 669 561 668 q 567 681 565 669 m 604 660 q 614 681 618 675 q 606 685 610 686 q 588 672 601 683 l 571 658 l 581 651 q 591 647 588 646 q 604 660 594 647 m 631 660 q 631 665 636 663 q 619 661 624 668 q 619 656 614 656 q 631 660 625 656 m 640 644 q 637 650 640 649 q 627 650 633 651 q 613 644 621 649 l 600 638 l 613 626 q 628 617 624 618 q 635 628 631 617 q 640 644 640 639 m 651 626 q 663 633 663 631 q 657 642 663 636 q 646 633 651 647 q 644 624 643 625 q 651 626 644 622 m 675 608 q 668 621 683 622 q 651 615 661 621 l 635 607 l 647 596 q 658 586 656 586 q 665 593 660 586 q 675 608 671 601 m 689 594 q 690 603 694 599 q 681 599 686 607 q 681 590 675 590 q 689 594 683 592 m 704 581 q 681 581 703 594 q 669 569 669 574 q 681 550 669 564 q 688 544 685 543 q 696 557 690 546 q 704 581 706 572 m 731 544 q 706 543 728 561 l 689 532 l 697 515 l 704 500 l 718 518 q 731 544 732 536 m 729 504 q 749 520 749 517 q 744 528 749 524 q 724 511 738 533 l 710 490 l 729 504 m 760 501 q 752 507 757 508 q 732 494 747 506 q 713 476 715 483 q 711 450 710 469 l 713 429 l 732 454 q 758 489 754 483 q 760 501 761 494 m 774 471 q 767 482 769 482 q 754 469 765 482 q 733 442 743 456 l 724 429 q 749 444 726 429 q 776 460 772 460 q 774 471 779 460 m 785 446 q 760 440 783 456 q 750 435 756 438 q 715 405 726 418 q 693 369 703 392 q 686 346 685 351 q 701 336 688 340 q 716 342 708 335 q 747 382 724 349 q 779 426 774 415 q 785 446 785 436 m 797 417 q 760 383 797 431 q 757 379 758 381 q 754 374 751 374 q 772 386 757 374 q 796 400 789 400 q 800 406 803 400 q 797 417 797 414 m 814 343 l 801 390 l 801 381 q 785 346 801 368 q 774 328 772 329 l 779 331 q 803 335 796 343 q 810 294 810 326 q 819 268 810 278 l 828 260 l 825 278 q 814 343 822 299 m 792 378 q 789 386 792 386 q 754 360 786 386 q 722 331 722 333 q 738 321 722 328 l 751 315 l 772 343 q 792 378 792 371 m 799 286 q 800 286 799 286 q 801 308 801 286 q 796 331 801 331 q 785 324 793 329 q 772 314 778 319 q 767 307 765 308 q 782 296 772 304 q 799 286 797 286 m 717 250 q 668 271 699 260 q 640 279 644 279 q 632 274 635 279 q 640 251 626 264 q 712 208 664 229 q 796 183 760 188 q 822 186 817 182 q 828 210 828 190 l 828 226 l 818 217 q 757 225 796 197 q 717 250 733 242 z "},"L":{"ha":657,"x_min":121,"x_max":575,"o":"m 422 1085 q 468 1088 440 1092 q 518 1072 496 1083 q 575 1014 575 1042 q 558 983 575 993 q 524 983 542 972 q 466 1015 482 1011 q 435 1010 450 1019 q 381 900 406 990 q 346 683 356 810 q 342 526 340 624 q 351 364 344 428 q 368 254 357 318 q 383 178 379 190 q 393 179 386 169 q 397 188 394 182 q 441 256 413 215 q 476 301 469 297 q 521 297 501 318 q 530 267 535 283 q 493 200 525 250 q 457 145 481 181 q 433 108 433 110 q 381 54 407 68 q 322 46 356 40 q 308 49 314 49 q 301 49 301 50 q 347 25 301 46 q 396 6 392 4 q 435 51 401 8 q 485 122 468 93 q 517 186 504 154 q 535 218 529 218 q 535 206 538 218 q 513 156 531 192 q 483 100 496 119 q 424 23 463 68 q 379 -22 386 -22 q 379 -17 374 -22 q 381 -3 386 -8 q 353 13 376 3 q 208 99 278 46 q 122 182 143 150 q 121 192 117 192 q 149 164 124 192 q 210 111 167 146 q 268 69 253 76 l 272 69 q 265 75 271 71 q 175 163 228 103 q 150 194 154 186 q 147 213 146 201 q 183 243 153 243 q 203 235 193 243 q 243 197 213 228 q 303 138 283 154 q 319 128 319 125 q 318 135 319 129 q 304 204 313 164 q 299 233 303 215 q 293 260 294 251 q 290 272 292 269 q 288 278 290 276 q 285 281 286 281 q 271 335 279 276 q 256 474 263 393 q 250 610 250 554 q 333 990 250 836 q 376 1053 350 1021 q 406 1083 401 1086 q 422 1085 410 1081 m 286 825 q 300 893 301 892 q 294 878 299 894 q 283 840 289 863 q 274 799 278 817 q 260 568 256 708 q 269 424 264 464 l 275 379 l 274 419 q 267 543 274 421 q 286 825 257 693 z "},"M":{"ha":939,"x_min":39,"x_max":858,"o":"m 393 867 q 458 872 411 872 q 529 865 504 871 q 576 860 561 860 q 633 842 596 860 q 706 799 671 824 q 836 624 794 732 q 858 481 858 564 q 833 333 857 399 q 663 110 781 189 q 404 47 544 31 q 132 178 235 68 q 39 369 57 257 q 39 494 29 429 q 120 691 56 603 q 283 829 185 779 q 393 867 324 849 m 535 789 q 425 799 474 804 q 318 763 376 793 q 207 678 258 733 q 108 414 100 565 q 155 266 113 332 q 269 164 197 200 q 491 121 385 107 q 678 218 597 135 q 785 463 778 321 q 704 701 793 604 q 638 754 674 736 q 535 789 601 772 m 378 761 q 440 763 385 763 q 592 722 528 760 q 714 588 671 675 q 746 410 757 500 q 592 192 726 258 q 521 166 554 172 q 436 163 488 160 q 339 178 382 164 q 163 347 206 222 q 153 439 153 375 q 163 533 153 501 q 221 651 183 600 q 304 726 258 703 q 325 742 317 732 q 378 761 335 751 m 494 683 q 429 690 468 690 q 392 688 403 690 q 360 674 382 685 q 314 646 329 657 q 263 581 289 626 q 229 496 236 535 q 224 427 222 467 q 233 365 225 388 q 389 239 271 267 l 404 236 l 381 289 q 322 450 322 410 q 340 521 322 469 q 369 614 357 571 q 411 678 386 678 q 445 665 422 678 q 471 646 468 653 q 493 550 476 635 q 510 453 510 465 q 490 346 510 442 q 467 240 471 250 q 468 231 463 231 q 494 235 472 231 q 611 294 558 246 q 668 393 653 333 q 639 572 692 483 q 494 683 586 660 m 432 485 q 424 519 426 513 q 419 520 422 525 q 407 490 415 515 l 393 450 l 404 417 q 420 380 417 381 q 431 414 424 379 q 432 485 438 456 z "},"N":{"ha":913,"x_min":138,"x_max":829,"o":"m 400 876 q 530 878 443 881 q 650 871 617 876 q 806 810 760 850 l 822 794 l 828 743 q 829 549 833 692 q 825 300 825 408 l 825 193 l 811 175 q 614 69 749 97 q 515 60 576 61 q 415 65 454 58 q 258 114 331 78 q 146 197 185 150 q 138 253 118 229 q 145 276 144 263 q 142 360 146 290 q 140 644 135 496 q 156 808 144 792 q 248 847 165 824 q 400 876 331 869 m 621 801 q 501 807 581 807 q 379 801 422 807 q 292 781 285 788 q 360 755 303 771 q 465 733 418 739 q 597 738 522 728 q 708 768 671 749 l 725 776 l 694 785 q 621 801 664 794 m 232 715 q 236 726 243 724 q 222 721 229 729 q 218 707 210 707 q 232 715 224 708 m 247 707 q 253 715 256 715 q 233 706 251 715 q 215 688 215 694 q 228 689 215 681 q 247 707 240 699 m 281 694 q 276 703 286 706 q 244 686 268 700 q 216 667 221 672 q 211 653 211 663 q 215 638 211 638 q 248 663 219 638 q 281 694 276 688 m 760 679 q 758 693 758 686 q 756 703 757 700 l 754 707 q 733 699 751 707 q 676 680 717 692 q 626 668 636 668 q 601 650 615 668 q 543 599 586 632 q 489 554 500 565 l 479 543 l 499 543 q 520 547 513 543 q 550 572 528 551 q 665 665 658 671 q 667 660 667 664 q 625 624 667 656 q 560 567 592 596 l 535 543 l 556 543 l 578 543 l 636 600 q 738 690 728 690 q 694 619 756 690 q 668 590 682 606 q 639 547 633 549 q 685 581 650 547 q 742 632 721 614 l 763 650 l 760 679 m 301 694 q 289 692 300 703 q 286 686 283 686 q 294 689 288 686 q 301 694 301 690 m 288 649 q 324 690 331 690 q 253 646 304 690 l 228 624 l 236 614 l 246 606 l 288 649 m 301 644 q 331 667 313 654 q 344 683 350 681 q 314 661 338 685 l 300 644 l 301 644 m 382 675 q 339 660 372 683 q 290 624 318 647 q 263 594 263 600 q 278 585 263 592 q 302 583 293 578 q 342 619 311 588 q 382 675 388 667 m 418 665 q 397 669 403 671 q 385 654 392 667 q 340 606 372 636 q 324 589 332 597 q 313 576 317 581 q 310 572 310 572 q 317 576 310 571 q 335 590 324 581 q 357 608 346 599 q 414 656 404 650 q 418 665 425 664 m 442 653 q 443 664 451 667 q 369 608 426 658 l 324 567 l 338 563 q 355 565 347 560 q 392 600 363 571 q 442 653 433 640 m 476 644 l 492 658 l 475 661 q 458 658 458 663 q 410 606 458 656 q 386 581 397 593 q 369 563 375 569 q 365 556 364 556 q 410 590 367 556 q 476 644 453 625 m 590 661 q 590 664 594 664 q 561 661 588 663 l 536 660 l 481 603 l 424 547 l 440 547 q 467 558 457 547 q 532 614 478 569 q 590 661 574 647 m 700 639 q 709 651 704 646 q 716 660 714 657 q 717 664 718 664 q 656 607 715 664 q 604 547 596 549 q 643 578 610 546 q 700 639 676 610 m 510 647 q 515 660 519 660 q 499 650 513 660 q 431 596 482 638 q 381 553 381 554 q 397 551 381 551 q 417 558 407 551 q 457 593 428 565 q 510 647 501 633 m 763 594 q 758 625 763 625 q 731 599 756 625 q 696 563 706 574 q 700 556 692 556 q 721 558 704 556 q 758 565 753 561 q 763 594 763 569 m 236 522 q 224 532 236 525 l 211 539 l 211 515 l 211 493 l 224 506 q 236 522 236 518 m 281 504 q 267 510 275 506 q 236 494 261 513 q 215 477 218 482 q 211 461 211 472 q 219 436 211 444 q 228 433 228 428 q 258 469 228 438 q 281 504 289 503 m 338 484 q 338 485 338 484 q 338 488 339 486 q 322 492 336 489 q 307 489 315 494 q 272 457 299 483 l 236 419 l 249 410 q 265 400 260 400 q 292 426 271 400 q 328 469 314 454 q 333 478 331 474 q 338 484 336 482 m 756 475 q 756 490 758 490 q 703 477 715 485 q 639 415 692 469 q 565 338 575 350 l 557 325 l 574 325 q 592 330 585 325 q 617 351 600 335 q 685 413 643 379 q 747 450 740 457 q 701 378 756 443 l 674 346 l 707 364 q 747 382 740 382 q 753 419 753 382 q 756 475 753 456 m 375 471 l 386 481 l 369 483 q 354 481 360 483 q 335 464 349 478 q 296 417 317 444 l 274 389 l 292 401 q 336 438 306 411 q 375 471 367 465 m 640 431 l 688 482 q 641 442 681 481 q 566 364 601 403 q 537 325 531 325 q 567 353 543 325 q 640 431 590 381 m 354 429 l 397 478 q 360 447 396 478 q 307 403 325 415 q 289 386 289 389 q 298 380 289 383 q 308 378 307 376 q 354 429 308 379 m 444 471 q 426 475 442 472 q 408 471 415 476 q 368 431 400 465 q 321 371 318 376 q 324 368 322 369 q 333 365 331 364 q 363 392 335 367 q 418 444 392 418 l 444 471 m 628 444 q 649 476 656 476 q 610 465 624 475 q 549 401 596 454 l 486 332 l 501 329 q 520 333 513 328 q 557 368 528 338 q 628 444 607 419 m 501 469 q 486 474 501 474 q 464 465 474 472 q 418 417 454 457 q 367 357 367 361 q 374 351 367 351 q 386 350 381 351 q 446 405 390 347 q 501 469 501 463 m 567 461 l 578 474 l 564 474 q 547 466 556 474 q 514 429 538 458 q 460 364 493 403 q 444 335 433 335 q 567 461 451 335 m 592 465 q 594 474 599 474 q 558 439 590 474 q 495 369 525 404 q 467 332 465 333 q 472 331 471 329 q 531 394 474 332 q 592 465 586 457 m 529 464 q 525 469 532 469 q 460 407 517 468 q 403 344 403 346 l 415 342 q 433 349 424 340 q 476 399 442 357 q 529 464 519 450 m 729 428 q 728 433 732 433 q 682 399 724 433 q 625 347 640 364 l 608 329 l 625 332 q 653 342 642 335 q 692 382 660 346 q 729 428 724 418 m 378 385 q 400 413 403 413 q 383 399 397 413 q 358 373 369 386 q 347 360 346 360 q 378 385 351 357 m 243 296 l 258 317 l 236 331 l 215 343 l 218 299 q 215 243 221 254 q 213 233 211 236 q 221 222 214 229 q 237 215 232 214 q 249 233 242 217 q 278 274 256 246 q 292 303 297 299 q 263 288 288 307 q 228 272 228 260 q 243 296 228 274 m 267 301 q 269 311 275 311 q 261 304 267 310 q 257 294 253 294 q 267 301 261 294 m 749 296 q 747 303 749 303 q 735 296 746 303 q 701 279 724 289 q 651 243 682 272 q 588 180 622 217 q 554 139 554 143 q 650 210 554 131 q 733 278 718 267 q 749 296 749 288 m 329 288 q 317 293 325 290 q 283 267 307 296 q 254 218 243 215 q 278 236 258 219 q 314 269 297 253 q 329 288 331 286 m 360 279 q 306 249 353 292 q 258 210 268 215 q 251 203 251 204 q 257 196 251 201 q 346 156 285 176 q 386 144 386 143 q 429 197 389 149 q 472 247 469 244 q 477 256 478 251 q 471 261 476 261 q 439 235 468 261 q 381 197 390 190 q 378 208 375 201 q 396 238 381 215 q 415 267 415 265 q 406 269 415 269 q 363 240 397 269 q 293 201 296 188 q 328 240 293 206 q 360 279 363 275 m 371 260 q 381 274 386 272 q 347 247 374 274 l 331 228 q 339 233 332 228 q 371 260 361 250 m 732 257 q 744 274 746 274 q 672 215 742 274 q 589 149 607 160 q 579 140 583 143 q 576 136 575 138 q 610 142 578 135 l 642 150 l 681 196 q 732 257 714 235 m 444 261 q 427 261 435 267 q 404 233 419 256 q 390 208 388 208 q 425 235 394 207 q 436 246 432 242 q 443 253 440 250 q 446 258 446 257 q 444 261 446 260 m 633 239 q 653 264 660 264 q 644 261 651 264 q 586 213 636 258 q 469 139 482 118 q 529 214 465 144 q 556 256 561 254 q 500 211 543 256 q 438 153 456 165 q 429 136 418 139 q 489 132 439 133 q 537 131 529 129 q 544 138 544 132 q 574 178 544 144 q 633 239 603 213 m 754 242 q 751 264 753 261 l 733 243 q 696 199 715 222 q 671 168 676 175 l 671 167 l 668 163 q 707 193 672 164 l 708 194 l 710 196 l 711 197 l 714 199 q 751 224 747 225 q 756 229 756 222 q 754 242 756 233 m 606 242 l 624 260 q 600 257 621 258 q 577 249 586 256 q 538 210 568 243 q 486 153 496 164 l 478 142 l 494 151 q 606 242 518 163 m 510 235 l 528 256 l 511 256 q 490 249 499 256 q 446 201 481 242 q 422 173 432 186 q 406 152 411 160 q 403 144 401 144 q 447 173 410 142 q 510 235 485 204 z "},"O":{"ha":963,"x_min":115,"x_max":882,"o":"m 460 961 q 585 963 546 969 q 640 932 625 957 q 647 872 650 918 q 642 815 644 825 q 642 806 640 807 q 657 807 644 804 q 763 809 676 811 q 857 803 850 807 q 874 788 865 799 q 881 749 879 779 q 882 603 882 719 q 872 263 881 431 q 851 81 863 96 q 822 63 844 71 q 653 53 799 56 q 408 56 540 51 q 228 65 276 60 q 151 84 174 72 q 128 117 128 96 q 144 174 128 128 q 161 274 160 219 q 128 643 165 374 q 115 775 113 765 q 140 796 122 792 q 244 803 157 800 q 367 810 353 807 l 382 813 l 379 846 q 371 893 376 879 q 371 925 365 908 q 392 951 376 944 q 460 961 408 957 m 579 886 q 576 892 579 890 q 560 894 572 893 q 530 894 549 894 q 479 892 511 893 l 450 889 l 450 875 q 453 825 450 861 l 456 789 l 510 790 l 564 792 l 572 836 q 579 886 579 881 m 494 721 q 412 722 428 721 q 388 729 396 724 q 377 735 379 735 q 368 728 375 735 q 363 699 360 718 q 388 668 368 674 q 469 671 408 663 q 572 676 531 678 q 614 677 607 674 q 625 706 621 681 q 623 725 628 721 q 604 725 618 729 q 494 721 590 721 m 732 735 q 704 733 706 739 q 697 703 701 728 q 694 678 693 679 q 721 706 696 678 l 747 733 l 732 735 m 286 713 q 283 730 285 726 q 274 733 281 733 q 263 727 263 733 q 254 706 263 721 l 246 692 l 256 692 q 257 669 275 693 q 247 657 247 658 q 267 667 249 654 q 288 678 282 678 q 292 685 293 678 q 286 713 290 690 m 788 732 l 776 733 q 743 715 764 733 q 719 688 710 686 q 750 706 726 689 q 788 732 786 731 m 214 721 q 204 729 210 729 q 192 728 194 729 q 190 722 189 726 q 193 701 193 714 l 193 688 l 200 701 q 214 721 207 713 m 217 707 q 236 718 221 707 q 242 729 251 729 q 224 718 233 729 q 217 707 214 707 m 796 719 l 800 729 l 744 692 q 681 638 692 654 q 660 614 671 621 q 613 571 647 608 q 571 538 571 525 q 597 572 571 542 l 622 603 l 581 604 q 511 603 539 606 q 484 595 492 600 q 453 565 476 590 q 428 531 419 532 q 476 561 435 529 q 519 594 517 594 q 501 557 533 594 q 483 528 481 531 q 499 525 486 525 q 547 553 513 525 q 593 579 594 592 q 574 549 592 572 l 554 525 l 588 525 q 618 527 610 525 q 638 538 626 529 q 651 556 653 549 q 738 657 647 568 q 796 719 790 708 m 814 665 q 811 718 814 715 q 790 699 807 721 q 738 644 776 679 q 681 586 706 615 l 660 563 l 681 578 q 712 601 686 582 q 750 631 738 621 q 810 660 810 675 q 739 576 810 651 q 704 533 700 533 q 711 535 707 533 q 756 561 724 540 q 806 567 803 588 q 798 542 806 558 q 781 516 790 526 q 768 510 772 506 q 782 533 765 511 q 793 572 806 571 q 781 567 790 572 q 763 554 771 561 q 756 546 754 547 q 683 471 758 543 q 621 406 629 415 q 619 389 613 396 q 628 383 625 382 q 639 392 631 383 q 756 482 671 421 q 775 489 767 489 q 783 481 783 489 q 749 437 783 475 q 686 372 715 399 l 664 351 l 693 372 q 756 404 746 413 q 740 383 760 399 q 626 274 721 368 q 503 136 496 143 q 578 203 504 135 q 710 324 671 292 q 769 363 750 356 q 778 361 781 365 q 739 318 776 353 q 640 220 697 279 q 574 150 582 161 l 564 136 l 578 146 q 636 199 592 157 q 731 271 704 264 q 744 281 740 275 q 754 286 750 286 q 722 239 767 286 q 660 172 658 172 q 693 193 661 171 q 771 228 761 239 q 722 157 781 217 q 707 142 714 149 q 697 131 700 135 l 693 126 q 729 142 696 126 q 778 158 761 156 q 792 164 792 161 q 793 179 792 165 q 796 222 794 193 q 799 274 797 250 q 814 665 814 536 m 236 697 q 243 707 240 703 q 248 714 246 711 q 249 717 250 717 q 222 700 247 717 q 203 684 207 689 q 199 669 199 679 l 197 654 l 210 665 q 236 697 224 678 m 247 672 q 251 681 256 682 q 225 663 246 679 q 201 631 196 639 q 206 629 203 629 q 247 672 213 629 m 251 621 q 289 664 289 660 q 288 668 289 668 q 229 628 281 668 q 209 608 213 614 q 210 589 206 601 q 249 617 214 581 q 251 621 250 618 m 301 650 q 275 632 301 663 q 272 628 274 631 l 247 601 l 275 622 q 301 650 301 643 m 783 639 q 792 651 793 651 q 761 628 789 650 q 729 603 751 621 q 704 583 707 586 q 675 556 676 563 q 658 533 675 550 l 640 517 l 647 504 l 656 492 l 679 507 q 696 525 703 524 q 689 531 689 526 q 731 581 689 535 q 783 639 775 628 m 319 619 q 314 631 319 622 q 302 631 310 636 q 265 603 294 626 q 217 568 222 569 q 214 558 214 568 q 215 538 214 549 q 219 524 217 526 q 271 567 222 521 q 319 619 319 614 m 336 608 q 324 608 336 622 q 319 603 321 606 l 310 590 l 324 599 q 336 608 336 606 m 358 599 q 325 589 358 611 q 263 535 303 574 q 222 492 222 497 q 222 471 222 488 l 224 456 l 281 508 q 358 599 358 582 m 367 582 q 375 588 369 582 q 375 594 381 594 q 365 588 368 594 q 367 582 363 582 m 406 592 q 375 576 406 600 q 267 483 331 543 l 225 443 l 232 383 q 236 267 238 324 q 238 219 235 219 q 296 289 240 225 q 340 353 353 354 q 313 331 335 351 q 264 301 271 294 q 289 351 254 310 q 310 386 318 386 q 292 376 306 386 q 257 363 267 353 q 304 429 249 372 q 335 472 342 468 q 293 449 329 478 q 250 424 250 414 q 285 461 250 426 q 326 511 319 497 q 347 532 333 526 q 381 560 357 536 q 406 592 406 585 m 453 593 l 438 594 q 413 583 419 594 q 388 553 403 569 q 379 543 383 547 q 374 536 375 539 l 372 533 q 412 561 374 533 q 453 593 450 589 m 429 556 q 450 578 451 578 q 419 557 447 576 q 400 535 392 536 q 429 556 407 532 m 481 546 q 493 563 503 568 q 474 549 488 560 q 458 531 451 532 q 481 546 464 529 m 535 525 q 554 540 539 525 q 567 556 569 556 q 555 548 564 556 q 539 533 546 540 q 535 525 532 525 m 661 463 l 722 525 q 684 500 717 525 q 647 468 651 475 q 629 453 640 456 q 589 428 618 450 q 586 400 569 403 q 608 410 596 400 q 661 463 621 421 m 767 469 q 763 476 781 488 q 740 458 754 471 q 708 434 735 454 q 669 404 682 414 q 628 360 628 371 q 593 328 628 331 q 555 308 578 326 q 443 206 532 289 q 372 142 383 150 l 358 132 l 375 128 q 409 131 399 125 q 457 172 419 136 q 583 290 503 218 q 699 399 644 344 q 767 469 754 453 m 321 419 q 357 464 364 464 q 310 421 353 464 q 267 372 267 378 q 321 419 267 361 m 375 440 q 383 460 389 460 q 354 440 372 460 q 346 421 342 422 q 375 440 357 421 m 418 439 l 439 460 l 424 460 q 389 442 408 460 l 371 422 l 383 419 q 418 439 397 418 m 443 436 q 457 456 465 456 q 429 436 449 456 q 415 417 408 417 q 443 436 422 418 m 506 429 q 528 453 528 450 q 504 456 528 456 q 482 453 489 456 q 460 438 475 450 q 438 415 438 419 q 443 413 436 414 q 460 411 450 413 q 482 413 475 411 q 506 429 489 415 m 536 438 q 547 451 551 451 q 519 429 543 451 q 507 415 504 415 q 536 438 511 417 m 599 447 l 594 451 l 583 451 q 539 429 564 451 l 514 408 l 529 406 q 550 408 542 403 q 599 447 558 414 m 619 279 l 725 386 q 678 349 724 386 q 614 296 633 313 q 457 153 514 208 l 428 126 l 454 126 l 482 126 l 497 149 q 619 279 513 171 m 321 356 q 296 346 321 376 q 293 343 294 344 q 277 316 275 318 q 299 331 279 314 q 321 356 321 350 m 386 324 q 403 344 406 342 q 381 347 400 347 q 358 343 365 347 q 329 314 351 339 q 250 219 271 247 q 246 213 246 214 q 257 219 246 213 q 386 324 289 238 m 465 336 q 450 340 465 338 q 428 333 440 342 q 365 272 417 324 q 286 188 318 225 q 254 143 254 151 q 264 139 254 139 q 369 238 272 139 l 465 336 m 513 335 q 490 338 497 335 q 382 238 483 340 q 328 183 346 201 q 299 151 311 165 q 289 136 288 138 q 292 132 290 135 q 328 142 310 128 q 425 233 347 157 q 517 333 521 329 q 513 335 517 335 m 661 256 q 703 297 683 276 q 733 328 724 317 l 744 339 q 607 218 735 339 q 526 143 556 169 l 506 126 l 524 126 q 543 130 538 126 q 560 149 549 133 q 661 256 578 172 m 529 299 l 564 329 l 550 331 q 522 315 539 331 q 435 229 504 299 q 351 140 349 143 q 429 206 354 138 q 485 258 449 225 q 529 299 522 290 m 354 275 q 378 300 367 288 q 396 319 390 313 l 401 325 q 390 317 399 325 q 319 256 378 303 q 250 204 261 210 q 233 204 235 197 q 231 200 232 206 q 221 175 226 193 q 213 140 211 142 q 247 139 224 136 q 256 163 244 144 q 283 200 267 181 q 354 275 311 232 m 699 229 q 717 249 711 243 q 722 256 724 256 q 643 192 710 256 q 585 140 606 156 l 565 126 l 588 126 q 610 132 610 126 q 699 229 610 138 m 757 211 q 765 225 767 225 q 689 178 756 225 q 654 154 675 169 q 631 138 633 139 l 613 126 l 646 126 l 678 126 l 713 163 q 757 211 746 196 m 783 142 q 780 151 785 151 q 749 140 775 150 q 728 128 726 131 q 758 129 729 125 q 777 133 772 131 q 783 142 782 136 z "},"P":{"ha":856,"x_min":239,"x_max":775,"o":"m 474 813 q 532 815 483 815 q 611 804 581 817 q 717 742 679 781 q 774 583 779 676 q 701 421 769 490 q 665 388 674 392 q 656 313 658 385 q 649 232 653 242 q 633 214 644 221 q 622 190 621 206 q 600 146 624 175 q 560 106 576 114 q 504 101 544 99 q 413 129 440 104 q 394 159 404 136 q 382 199 385 182 q 368 222 379 217 q 350 245 354 229 q 343 310 346 261 q 338 364 340 354 q 329 379 336 374 q 264 449 279 421 q 240 590 226 514 q 313 726 253 667 q 432 799 363 778 q 474 813 465 808 m 575 738 q 485 739 531 747 q 440 724 469 736 q 396 703 411 713 q 340 646 364 682 q 311 578 315 610 q 324 490 304 529 q 355 454 332 474 q 400 426 378 435 q 435 418 435 413 q 429 426 435 421 q 411 499 419 436 q 403 548 408 519 q 399 578 399 576 q 418 615 394 603 q 458 608 442 626 q 475 563 467 601 q 485 500 483 525 q 492 500 485 478 q 497 522 493 508 q 535 611 518 597 q 559 616 544 618 q 582 606 574 614 q 592 583 592 596 q 582 547 592 571 q 556 442 563 499 q 557 418 553 418 q 563 419 558 418 q 682 519 646 444 q 697 554 694 543 q 699 594 699 565 q 688 657 699 636 q 575 738 654 722 m 482 408 q 485 418 488 411 q 475 421 482 425 q 454 417 469 417 q 444 415 444 417 l 458 413 q 482 408 478 408 m 422 335 q 421 344 428 342 q 417 344 418 346 q 415 336 415 342 l 417 326 l 422 335 m 583 325 q 582 343 583 339 q 576 347 581 347 q 543 332 551 344 q 527 304 526 306 q 547 321 528 303 q 576 343 574 343 q 563 301 590 343 q 553 289 557 294 q 548 280 550 283 q 546 275 546 276 q 564 279 547 274 q 580 292 576 283 q 583 325 583 300 m 450 326 q 454 339 458 339 q 439 322 451 339 q 422 294 426 306 l 424 296 q 450 326 435 306 m 490 326 q 492 339 499 339 q 463 315 486 339 q 443 286 440 290 q 490 326 454 269 m 511 301 q 533 333 531 326 q 531 339 536 339 q 508 325 524 339 q 481 294 493 311 l 467 279 l 481 276 q 494 279 489 275 q 511 301 499 283 m 564 319 q 564 324 568 326 q 536 300 561 322 q 519 274 514 275 q 564 319 536 274 m 467 194 q 463 206 471 203 q 455 205 456 207 q 458 193 454 203 q 461 188 460 188 q 467 194 463 188 m 526 197 q 510 201 524 199 q 485 192 493 204 q 478 178 476 182 q 494 174 481 174 q 518 185 510 174 q 526 197 528 196 m 524 171 q 525 169 524 171 q 540 186 526 168 q 550 204 554 204 q 534 189 546 204 q 524 171 522 174 z "},"Q":{"ha":1032,"x_min":144,"x_max":942,"o":"m 733 919 q 813 924 756 924 q 864 924 856 925 q 879 914 872 922 q 888 890 888 901 q 879 867 888 878 q 865 857 872 858 q 832 856 858 856 q 414 664 606 856 q 217 258 229 479 q 219 192 214 210 q 244 153 224 175 q 322 119 278 119 q 435 154 367 119 q 652 319 535 204 q 831 539 769 433 q 865 613 850 574 q 879 668 879 651 q 866 686 879 682 q 811 688 853 690 q 770 687 778 686 q 756 694 763 688 q 744 719 744 704 q 762 752 744 744 q 835 760 779 760 q 906 751 885 760 q 942 714 926 742 q 906 528 971 654 q 717 279 843 407 q 389 57 535 96 q 243 63 303 33 q 157 150 186 90 q 145 184 147 172 q 144 236 143 196 q 207 503 146 374 q 433 781 286 664 q 733 919 579 897 z "}}}
